<?xml version="1.0" encoding="UTF-8" standalone="no"?>
<!DOCTYPE svg PUBLIC "-//W3C//DTD SVG 1.1//EN"
"http://www.w3.org/Graphics/SVG/1.1/DTD/svg11.dtd">
<svg viewBox="0 0 908 1286" version="1.1" xmlns="http://www.w3.org/2000/svg" xmlns:xlink="http://www.w3.org/1999/xlink">
<defs>
<clipPath id="c0_1"><path d="M464.7 1082V574.6H779.3V1082Z"/></clipPath>
<style type="text/css"><![CDATA[
.g0_1{
fill: #000;
}
]]></style>
</defs>
<path fill-rule="evenodd" d="M130.2 147.4H253.3v-2H130.2v2Z" class="g0_1"/>
<image clip-path="url(#c0_1)" preserveAspectRatio="none" x="465" y="575" width="314" height="507" xlink:href="img/1.png"/>
<path d="M722.4 708.5q0 .1 0 .2c0 0 -.1 0 -.2 .1c0 0 -.1 0 -.2 0c-.2 0 -.3 0 -.5 0c-.2 0 -.3 0 -.5 0c-.1 0 -.2 0 -.3 0c0 -.1 -.1 -.1 -.1 -.1q0 -.1 0 -.2v-4.7c0 -.4 -.1 -.8 -.2 -1.1c-.1 -.3 -.2 -.5 -.4 -.7c-.2 -.2 -.4 -.4 -.6 -.5c-.3 -.1 -.7 -.1 -1 -.1c-.5 0 -1 .1 -1.4 .4c-.5 .2 -1 .6 -1.5 1.1v5.6q0 .1 0 .2q-.1 0 -.2 .1c-.1 0 -.2 0 -.3 0c-.1 0 -.3 0 -.4 0c-.2 0 -.4 0 -.5 0c-.1 0 -.2 0 -.3 0q-.1 -.1 -.1 -.1q-.1 -.1 -.1 -.2v-8q0 -.1 .1 -.1q0 -.1 .1 -.1q.1 -.1 .3 -.1c.1 0 .2 0 .4 0c.1 0 .3 0 .4 0c.1 0 .2 0 .3 .1l.1 .1v1.2c.6 -.5 1.2 -.9 1.7 -1.2c.6 -.2 1.2 -.3 1.8 -.3c.7 0 1.2 .1 1.7 .3c.5 .1 .8 .4 1.1 .7c.3 .3 .5 .7 .6 1.1c.2 .4 .2 .9 .2 1.4Zm11.2 .1c0 0 0 .1 -.1 .1c0 .1 -.1 .1 -.2 .1c-.1 0 -.3 0 -.5 0c-.2 0 -.4 0 -.5 0c-.1 0 -.2 0 -.2 -.1c-.1 0 -.1 -.1 -.1 -.1v-.9c-.5 .4 -.9 .7 -1.5 .9c-.5 .2 -1.1 .3 -1.7 .3c-.6 0 -1.1 0 -1.5 -.1c-.4 -.1 -.8 -.3 -1.1 -.5c-.3 -.2 -.6 -.5 -.7 -.8c-.2 -.3 -.3 -.6 -.3 -1c0 -.5 .1 -.9 .4 -1.2c.2 -.3 .5 -.6 1 -.8c.4 -.3 1 -.4 1.6 -.5c.6 -.1 1.3 -.2 2.1 -.2h1.4v-.6c0 -.3 0 -.6 -.1 -.9c-.1 -.2 -.2 -.4 -.4 -.5c-.2 -.2 -.4 -.3 -.7 -.4c-.3 -.1 -.7 -.1 -1.1 -.1c-.5 0 -.9 0 -1.2 .1c-.4 .1 -.7 .2 -1 .3c-.3 .1 -.5 .2 -.7 .3c-.2 .1 -.3 .1 -.4 .1q-.1 0 -.2 0c0 0 -.1 -.1 -.1 -.1q0 -.1 -.1 -.2c0 -.1 0 -.2 0 -.3c0 -.1 0 -.2 .1 -.3c0 -.1 0 -.2 .1 -.3c.1 0 .3 -.1 .6 -.2c.2 -.1 .5 -.2 .8 -.3c.4 -.1 .7 -.2 1.1 -.2c.4 -.1 .8 -.1 1.2 -.1c.7 0 1.3 0 1.9 .2c.5 .1 .9 .3 1.2 .6c.3 .2 .6 .5 .7 .9c.1 .4 .2 .8 .2 1.3Zm-1.9 -3.7h-1.6c-.5 0 -.9 0 -1.3 .1c-.4 0 -.7 .1 -.9 .3c-.3 .1 -.5 .3 -.6 .5c-.1 .2 -.2 .4 -.2 .6c0 .4 .2 .8 .5 1c.4 .3 .8 .4 1.5 .4c.4 0 .9 -.1 1.3 -.3c.4 -.2 .9 -.5 1.3 -.9Zm11.8 1.5c0 .4 -.1 .7 -.3 1.1c-.2 .3 -.4 .5 -.8 .8c-.4 .2 -.8 .4 -1.3 .5c-.5 .1 -1 .1 -1.6 .1c-.4 0 -.7 0 -1 0c-.4 -.1 -.7 -.1 -.9 -.2c-.3 -.1 -.5 -.1 -.7 -.2c-.2 -.1 -.3 -.2 -.4 -.2c-.1 -.1 -.1 -.2 -.2 -.3c0 -.1 0 -.2 0 -.4c0 -.1 0 -.2 0 -.3q0 -.1 0 -.2c.1 0 .1 -.1 .2 -.1h.1c.1 0 .2 0 .4 .1c.1 .1 .3 .2 .6 .3c.2 .1 .5 .2 .8 .2c.3 .1 .7 .2 1.1 .2c.4 0 .6 -.1 .9 -.1c.3 -.1 .5 -.2 .7 -.3c.2 -.1 .3 -.2 .4 -.4c.1 -.1 .2 -.3 .2 -.5c0 -.3 -.1 -.5 -.3 -.6c-.1 -.2 -.3 -.3 -.5 -.4c-.3 -.1 -.6 -.2 -.9 -.3c-.3 -.1 -.6 -.2 -.9 -.3c-.3 -.1 -.6 -.2 -1 -.4c-.3 -.1 -.5 -.3 -.8 -.4c-.2 -.2 -.4 -.5 -.6 -.7c-.1 -.3 -.2 -.6 -.2 -.9c0 -.3 .1 -.6 .3 -.9c.1 -.3 .3 -.6 .7 -.8c.3 -.2 .6 -.4 1.1 -.5c.5 -.2 1 -.2 1.7 -.2c.2 0 .5 0 .8 0c.2 .1 .5 .1 .7 .2c.2 0 .4 .1 .6 .1c.1 .1 .2 .2 .3 .2c.1 .1 .2 .1 .2 .1q0 .1 0 .2c0 0 .1 .1 .1 .1c0 .1 0 .2 0 .3q0 .1 0 .2c0 .1 -.1 .2 -.1 .2q0 .1 -.1 .1c0 0 -.1 0 -.1 0c-.1 0 -.2 0 -.3 0c-.1 -.1 -.3 -.2 -.5 -.3c-.2 0 -.5 -.1 -.7 -.2c-.3 0 -.6 -.1 -1 -.1c-.3 0 -.6 0 -.8 .1c-.3 .1 -.5 .1 -.6 .3c-.2 .1 -.3 .2 -.4 .3c0 .2 -.1 .3 -.1 .5c0 .2 .1 .4 .2 .6c.2 .1 .4 .3 .6 .4c.3 .1 .6 .2 .9 .3c.3 .1 .6 .2 .9 .3c.3 .1 .7 .2 1 .4c.3 .1 .6 .2 .8 .4c.2 .2 .4 .4 .6 .7c.1 .2 .2 .5 .2 .9Z" class="g0_1"/>
</svg>