<?xml version="1.0" encoding="UTF-8" standalone="no"?>
<!DOCTYPE svg PUBLIC "-//W3C//DTD SVG 1.1//EN"
"http://www.w3.org/Graphics/SVG/1.1/DTD/svg11.dtd">
<svg viewBox="0 0 909 1286" version="1.1" xmlns="http://www.w3.org/2000/svg" xmlns:xlink="http://www.w3.org/1999/xlink">
<defs>
<style type="text/css"><![CDATA[
.g0_3{
fill: #000;
}
]]></style>
</defs>
<path fill-rule="evenodd" d="M354.5 130.9H555.1v-1.8H354.5v1.8Z" class="g0_3"/>
<path fill-rule="evenodd" d="M110 426h.8v-.8H110v.8Z" class="g0_3"/>
<path fill-rule="evenodd" d="M110 426h.8v-.8H110v.8Z" class="g0_3"/>
<path fill-rule="evenodd" d="M110.8 426H216.7v-.8H110.8v.8Z" class="g0_3"/>
<path fill-rule="evenodd" d="M216.7 426h.8v-.8h-.8v.8Z" class="g0_3"/>
<path fill-rule="evenodd" d="M217.5 426H798.9v-.8H217.5v.8Z" class="g0_3"/>
<path fill-rule="evenodd" d="M798.9 426h.8v-.8h-.8v.8Z" class="g0_3"/>
<path fill-rule="evenodd" d="M798.9 426h.8v-.8h-.8v.8Z" class="g0_3"/>
<path fill-rule="evenodd" d="M110 472.9h.8V426H110v46.9Z" class="g0_3"/>
<path fill-rule="evenodd" d="M216.7 472.9h.8V426h-.8v46.9Z" class="g0_3"/>
<path fill-rule="evenodd" d="M798.9 472.9h.8V426h-.8v46.9Z" class="g0_3"/>
<path fill-rule="evenodd" d="M110 473.6h.8v-.7H110v.7Z" class="g0_3"/>
<path fill-rule="evenodd" d="M216.7 473.6h.8v-.7h-.8v.7Z" class="g0_3"/>
<path fill-rule="evenodd" d="M217.5 473.6h110v-.7h-110v.7Z" class="g0_3"/>
<path fill-rule="evenodd" d="M327.5 473.6h.7v-.7h-.7v.7Z" class="g0_3"/>
<path fill-rule="evenodd" d="M328.2 473.6H467v-.7H328.2v.7Z" class="g0_3"/>
<path fill-rule="evenodd" d="M467 473.6h.8v-.7H467v.7Z" class="g0_3"/>
<path fill-rule="evenodd" d="M467.8 473.6H574.9v-.7H467.8v.7Z" class="g0_3"/>
<path fill-rule="evenodd" d="M574.9 473.6h.7v-.7h-.7v.7Z" class="g0_3"/>
<path fill-rule="evenodd" d="M575.6 473.6H684.9v-.7H575.6v.7Z" class="g0_3"/>
<path fill-rule="evenodd" d="M684.9 473.6h.7v-.7h-.7v.7Z" class="g0_3"/>
<path fill-rule="evenodd" d="M685.6 473.6H798.9v-.7H685.6v.7Z" class="g0_3"/>
<path fill-rule="evenodd" d="M798.9 473.6h.8v-.7h-.8v.7Z" class="g0_3"/>
<path fill-rule="evenodd" d="M110 536.1h.8V473.6H110v62.5Z" class="g0_3"/>
<path fill-rule="evenodd" d="M216.7 536.1h.8V473.6h-.8v62.5Z" class="g0_3"/>
<path fill-rule="evenodd" d="M327.5 536.1h.7V473.6h-.7v62.5Z" class="g0_3"/>
<path fill-rule="evenodd" d="M467 536.1h.8V473.6H467v62.5Z" class="g0_3"/>
<path fill-rule="evenodd" d="M574.9 536.1h.7V473.6h-.7v62.5Z" class="g0_3"/>
<path fill-rule="evenodd" d="M684.9 536.1h.7V473.6h-.7v62.5Z" class="g0_3"/>
<path fill-rule="evenodd" d="M798.9 536.1h.8V473.6h-.8v62.5Z" class="g0_3"/>
<path fill-rule="evenodd" d="M110 536.9h.8v-.8H110v.8Z" class="g0_3"/>
<path fill-rule="evenodd" d="M110.8 536.9H216.7v-.8H110.8v.8Z" class="g0_3"/>
<path fill-rule="evenodd" d="M216.7 536.9h.8v-.8h-.8v.8Z" class="g0_3"/>
<path fill-rule="evenodd" d="M217.5 536.9h110v-.8h-110v.8Z" class="g0_3"/>
<path fill-rule="evenodd" d="M327.5 536.9h.7v-.8h-.7v.8Z" class="g0_3"/>
<path fill-rule="evenodd" d="M328.2 536.9H467v-.8H328.2v.8Z" class="g0_3"/>
<path fill-rule="evenodd" d="M467 536.9h.8v-.8H467v.8Z" class="g0_3"/>
<path fill-rule="evenodd" d="M467.8 536.9H574.9v-.8H467.8v.8Z" class="g0_3"/>
<path fill-rule="evenodd" d="M574.9 536.9h.7v-.8h-.7v.8Z" class="g0_3"/>
<path fill-rule="evenodd" d="M575.6 536.9H684.9v-.8H575.6v.8Z" class="g0_3"/>
<path fill-rule="evenodd" d="M684.9 536.9h.7v-.8h-.7v.8Z" class="g0_3"/>
<path fill-rule="evenodd" d="M685.6 536.9H798.9v-.8H685.6v.8Z" class="g0_3"/>
<path fill-rule="evenodd" d="M798.9 536.9h.8v-.8h-.8v.8Z" class="g0_3"/>
<path fill-rule="evenodd" d="M110 583.8h.8V536.9H110v46.9Z" class="g0_3"/>
<path fill-rule="evenodd" d="M216.7 583.8h.8V536.9h-.8v46.9Z" class="g0_3"/>
<path fill-rule="evenodd" d="M327.5 583.8h.7V536.9h-.7v46.9Z" class="g0_3"/>
<path fill-rule="evenodd" d="M467 583.8h.8V536.9H467v46.9Z" class="g0_3"/>
<path fill-rule="evenodd" d="M574.9 583.8h.7V536.9h-.7v46.9Z" class="g0_3"/>
<path fill-rule="evenodd" d="M684.9 583.8h.7V536.9h-.7v46.9Z" class="g0_3"/>
<path fill-rule="evenodd" d="M798.9 583.8h.8V536.9h-.8v46.9Z" class="g0_3"/>
<path fill-rule="evenodd" d="M110 584.5h.8v-.7H110v.7Z" class="g0_3"/>
<path fill-rule="evenodd" d="M110.8 584.5H216.7v-.7H110.8v.7Z" class="g0_3"/>
<path fill-rule="evenodd" d="M216.7 584.5h.8v-.7h-.8v.7Z" class="g0_3"/>
<path fill-rule="evenodd" d="M217.5 584.5h110v-.7h-110v.7Z" class="g0_3"/>
<path fill-rule="evenodd" d="M327.5 584.5h.7v-.7h-.7v.7Z" class="g0_3"/>
<path fill-rule="evenodd" d="M328.2 584.5H467v-.7H328.2v.7Z" class="g0_3"/>
<path fill-rule="evenodd" d="M467 584.5h.8v-.7H467v.7Z" class="g0_3"/>
<path fill-rule="evenodd" d="M574.9 584.5h.7v-.7h-.7v.7Z" class="g0_3"/>
<path fill-rule="evenodd" d="M684.9 584.5h.7v-.7h-.7v.7Z" class="g0_3"/>
<path fill-rule="evenodd" d="M798.9 584.5h.8v-.7h-.8v.7Z" class="g0_3"/>
<path fill-rule="evenodd" d="M110 663h.8V584.5H110V663Z" class="g0_3"/>
<path fill-rule="evenodd" d="M216.7 663h.8V584.5h-.8V663Z" class="g0_3"/>
<path fill-rule="evenodd" d="M327.5 663h.7V584.5h-.7V663Z" class="g0_3"/>
<path fill-rule="evenodd" d="M467 663h.8V584.5H467V663Z" class="g0_3"/>
<path fill-rule="evenodd" d="M574.9 663h.7V584.5h-.7V663Z" class="g0_3"/>
<path fill-rule="evenodd" d="M684.9 663h.7V584.5h-.7V663Z" class="g0_3"/>
<path fill-rule="evenodd" d="M798.9 663h.8V584.5h-.8V663Z" class="g0_3"/>
<path fill-rule="evenodd" d="M110 663.7h.8V663H110v.7Z" class="g0_3"/>
<path fill-rule="evenodd" d="M110.8 663.7H216.7V663H110.8v.7Z" class="g0_3"/>
<path fill-rule="evenodd" d="M216.7 663.7h.8V663h-.8v.7Z" class="g0_3"/>
<path fill-rule="evenodd" d="M217.5 663.7h110V663h-110v.7Z" class="g0_3"/>
<path fill-rule="evenodd" d="M327.5 663.7h.7V663h-.7v.7Z" class="g0_3"/>
<path fill-rule="evenodd" d="M328.2 663.7H467V663H328.2v.7Z" class="g0_3"/>
<path fill-rule="evenodd" d="M467 663.7h.8V663H467v.7Z" class="g0_3"/>
<path fill-rule="evenodd" d="M574.9 663.7h.7V663h-.7v.7Z" class="g0_3"/>
<path fill-rule="evenodd" d="M684.9 663.7h.7V663h-.7v.7Z" class="g0_3"/>
<path fill-rule="evenodd" d="M798.9 663.7h.8V663h-.8v.7Z" class="g0_3"/>
<path fill-rule="evenodd" d="M110 710.9h.8V663.7H110v47.2Z" class="g0_3"/>
<path fill-rule="evenodd" d="M110 711.6h.8v-.7H110v.7Z" class="g0_3"/>
<path fill-rule="evenodd" d="M110 711.6h.8v-.7H110v.7Z" class="g0_3"/>
<path fill-rule="evenodd" d="M110.8 711.6H216.7v-.7H110.8v.7Z" class="g0_3"/>
<path fill-rule="evenodd" d="M216.7 710.9h.8V663.7h-.8v47.2Z" class="g0_3"/>
<path fill-rule="evenodd" d="M216.7 711.6h.8v-.7h-.8v.7Z" class="g0_3"/>
<path fill-rule="evenodd" d="M217.5 711.6h110v-.7h-110v.7Z" class="g0_3"/>
<path fill-rule="evenodd" d="M327.5 710.9h.7V663.7h-.7v47.2Z" class="g0_3"/>
<path fill-rule="evenodd" d="M327.5 711.6h.7v-.7h-.7v.7Z" class="g0_3"/>
<path fill-rule="evenodd" d="M328.2 711.6H467v-.7H328.2v.7Z" class="g0_3"/>
<path fill-rule="evenodd" d="M467 710.9h.8V663.7H467v47.2Z" class="g0_3"/>
<path fill-rule="evenodd" d="M467 711.6h.8v-.7H467v.7Z" class="g0_3"/>
<path fill-rule="evenodd" d="M467.8 711.6H574.9v-.7H467.8v.7Z" class="g0_3"/>
<path fill-rule="evenodd" d="M574.9 710.9h.7V663.7h-.7v47.2Z" class="g0_3"/>
<path fill-rule="evenodd" d="M574.9 711.6h.7v-.7h-.7v.7Z" class="g0_3"/>
<path fill-rule="evenodd" d="M575.6 711.6H684.9v-.7H575.6v.7Z" class="g0_3"/>
<path fill-rule="evenodd" d="M684.9 710.9h.7V663.7h-.7v47.2Z" class="g0_3"/>
<path fill-rule="evenodd" d="M684.9 711.6h.7v-.7h-.7v.7Z" class="g0_3"/>
<path fill-rule="evenodd" d="M685.6 711.6H798.9v-.7H685.6v.7Z" class="g0_3"/>
<path fill-rule="evenodd" d="M798.9 710.9h.8V663.7h-.8v47.2Z" class="g0_3"/>
<path fill-rule="evenodd" d="M798.9 711.6h.8v-.7h-.8v.7Z" class="g0_3"/>
<path fill-rule="evenodd" d="M798.9 711.6h.8v-.7h-.8v.7Z" class="g0_3"/>
</svg>