<?xml version="1.0" encoding="UTF-8" standalone="no"?>
<!DOCTYPE svg PUBLIC "-//W3C//DTD SVG 1.1//EN"
"http://www.w3.org/Graphics/SVG/1.1/DTD/svg11.dtd">
<svg viewBox="0 0 909 1286" version="1.1" xmlns="http://www.w3.org/2000/svg" xmlns:xlink="http://www.w3.org/1999/xlink">
<defs>
<style type="text/css"><![CDATA[
.g0_1{
fill: #000;
}
]]></style>
</defs>
<path fill-rule="evenodd" d="M339.6 130.9H624.9v-1.8H339.6v1.8Z" class="g0_1"/>
<path fill-rule="evenodd" d="M110 505.5h.8v-.7H110v.7Z" class="g0_1"/>
<path fill-rule="evenodd" d="M110 505.5h.8v-.7H110v.7Z" class="g0_1"/>
<path fill-rule="evenodd" d="M110.8 505.5H282.2v-.7H110.8v.7Z" class="g0_1"/>
<path fill-rule="evenodd" d="M282.2 505.5h.8v-.7h-.8v.7Z" class="g0_1"/>
<path fill-rule="evenodd" d="M283 505.5H454.4v-.7H283v.7Z" class="g0_1"/>
<path fill-rule="evenodd" d="M454.4 505.5h.7v-.7h-.7v.7Z" class="g0_1"/>
<path fill-rule="evenodd" d="M455.1 505.5H626.7v-.7H455.1v.7Z" class="g0_1"/>
<path fill-rule="evenodd" d="M626.7 505.5h.8v-.7h-.8v.7Z" class="g0_1"/>
<path fill-rule="evenodd" d="M627.5 505.5H798.9v-.7H627.5v.7Z" class="g0_1"/>
<path fill-rule="evenodd" d="M798.9 505.5h.8v-.7h-.8v.7Z" class="g0_1"/>
<path fill-rule="evenodd" d="M798.9 505.5h.8v-.7h-.8v.7Z" class="g0_1"/>
<path fill-rule="evenodd" d="M110 552.5h.8v-47H110v47Z" class="g0_1"/>
<path fill-rule="evenodd" d="M282.2 552.5h.8v-47h-.8v47Z" class="g0_1"/>
<path fill-rule="evenodd" d="M454.4 552.5h.7v-47h-.7v47Z" class="g0_1"/>
<path fill-rule="evenodd" d="M626.7 552.5h.8v-47h-.8v47Z" class="g0_1"/>
<path fill-rule="evenodd" d="M798.9 552.5h.8v-47h-.8v47Z" class="g0_1"/>
<path fill-rule="evenodd" d="M110 553.2h.8v-.7H110v.7Z" class="g0_1"/>
<path fill-rule="evenodd" d="M110.8 553.2H282.2v-.7H110.8v.7Z" class="g0_1"/>
<path fill-rule="evenodd" d="M282.2 553.2h.8v-.7h-.8v.7Z" class="g0_1"/>
<path fill-rule="evenodd" d="M283 553.2H454.4v-.7H283v.7Z" class="g0_1"/>
<path fill-rule="evenodd" d="M454.4 553.2h.7v-.7h-.7v.7Z" class="g0_1"/>
<path fill-rule="evenodd" d="M455.1 553.2H626.7v-.7H455.1v.7Z" class="g0_1"/>
<path fill-rule="evenodd" d="M626.7 553.2h.8v-.7h-.8v.7Z" class="g0_1"/>
<path fill-rule="evenodd" d="M627.5 553.2H798.9v-.7H627.5v.7Z" class="g0_1"/>
<path fill-rule="evenodd" d="M798.9 553.2h.8v-.7h-.8v.7Z" class="g0_1"/>
<path fill-rule="evenodd" d="M110 694h.8V553.2H110V694Z" class="g0_1"/>
<path fill-rule="evenodd" d="M282.2 694h.8V553.2h-.8V694Z" class="g0_1"/>
<path fill-rule="evenodd" d="M454.4 694h.7V553.2h-.7V694Z" class="g0_1"/>
<path fill-rule="evenodd" d="M626.7 694h.8V553.2h-.8V694Z" class="g0_1"/>
<path fill-rule="evenodd" d="M798.9 694h.8V553.2h-.8V694Z" class="g0_1"/>
<path fill-rule="evenodd" d="M110 694.8h.8V694H110v.8Z" class="g0_1"/>
<path fill-rule="evenodd" d="M110.8 694.8H282.2V694H110.8v.8Z" class="g0_1"/>
<path fill-rule="evenodd" d="M282.2 694.8h.8V694h-.8v.8Z" class="g0_1"/>
<path fill-rule="evenodd" d="M283 694.8H454.4V694H283v.8Z" class="g0_1"/>
<path fill-rule="evenodd" d="M454.4 694.8h.7V694h-.7v.8Z" class="g0_1"/>
<path fill-rule="evenodd" d="M455.1 694.8H626.7V694H455.1v.8Z" class="g0_1"/>
<path fill-rule="evenodd" d="M626.7 694.8h.8V694h-.8v.8Z" class="g0_1"/>
<path fill-rule="evenodd" d="M627.5 694.8H798.9V694H627.5v.8Z" class="g0_1"/>
<path fill-rule="evenodd" d="M798.9 694.8h.8V694h-.8v.8Z" class="g0_1"/>
<path fill-rule="evenodd" d="M110 788.6h.8V694.8H110v93.8Z" class="g0_1"/>
<path fill-rule="evenodd" d="M282.2 788.6h.8V694.8h-.8v93.8Z" class="g0_1"/>
<path fill-rule="evenodd" d="M454.4 788.6h.7V694.8h-.7v93.8Z" class="g0_1"/>
<path fill-rule="evenodd" d="M626.7 788.6h.8V694.8h-.8v93.8Z" class="g0_1"/>
<path fill-rule="evenodd" d="M798.9 788.6h.8V694.8h-.8v93.8Z" class="g0_1"/>
<path fill-rule="evenodd" d="M110 789.4h.8v-.8H110v.8Z" class="g0_1"/>
<path fill-rule="evenodd" d="M110.8 789.4H282.2v-.8H110.8v.8Z" class="g0_1"/>
<path fill-rule="evenodd" d="M282.2 789.4h.8v-.8h-.8v.8Z" class="g0_1"/>
<path fill-rule="evenodd" d="M283 789.4H454.4v-.8H283v.8Z" class="g0_1"/>
<path fill-rule="evenodd" d="M454.4 789.4h.7v-.8h-.7v.8Z" class="g0_1"/>
<path fill-rule="evenodd" d="M455.1 789.4H626.7v-.8H455.1v.8Z" class="g0_1"/>
<path fill-rule="evenodd" d="M626.7 789.4h.8v-.8h-.8v.8Z" class="g0_1"/>
<path fill-rule="evenodd" d="M627.5 789.4H798.9v-.8H627.5v.8Z" class="g0_1"/>
<path fill-rule="evenodd" d="M798.9 789.4h.8v-.8h-.8v.8Z" class="g0_1"/>
<path fill-rule="evenodd" d="M110 883h.8V789.4H110V883Z" class="g0_1"/>
<path fill-rule="evenodd" d="M282.2 883h.8V789.4h-.8V883Z" class="g0_1"/>
<path fill-rule="evenodd" d="M454.4 883h.7V789.4h-.7V883Z" class="g0_1"/>
<path fill-rule="evenodd" d="M626.7 883h.8V789.4h-.8V883Z" class="g0_1"/>
<path fill-rule="evenodd" d="M798.9 883h.8V789.4h-.8V883Z" class="g0_1"/>
<path fill-rule="evenodd" d="M110 883.8h.8V883H110v.8Z" class="g0_1"/>
<path fill-rule="evenodd" d="M110.8 883.8H282.2V883H110.8v.8Z" class="g0_1"/>
<path fill-rule="evenodd" d="M282.2 883.8h.8V883h-.8v.8Z" class="g0_1"/>
<path fill-rule="evenodd" d="M283 883.8H454.4V883H283v.8Z" class="g0_1"/>
<path fill-rule="evenodd" d="M454.4 883.8h.7V883h-.7v.8Z" class="g0_1"/>
<path fill-rule="evenodd" d="M455.1 883.8H626.7V883H455.1v.8Z" class="g0_1"/>
<path fill-rule="evenodd" d="M626.7 883.8h.8V883h-.8v.8Z" class="g0_1"/>
<path fill-rule="evenodd" d="M627.5 883.8H798.9V883H627.5v.8Z" class="g0_1"/>
<path fill-rule="evenodd" d="M798.9 883.8h.8V883h-.8v.8Z" class="g0_1"/>
<path fill-rule="evenodd" d="M110 1165.4h.8V883.8H110v281.6Z" class="g0_1"/>
<path fill-rule="evenodd" d="M110 1166.1h.8v-.7H110v.7Z" class="g0_1"/>
<path fill-rule="evenodd" d="M110 1166.1h.8v-.7H110v.7Z" class="g0_1"/>
<path fill-rule="evenodd" d="M110.8 1166.1H282.2v-.7H110.8v.7Z" class="g0_1"/>
<path fill-rule="evenodd" d="M282.2 1165.4h.8V883.8h-.8v281.6Z" class="g0_1"/>
<path fill-rule="evenodd" d="M282.2 1166.1h.8v-.7h-.8v.7Z" class="g0_1"/>
<path fill-rule="evenodd" d="M283 1166.1H454.4v-.7H283v.7Z" class="g0_1"/>
<path fill-rule="evenodd" d="M454.4 1165.4h.7V883.8h-.7v281.6Z" class="g0_1"/>
<path fill-rule="evenodd" d="M454.4 1166.1h.7v-.7h-.7v.7Z" class="g0_1"/>
<path fill-rule="evenodd" d="M455.1 1166.1H626.7v-.7H455.1v.7Z" class="g0_1"/>
<path fill-rule="evenodd" d="M626.7 1165.4h.8V883.8h-.8v281.6Z" class="g0_1"/>
<path fill-rule="evenodd" d="M626.7 1166.1h.8v-.7h-.8v.7Z" class="g0_1"/>
<path fill-rule="evenodd" d="M627.5 1166.1H798.9v-.7H627.5v.7Z" class="g0_1"/>
<path fill-rule="evenodd" d="M798.9 1165.4h.8V883.8h-.8v281.6Z" class="g0_1"/>
<path fill-rule="evenodd" d="M798.9 1166.1h.8v-.7h-.8v.7Z" class="g0_1"/>
<path fill-rule="evenodd" d="M798.9 1166.1h.8v-.7h-.8v.7Z" class="g0_1"/>
</svg>