<?xml version="1.0" encoding="UTF-8" standalone="no"?>
<!DOCTYPE svg PUBLIC "-//W3C//DTD SVG 1.1//EN"
"http://www.w3.org/Graphics/SVG/1.1/DTD/svg11.dtd">
<svg viewBox="0 0 935 1210" version="1.1" xmlns="http://www.w3.org/2000/svg" xmlns:xlink="http://www.w3.org/1999/xlink">
<defs>
<style type="text/css"><![CDATA[
.g0_9{
fill: #7E7E7E;
}
]]></style>
</defs>
<path fill-rule="evenodd" d="M110 580.7H253V580H110v.7Z" class="g0_9"/>
<path fill-rule="evenodd" d="M253 580.7h.8V580H253v.7Z" class="g0_9"/>
<path fill-rule="evenodd" d="M253.8 580.7H356.3V580H253.8v.7Z" class="g0_9"/>
<path fill-rule="evenodd" d="M110 615.2H253v-.8H110v.8Z" class="g0_9"/>
<path fill-rule="evenodd" d="M253 615.2h.8v-.8H253v.8Z" class="g0_9"/>
<path fill-rule="evenodd" d="M253.8 615.2H356.3v-.8H253.8v.8Z" class="g0_9"/>
<path fill-rule="evenodd" d="M110 649.5H253v-.8H110v.8Z" class="g0_9"/>
<path fill-rule="evenodd" d="M253 649.5h.8v-.8H253v.8Z" class="g0_9"/>
<path fill-rule="evenodd" d="M253.8 649.5H356.3v-.8H253.8v.8Z" class="g0_9"/>
<path fill-rule="evenodd" d="M110 683.8H253V683H110v.8Z" class="g0_9"/>
<path fill-rule="evenodd" d="M253 683.8h.8V683H253v.8Z" class="g0_9"/>
<path fill-rule="evenodd" d="M253.8 683.8H356.3V683H253.8v.8Z" class="g0_9"/>
<path fill-rule="evenodd" d="M110 718.2H253v-.7H110v.7Z" class="g0_9"/>
<path fill-rule="evenodd" d="M253 718.2h.8v-.7H253v.7Z" class="g0_9"/>
<path fill-rule="evenodd" d="M253.8 718.2H356.3v-.7H253.8v.7Z" class="g0_9"/>
<path fill-rule="evenodd" d="M110 752.5H253v-.7H110v.7Z" class="g0_9"/>
<path fill-rule="evenodd" d="M253 752.5h.8v-.7H253v.7Z" class="g0_9"/>
<path fill-rule="evenodd" d="M253.8 752.5H356.3v-.7H253.8v.7Z" class="g0_9"/>
<path fill-rule="evenodd" d="M110 786.8H253v-.7H110v.7Z" class="g0_9"/>
<path fill-rule="evenodd" d="M253 786.8h.8v-.7H253v.7Z" class="g0_9"/>
<path fill-rule="evenodd" d="M253.8 786.8H356.3v-.7H253.8v.7Z" class="g0_9"/>
<path fill-rule="evenodd" d="M110 821.1H253v-.8H110v.8Z" class="g0_9"/>
<path fill-rule="evenodd" d="M253 821.1h.8v-.8H253v.8Z" class="g0_9"/>
<path fill-rule="evenodd" d="M253.8 821.1H356.3v-.8H253.8v.8Z" class="g0_9"/>
<path fill-rule="evenodd" d="M110 855.5H253v-.7H110v.7Z" class="g0_9"/>
<path fill-rule="evenodd" d="M253 855.5h.8v-.7H253v.7Z" class="g0_9"/>
<path fill-rule="evenodd" d="M253.8 855.5H356.3v-.7H253.8v.7Z" class="g0_9"/>
<path fill-rule="evenodd" d="M110 889.9H253v-.8H110v.8Z" class="g0_9"/>
<path fill-rule="evenodd" d="M253 889.9h.8v-.8H253v.8Z" class="g0_9"/>
<path fill-rule="evenodd" d="M253.8 889.9H356.3v-.8H253.8v.8Z" class="g0_9"/>
<path fill-rule="evenodd" d="M108.9 924.2H253v-.8H108.9v.8Z" class="g0_9"/>
<path fill-rule="evenodd" d="M251.9 924.2h.8v-.8h-.8v.8Z" class="g0_9"/>
<path fill-rule="evenodd" d="M252.7 924.2H356.3v-.8H252.7v.8Z" class="g0_9"/>
<path fill-rule="evenodd" d="M110 1059.3H219.5v-.8H110v.8Z" class="g0_9"/>
<path fill-rule="evenodd" d="M219.5 1059.3h.7v-.8h-.7v.8Z" class="g0_9"/>
<path fill-rule="evenodd" d="M220.2 1059.3H424.7v-.8H220.2v.8Z" class="g0_9"/>
<path fill-rule="evenodd" d="M424.7 1059.3h.7v-.8h-.7v.8Z" class="g0_9"/>
<path fill-rule="evenodd" d="M425.4 1059.3H648.9v-.8H425.4v.8Z" class="g0_9"/>
<path fill-rule="evenodd" d="M108.9 1093.5H219.5v-.7H108.9v.7Z" class="g0_9"/>
<path fill-rule="evenodd" d="M218.4 1093.5h.7v-.7h-.7v.7Z" class="g0_9"/>
<path fill-rule="evenodd" d="M219.1 1093.5H424.7v-.7H219.1v.7Z" class="g0_9"/>
<path fill-rule="evenodd" d="M423.6 1093.5h.7v-.7h-.7v.7Z" class="g0_9"/>
<path fill-rule="evenodd" d="M424.3 1093.5H648.9v-.7H424.3v.7Z" class="g0_9"/>
</svg>