<?xml version="1.0" encoding="UTF-8" standalone="no"?>
<!DOCTYPE svg PUBLIC "-//W3C//DTD SVG 1.1//EN"
"http://www.w3.org/Graphics/SVG/1.1/DTD/svg11.dtd">
<svg viewBox="0 0 909 1286" version="1.1" xmlns="http://www.w3.org/2000/svg" xmlns:xlink="http://www.w3.org/1999/xlink">
<defs>
<style type="text/css"><![CDATA[
.g0_30{
fill: none;
stroke: #000;
stroke-width: 0.916;
stroke-miterlimit: 10;
}
.g1_30{
fill: none;
stroke: #000;
stroke-width: 1.145;
stroke-linecap: round;
stroke-miterlimit: 3;
}
.g2_30{
fill: #F00;
}
.g3_30{
fill: #000080;
}
]]></style>
</defs>
<path d="M383.3 388.7h55.5m136 26.9h73.1M396.2 442.3h77m214.1 0h75.5M367.3 622.9H485.1m82.3 348H680.6" class="g0_30"/>
<path d="M386.6 269.3H497V231.4H386.6v37.9Z" class="g1_30"/>
<path fill-rule="evenodd" d="M402.4 189.3h12c6.6 0 11.9 9.8 11.9 21.8v4.7H430l-7.8 11.5l-7.8 -11.5h3.8v-4.7c0 -5.8 -1.7 -10.4 -3.8 -10.4h-12V189.3Z" class="g2_30"/>
<path fill-rule="evenodd" d="M529.7 231.4h10.7v12.8c0 7 -9.2 12.6 -20.5 12.6h-4.4v4.1l-10.6 -8.4l10.6 -8.3v4h4.4c5.4 0 9.8 -1.8 9.8 -4V231.4Z" class="g3_30"/>
<path fill-rule="evenodd" d="M466.5 189.3l10.6 9.5l-10.6 9.4v-4.5h-4.3c-5.5 0 -9.8 2 -9.8 4.5V223H441.8V208.2c0 -8 9 -14.4 20.4 -14.4h4.3v-4.5Z" class="g2_30"/>
<path fill-rule="evenodd" d="M354.8 210.3l7.8 11.3h-3.7v4.7c0 5.8 1.7 10.5 3.7 10.5h12.2v11.4H362.6c-6.5 0 -11.8 -9.8 -11.8 -21.9v-4.7h-3.7l7.7 -11.3Z" class="g3_30"/>
</svg>