<?xml version="1.0" encoding="UTF-8" standalone="no"?>
<!DOCTYPE svg PUBLIC "-//W3C//DTD SVG 1.1//EN"
"http://www.w3.org/Graphics/SVG/1.1/DTD/svg11.dtd">
<svg viewBox="0 0 935 1210" version="1.1" xmlns="http://www.w3.org/2000/svg" xmlns:xlink="http://www.w3.org/1999/xlink">
<defs>
<style type="text/css"><![CDATA[
.g0_6{
fill: #000;
}
]]></style>
</defs>
<path fill-rule="evenodd" d="M110 178.6h.8v-1.5H110v1.5Z" class="g0_6"/>
<path fill-rule="evenodd" d="M110 177.9h.8v-.8H110v.8Z" class="g0_6"/>
<path fill-rule="evenodd" d="M110.8 177.9h55.7v-.8H110.8v.8Z" class="g0_6"/>
<path fill-rule="evenodd" d="M166.5 177.9h.7v-.8h-.7v.8Z" class="g0_6"/>
<path fill-rule="evenodd" d="M167.2 177.9h1.1v-.8h-1.1v.8Z" class="g0_6"/>
<path fill-rule="evenodd" d="M168.3 177.9h.8v-.8h-.8v.8Z" class="g0_6"/>
<path fill-rule="evenodd" d="M169.1 177.9H337.8v-.8H169.1v.8Z" class="g0_6"/>
<path fill-rule="evenodd" d="M337.8 178.6h.7v-1.5h-.7v1.5Z" class="g0_6"/>
<path fill-rule="evenodd" d="M337.8 177.9h.7v-.8h-.7v.8Z" class="g0_6"/>
<path fill-rule="evenodd" d="M110.4 178.6h.7v-.7h-.7v.7Z" class="g0_6"/>
<path fill-rule="evenodd" d="M110.4 178.6h.7v-.7h-.7v.7Z" class="g0_6"/>
<path fill-rule="evenodd" d="M111.1 178.6h54.5v-.7H111.1v.7Z" class="g0_6"/>
<path fill-rule="evenodd" d="M165.6 178.6h.7v-.7h-.7v.7Z" class="g0_6"/>
<path fill-rule="evenodd" d="M165.6 178.6h.7v-.7h-.7v.7Z" class="g0_6"/>
<path fill-rule="evenodd" d="M110.4 213.1h.7v-.8h-.7v.8Z" class="g0_6"/>
<path fill-rule="evenodd" d="M110.4 213.1h.7v-.8h-.7v.8Z" class="g0_6"/>
<path fill-rule="evenodd" d="M111.1 213.1h54.5v-.8H111.1v.8Z" class="g0_6"/>
<path fill-rule="evenodd" d="M165.6 213.1h.7v-.8h-.7v.8Z" class="g0_6"/>
<path fill-rule="evenodd" d="M165.6 213.1h.7v-.8h-.7v.8Z" class="g0_6"/>
<path fill-rule="evenodd" d="M110.4 212.3h.7V178.6h-.7v33.7Z" class="g0_6"/>
<path fill-rule="evenodd" d="M165.6 212.3h.7V178.6h-.7v33.7Z" class="g0_6"/>
<path fill-rule="evenodd" d="M110 213.1h.8V178.6H110v34.5Z" class="g0_6"/>
<path fill-rule="evenodd" d="M166.5 178.6h.7v-.7h-.7v.7Z" class="g0_6"/>
<path fill-rule="evenodd" d="M166.5 178.6h.7v-.7h-.7v.7Z" class="g0_6"/>
<path fill-rule="evenodd" d="M167.2 178.6h.4v-.7h-.4v.7Z" class="g0_6"/>
<path fill-rule="evenodd" d="M167.6 178.6h.7v-.7h-.7v.7Z" class="g0_6"/>
<path fill-rule="evenodd" d="M167.6 178.6h.7v-.7h-.7v.7Z" class="g0_6"/>
<path fill-rule="evenodd" d="M166.5 213.1h.7v-.8h-.7v.8Z" class="g0_6"/>
<path fill-rule="evenodd" d="M166.5 213.1h.7v-.8h-.7v.8Z" class="g0_6"/>
<path fill-rule="evenodd" d="M167.2 213.1h.4v-.8h-.4v.8Z" class="g0_6"/>
<path fill-rule="evenodd" d="M167.6 213.1h.7v-.8h-.7v.8Z" class="g0_6"/>
<path fill-rule="evenodd" d="M167.6 213.1h.7v-.8h-.7v.8Z" class="g0_6"/>
<path fill-rule="evenodd" d="M166.5 212.3h.7V178.6h-.7v33.7Z" class="g0_6"/>
<path fill-rule="evenodd" d="M167.6 212.3h.7V178.6h-.7v33.7Z" class="g0_6"/>
<path fill-rule="evenodd" d="M168.5 178.6h.7v-.7h-.7v.7Z" class="g0_6"/>
<path fill-rule="evenodd" d="M168.5 178.6h.7v-.7h-.7v.7Z" class="g0_6"/>
<path fill-rule="evenodd" d="M169.2 178.6H337.4v-.7H169.2v.7Z" class="g0_6"/>
<path fill-rule="evenodd" d="M337.4 178.6h.7v-.7h-.7v.7Z" class="g0_6"/>
<path fill-rule="evenodd" d="M337.4 178.6h.7v-.7h-.7v.7Z" class="g0_6"/>
<path fill-rule="evenodd" d="M168.5 213.1h.7v-.8h-.7v.8Z" class="g0_6"/>
<path fill-rule="evenodd" d="M168.5 213.1h.7v-.8h-.7v.8Z" class="g0_6"/>
<path fill-rule="evenodd" d="M169.2 213.1H337.4v-.8H169.2v.8Z" class="g0_6"/>
<path fill-rule="evenodd" d="M337.4 213.1h.7v-.8h-.7v.8Z" class="g0_6"/>
<path fill-rule="evenodd" d="M337.4 213.1h.7v-.8h-.7v.8Z" class="g0_6"/>
<path fill-rule="evenodd" d="M168.5 212.3h.7V178.6h-.7v33.7Z" class="g0_6"/>
<path fill-rule="evenodd" d="M337.4 212.3h.7V178.6h-.7v33.7Z" class="g0_6"/>
<path fill-rule="evenodd" d="M337.8 213.1h.7V178.6h-.7v34.5Z" class="g0_6"/>
<path fill-rule="evenodd" d="M110 213.8h.8v-.7H110v.7Z" class="g0_6"/>
<path fill-rule="evenodd" d="M337.8 213.8h.7v-.7h-.7v.7Z" class="g0_6"/>
<path fill-rule="evenodd" d="M110.4 213.8h.7v-.7h-.7v.7Z" class="g0_6"/>
<path fill-rule="evenodd" d="M110.4 213.8h.7v-.7h-.7v.7Z" class="g0_6"/>
<path fill-rule="evenodd" d="M111.1 213.8h54.5v-.7H111.1v.7Z" class="g0_6"/>
<path fill-rule="evenodd" d="M165.6 213.8h.7v-.7h-.7v.7Z" class="g0_6"/>
<path fill-rule="evenodd" d="M165.6 213.8h.7v-.7h-.7v.7Z" class="g0_6"/>
<path fill-rule="evenodd" d="M110.4 248.1h.7v-.8h-.7v.8Z" class="g0_6"/>
<path fill-rule="evenodd" d="M110.4 248.1h.7v-.8h-.7v.8Z" class="g0_6"/>
<path fill-rule="evenodd" d="M111.1 248.1h54.5v-.8H111.1v.8Z" class="g0_6"/>
<path fill-rule="evenodd" d="M165.6 248.1h.7v-.8h-.7v.8Z" class="g0_6"/>
<path fill-rule="evenodd" d="M165.6 248.1h.7v-.8h-.7v.8Z" class="g0_6"/>
<path fill-rule="evenodd" d="M110.4 247.3h.7V213.8h-.7v33.5Z" class="g0_6"/>
<path fill-rule="evenodd" d="M165.6 247.3h.7V213.8h-.7v33.5Z" class="g0_6"/>
<path fill-rule="evenodd" d="M110 248.1h.8V213.8H110v34.3Z" class="g0_6"/>
<path fill-rule="evenodd" d="M166.5 213.8h.7v-.7h-.7v.7Z" class="g0_6"/>
<path fill-rule="evenodd" d="M166.5 213.8h.7v-.7h-.7v.7Z" class="g0_6"/>
<path fill-rule="evenodd" d="M167.2 213.8h.4v-.7h-.4v.7Z" class="g0_6"/>
<path fill-rule="evenodd" d="M167.6 213.8h.7v-.7h-.7v.7Z" class="g0_6"/>
<path fill-rule="evenodd" d="M167.6 213.8h.7v-.7h-.7v.7Z" class="g0_6"/>
<path fill-rule="evenodd" d="M166.5 248.1h.7v-.8h-.7v.8Z" class="g0_6"/>
<path fill-rule="evenodd" d="M166.5 248.1h.7v-.8h-.7v.8Z" class="g0_6"/>
<path fill-rule="evenodd" d="M167.2 248.1h.4v-.8h-.4v.8Z" class="g0_6"/>
<path fill-rule="evenodd" d="M167.6 248.1h.7v-.8h-.7v.8Z" class="g0_6"/>
<path fill-rule="evenodd" d="M167.6 248.1h.7v-.8h-.7v.8Z" class="g0_6"/>
<path fill-rule="evenodd" d="M166.5 247.3h.7V213.8h-.7v33.5Z" class="g0_6"/>
<path fill-rule="evenodd" d="M167.6 247.3h.7V213.8h-.7v33.5Z" class="g0_6"/>
<path fill-rule="evenodd" d="M168.5 213.8h.7v-.7h-.7v.7Z" class="g0_6"/>
<path fill-rule="evenodd" d="M168.5 213.8h.7v-.7h-.7v.7Z" class="g0_6"/>
<path fill-rule="evenodd" d="M169.2 213.8H337.4v-.7H169.2v.7Z" class="g0_6"/>
<path fill-rule="evenodd" d="M337.4 213.8h.7v-.7h-.7v.7Z" class="g0_6"/>
<path fill-rule="evenodd" d="M337.4 213.8h.7v-.7h-.7v.7Z" class="g0_6"/>
<path fill-rule="evenodd" d="M168.5 248.1h.7v-.8h-.7v.8Z" class="g0_6"/>
<path fill-rule="evenodd" d="M168.5 248.1h.7v-.8h-.7v.8Z" class="g0_6"/>
<path fill-rule="evenodd" d="M169.2 248.1H337.4v-.8H169.2v.8Z" class="g0_6"/>
<path fill-rule="evenodd" d="M337.4 248.1h.7v-.8h-.7v.8Z" class="g0_6"/>
<path fill-rule="evenodd" d="M337.4 248.1h.7v-.8h-.7v.8Z" class="g0_6"/>
<path fill-rule="evenodd" d="M168.5 247.3h.7V213.8h-.7v33.5Z" class="g0_6"/>
<path fill-rule="evenodd" d="M337.4 247.3h.7V213.8h-.7v33.5Z" class="g0_6"/>
<path fill-rule="evenodd" d="M337.8 248.1h.7V213.8h-.7v34.3Z" class="g0_6"/>
<path fill-rule="evenodd" d="M110 248.8h.8v-.7H110v.7Z" class="g0_6"/>
<path fill-rule="evenodd" d="M337.8 248.8h.7v-.7h-.7v.7Z" class="g0_6"/>
<path fill-rule="evenodd" d="M110.4 248.8h.7v-.7h-.7v.7Z" class="g0_6"/>
<path fill-rule="evenodd" d="M110.4 248.8h.7v-.7h-.7v.7Z" class="g0_6"/>
<path fill-rule="evenodd" d="M111.1 248.8h54.5v-.7H111.1v.7Z" class="g0_6"/>
<path fill-rule="evenodd" d="M165.6 248.8h.7v-.7h-.7v.7Z" class="g0_6"/>
<path fill-rule="evenodd" d="M165.6 248.8h.7v-.7h-.7v.7Z" class="g0_6"/>
<path fill-rule="evenodd" d="M110.4 283.3h.7v-.8h-.7v.8Z" class="g0_6"/>
<path fill-rule="evenodd" d="M110.4 283.3h.7v-.8h-.7v.8Z" class="g0_6"/>
<path fill-rule="evenodd" d="M111.1 283.3h54.5v-.8H111.1v.8Z" class="g0_6"/>
<path fill-rule="evenodd" d="M165.6 283.3h.7v-.8h-.7v.8Z" class="g0_6"/>
<path fill-rule="evenodd" d="M165.6 283.3h.7v-.8h-.7v.8Z" class="g0_6"/>
<path fill-rule="evenodd" d="M110.4 282.5h.7V248.8h-.7v33.7Z" class="g0_6"/>
<path fill-rule="evenodd" d="M165.6 282.5h.7V248.8h-.7v33.7Z" class="g0_6"/>
<path fill-rule="evenodd" d="M110 283.3h.8V248.8H110v34.5Z" class="g0_6"/>
<path fill-rule="evenodd" d="M166.5 248.8h.7v-.7h-.7v.7Z" class="g0_6"/>
<path fill-rule="evenodd" d="M166.5 248.8h.7v-.7h-.7v.7Z" class="g0_6"/>
<path fill-rule="evenodd" d="M167.2 248.8h.4v-.7h-.4v.7Z" class="g0_6"/>
<path fill-rule="evenodd" d="M167.6 248.8h.7v-.7h-.7v.7Z" class="g0_6"/>
<path fill-rule="evenodd" d="M167.6 248.8h.7v-.7h-.7v.7Z" class="g0_6"/>
<path fill-rule="evenodd" d="M166.5 283.3h.7v-.8h-.7v.8Z" class="g0_6"/>
<path fill-rule="evenodd" d="M166.5 283.3h.7v-.8h-.7v.8Z" class="g0_6"/>
<path fill-rule="evenodd" d="M167.2 283.3h.4v-.8h-.4v.8Z" class="g0_6"/>
<path fill-rule="evenodd" d="M167.6 283.3h.7v-.8h-.7v.8Z" class="g0_6"/>
<path fill-rule="evenodd" d="M167.6 283.3h.7v-.8h-.7v.8Z" class="g0_6"/>
<path fill-rule="evenodd" d="M166.5 282.5h.7V248.8h-.7v33.7Z" class="g0_6"/>
<path fill-rule="evenodd" d="M167.6 282.5h.7V248.8h-.7v33.7Z" class="g0_6"/>
<path fill-rule="evenodd" d="M168.5 248.8h.7v-.7h-.7v.7Z" class="g0_6"/>
<path fill-rule="evenodd" d="M168.5 248.8h.7v-.7h-.7v.7Z" class="g0_6"/>
<path fill-rule="evenodd" d="M169.2 248.8H337.4v-.7H169.2v.7Z" class="g0_6"/>
<path fill-rule="evenodd" d="M337.4 248.8h.7v-.7h-.7v.7Z" class="g0_6"/>
<path fill-rule="evenodd" d="M337.4 248.8h.7v-.7h-.7v.7Z" class="g0_6"/>
<path fill-rule="evenodd" d="M168.5 283.3h.7v-.8h-.7v.8Z" class="g0_6"/>
<path fill-rule="evenodd" d="M168.5 283.3h.7v-.8h-.7v.8Z" class="g0_6"/>
<path fill-rule="evenodd" d="M169.2 283.3H337.4v-.8H169.2v.8Z" class="g0_6"/>
<path fill-rule="evenodd" d="M337.4 283.3h.7v-.8h-.7v.8Z" class="g0_6"/>
<path fill-rule="evenodd" d="M337.4 283.3h.7v-.8h-.7v.8Z" class="g0_6"/>
<path fill-rule="evenodd" d="M168.5 282.5h.7V248.8h-.7v33.7Z" class="g0_6"/>
<path fill-rule="evenodd" d="M337.4 282.5h.7V248.8h-.7v33.7Z" class="g0_6"/>
<path fill-rule="evenodd" d="M337.8 283.3h.7V248.8h-.7v34.5Z" class="g0_6"/>
<path fill-rule="evenodd" d="M110 284h.8v-.7H110v.7Z" class="g0_6"/>
<path fill-rule="evenodd" d="M337.8 284h.7v-.7h-.7v.7Z" class="g0_6"/>
<path fill-rule="evenodd" d="M110.4 284h.7v-.7h-.7v.7Z" class="g0_6"/>
<path fill-rule="evenodd" d="M110.4 284h.7v-.7h-.7v.7Z" class="g0_6"/>
<path fill-rule="evenodd" d="M111.1 284h54.5v-.7H111.1v.7Z" class="g0_6"/>
<path fill-rule="evenodd" d="M165.6 284h.7v-.7h-.7v.7Z" class="g0_6"/>
<path fill-rule="evenodd" d="M165.6 284h.7v-.7h-.7v.7Z" class="g0_6"/>
<path fill-rule="evenodd" d="M110.4 318.3h.7v-.7h-.7v.7Z" class="g0_6"/>
<path fill-rule="evenodd" d="M110.4 318.3h.7v-.7h-.7v.7Z" class="g0_6"/>
<path fill-rule="evenodd" d="M111.1 318.3h54.5v-.7H111.1v.7Z" class="g0_6"/>
<path fill-rule="evenodd" d="M165.6 318.3h.7v-.7h-.7v.7Z" class="g0_6"/>
<path fill-rule="evenodd" d="M165.6 318.3h.7v-.7h-.7v.7Z" class="g0_6"/>
<path fill-rule="evenodd" d="M110.4 317.6h.7V284h-.7v33.6Z" class="g0_6"/>
<path fill-rule="evenodd" d="M165.6 317.6h.7V284h-.7v33.6Z" class="g0_6"/>
<path fill-rule="evenodd" d="M110 318.3h.8V284H110v34.3Z" class="g0_6"/>
<path fill-rule="evenodd" d="M166.5 284h.7v-.7h-.7v.7Z" class="g0_6"/>
<path fill-rule="evenodd" d="M166.5 284h.7v-.7h-.7v.7Z" class="g0_6"/>
<path fill-rule="evenodd" d="M167.2 284h.4v-.7h-.4v.7Z" class="g0_6"/>
<path fill-rule="evenodd" d="M167.6 284h.7v-.7h-.7v.7Z" class="g0_6"/>
<path fill-rule="evenodd" d="M167.6 284h.7v-.7h-.7v.7Z" class="g0_6"/>
<path fill-rule="evenodd" d="M166.5 318.3h.7v-.7h-.7v.7Z" class="g0_6"/>
<path fill-rule="evenodd" d="M166.5 318.3h.7v-.7h-.7v.7Z" class="g0_6"/>
<path fill-rule="evenodd" d="M167.2 318.3h.4v-.7h-.4v.7Z" class="g0_6"/>
<path fill-rule="evenodd" d="M167.6 318.3h.7v-.7h-.7v.7Z" class="g0_6"/>
<path fill-rule="evenodd" d="M167.6 318.3h.7v-.7h-.7v.7Z" class="g0_6"/>
<path fill-rule="evenodd" d="M166.5 317.6h.7V284h-.7v33.6Z" class="g0_6"/>
<path fill-rule="evenodd" d="M167.6 317.6h.7V284h-.7v33.6Z" class="g0_6"/>
<path fill-rule="evenodd" d="M168.5 284h.7v-.7h-.7v.7Z" class="g0_6"/>
<path fill-rule="evenodd" d="M168.5 284h.7v-.7h-.7v.7Z" class="g0_6"/>
<path fill-rule="evenodd" d="M169.2 284H337.4v-.7H169.2v.7Z" class="g0_6"/>
<path fill-rule="evenodd" d="M337.4 284h.7v-.7h-.7v.7Z" class="g0_6"/>
<path fill-rule="evenodd" d="M337.4 284h.7v-.7h-.7v.7Z" class="g0_6"/>
<path fill-rule="evenodd" d="M168.5 318.3h.7v-.7h-.7v.7Z" class="g0_6"/>
<path fill-rule="evenodd" d="M168.5 318.3h.7v-.7h-.7v.7Z" class="g0_6"/>
<path fill-rule="evenodd" d="M169.2 318.3H337.4v-.7H169.2v.7Z" class="g0_6"/>
<path fill-rule="evenodd" d="M337.4 318.3h.7v-.7h-.7v.7Z" class="g0_6"/>
<path fill-rule="evenodd" d="M337.4 318.3h.7v-.7h-.7v.7Z" class="g0_6"/>
<path fill-rule="evenodd" d="M168.5 317.6h.7V284h-.7v33.6Z" class="g0_6"/>
<path fill-rule="evenodd" d="M337.4 317.6h.7V284h-.7v33.6Z" class="g0_6"/>
<path fill-rule="evenodd" d="M337.8 318.3h.7V284h-.7v34.3Z" class="g0_6"/>
<path fill-rule="evenodd" d="M110 319h.8v-.7H110v.7Z" class="g0_6"/>
<path fill-rule="evenodd" d="M337.8 319h.7v-.7h-.7v.7Z" class="g0_6"/>
<path fill-rule="evenodd" d="M110.4 319h.7v-.7h-.7v.7Z" class="g0_6"/>
<path fill-rule="evenodd" d="M110.4 319h.7v-.7h-.7v.7Z" class="g0_6"/>
<path fill-rule="evenodd" d="M111.1 319h54.5v-.7H111.1v.7Z" class="g0_6"/>
<path fill-rule="evenodd" d="M165.6 319h.7v-.7h-.7v.7Z" class="g0_6"/>
<path fill-rule="evenodd" d="M165.6 319h.7v-.7h-.7v.7Z" class="g0_6"/>
<path fill-rule="evenodd" d="M110.4 353.5h.7v-.7h-.7v.7Z" class="g0_6"/>
<path fill-rule="evenodd" d="M110.4 353.5h.7v-.7h-.7v.7Z" class="g0_6"/>
<path fill-rule="evenodd" d="M111.1 353.5h54.5v-.7H111.1v.7Z" class="g0_6"/>
<path fill-rule="evenodd" d="M165.6 353.5h.7v-.7h-.7v.7Z" class="g0_6"/>
<path fill-rule="evenodd" d="M165.6 353.5h.7v-.7h-.7v.7Z" class="g0_6"/>
<path fill-rule="evenodd" d="M110.4 352.8h.7V319h-.7v33.8Z" class="g0_6"/>
<path fill-rule="evenodd" d="M165.6 352.8h.7V319h-.7v33.8Z" class="g0_6"/>
<path fill-rule="evenodd" d="M110 353.5h.8V319H110v34.5Z" class="g0_6"/>
<path fill-rule="evenodd" d="M166.5 319h.7v-.7h-.7v.7Z" class="g0_6"/>
<path fill-rule="evenodd" d="M166.5 319h.7v-.7h-.7v.7Z" class="g0_6"/>
<path fill-rule="evenodd" d="M167.2 319h.4v-.7h-.4v.7Z" class="g0_6"/>
<path fill-rule="evenodd" d="M167.6 319h.7v-.7h-.7v.7Z" class="g0_6"/>
<path fill-rule="evenodd" d="M167.6 319h.7v-.7h-.7v.7Z" class="g0_6"/>
<path fill-rule="evenodd" d="M166.5 353.5h.7v-.7h-.7v.7Z" class="g0_6"/>
<path fill-rule="evenodd" d="M166.5 353.5h.7v-.7h-.7v.7Z" class="g0_6"/>
<path fill-rule="evenodd" d="M167.2 353.5h.4v-.7h-.4v.7Z" class="g0_6"/>
<path fill-rule="evenodd" d="M167.6 353.5h.7v-.7h-.7v.7Z" class="g0_6"/>
<path fill-rule="evenodd" d="M167.6 353.5h.7v-.7h-.7v.7Z" class="g0_6"/>
<path fill-rule="evenodd" d="M166.5 352.8h.7V319h-.7v33.8Z" class="g0_6"/>
<path fill-rule="evenodd" d="M167.6 352.8h.7V319h-.7v33.8Z" class="g0_6"/>
<path fill-rule="evenodd" d="M168.5 319h.7v-.7h-.7v.7Z" class="g0_6"/>
<path fill-rule="evenodd" d="M168.5 319h.7v-.7h-.7v.7Z" class="g0_6"/>
<path fill-rule="evenodd" d="M169.2 319H337.4v-.7H169.2v.7Z" class="g0_6"/>
<path fill-rule="evenodd" d="M337.4 319h.7v-.7h-.7v.7Z" class="g0_6"/>
<path fill-rule="evenodd" d="M337.4 319h.7v-.7h-.7v.7Z" class="g0_6"/>
<path fill-rule="evenodd" d="M168.5 353.5h.7v-.7h-.7v.7Z" class="g0_6"/>
<path fill-rule="evenodd" d="M168.5 353.5h.7v-.7h-.7v.7Z" class="g0_6"/>
<path fill-rule="evenodd" d="M169.2 353.5H337.4v-.7H169.2v.7Z" class="g0_6"/>
<path fill-rule="evenodd" d="M337.4 353.5h.7v-.7h-.7v.7Z" class="g0_6"/>
<path fill-rule="evenodd" d="M337.4 353.5h.7v-.7h-.7v.7Z" class="g0_6"/>
<path fill-rule="evenodd" d="M168.5 352.8h.7V319h-.7v33.8Z" class="g0_6"/>
<path fill-rule="evenodd" d="M337.4 352.8h.7V319h-.7v33.8Z" class="g0_6"/>
<path fill-rule="evenodd" d="M337.8 353.5h.7V319h-.7v34.5Z" class="g0_6"/>
<path fill-rule="evenodd" d="M110 354.2h.8v-.7H110v.7Z" class="g0_6"/>
<path fill-rule="evenodd" d="M337.8 354.2h.7v-.7h-.7v.7Z" class="g0_6"/>
<path fill-rule="evenodd" d="M110.4 354.2h.7v-.7h-.7v.7Z" class="g0_6"/>
<path fill-rule="evenodd" d="M110.4 354.2h.7v-.7h-.7v.7Z" class="g0_6"/>
<path fill-rule="evenodd" d="M111.1 354.2h54.5v-.7H111.1v.7Z" class="g0_6"/>
<path fill-rule="evenodd" d="M165.6 354.2h.7v-.7h-.7v.7Z" class="g0_6"/>
<path fill-rule="evenodd" d="M165.6 354.2h.7v-.7h-.7v.7Z" class="g0_6"/>
<path fill-rule="evenodd" d="M110.4 388.6h.7v-.8h-.7v.8Z" class="g0_6"/>
<path fill-rule="evenodd" d="M110.4 388.6h.7v-.8h-.7v.8Z" class="g0_6"/>
<path fill-rule="evenodd" d="M111.1 388.6h54.5v-.8H111.1v.8Z" class="g0_6"/>
<path fill-rule="evenodd" d="M165.6 388.6h.7v-.8h-.7v.8Z" class="g0_6"/>
<path fill-rule="evenodd" d="M165.6 388.6h.7v-.8h-.7v.8Z" class="g0_6"/>
<path fill-rule="evenodd" d="M110.4 387.8h.7V354.2h-.7v33.6Z" class="g0_6"/>
<path fill-rule="evenodd" d="M165.6 387.8h.7V354.2h-.7v33.6Z" class="g0_6"/>
<path fill-rule="evenodd" d="M110 388.6h.8V354.2H110v34.4Z" class="g0_6"/>
<path fill-rule="evenodd" d="M166.5 354.2h.7v-.7h-.7v.7Z" class="g0_6"/>
<path fill-rule="evenodd" d="M166.5 354.2h.7v-.7h-.7v.7Z" class="g0_6"/>
<path fill-rule="evenodd" d="M167.2 354.2h.4v-.7h-.4v.7Z" class="g0_6"/>
<path fill-rule="evenodd" d="M167.6 354.2h.7v-.7h-.7v.7Z" class="g0_6"/>
<path fill-rule="evenodd" d="M167.6 354.2h.7v-.7h-.7v.7Z" class="g0_6"/>
<path fill-rule="evenodd" d="M166.5 388.6h.7v-.8h-.7v.8Z" class="g0_6"/>
<path fill-rule="evenodd" d="M166.5 388.6h.7v-.8h-.7v.8Z" class="g0_6"/>
<path fill-rule="evenodd" d="M167.2 388.6h.4v-.8h-.4v.8Z" class="g0_6"/>
<path fill-rule="evenodd" d="M167.6 388.6h.7v-.8h-.7v.8Z" class="g0_6"/>
<path fill-rule="evenodd" d="M167.6 388.6h.7v-.8h-.7v.8Z" class="g0_6"/>
<path fill-rule="evenodd" d="M166.5 387.8h.7V354.2h-.7v33.6Z" class="g0_6"/>
<path fill-rule="evenodd" d="M167.6 387.8h.7V354.2h-.7v33.6Z" class="g0_6"/>
<path fill-rule="evenodd" d="M168.5 354.2h.7v-.7h-.7v.7Z" class="g0_6"/>
<path fill-rule="evenodd" d="M168.5 354.2h.7v-.7h-.7v.7Z" class="g0_6"/>
<path fill-rule="evenodd" d="M169.2 354.2H337.4v-.7H169.2v.7Z" class="g0_6"/>
<path fill-rule="evenodd" d="M337.4 354.2h.7v-.7h-.7v.7Z" class="g0_6"/>
<path fill-rule="evenodd" d="M337.4 354.2h.7v-.7h-.7v.7Z" class="g0_6"/>
<path fill-rule="evenodd" d="M168.5 388.6h.7v-.8h-.7v.8Z" class="g0_6"/>
<path fill-rule="evenodd" d="M168.5 388.6h.7v-.8h-.7v.8Z" class="g0_6"/>
<path fill-rule="evenodd" d="M169.2 388.6H337.4v-.8H169.2v.8Z" class="g0_6"/>
<path fill-rule="evenodd" d="M337.4 388.6h.7v-.8h-.7v.8Z" class="g0_6"/>
<path fill-rule="evenodd" d="M337.4 388.6h.7v-.8h-.7v.8Z" class="g0_6"/>
<path fill-rule="evenodd" d="M168.5 387.8h.7V354.2h-.7v33.6Z" class="g0_6"/>
<path fill-rule="evenodd" d="M337.4 387.8h.7V354.2h-.7v33.6Z" class="g0_6"/>
<path fill-rule="evenodd" d="M337.8 388.6h.7V354.2h-.7v34.4Z" class="g0_6"/>
<path fill-rule="evenodd" d="M110 389.3h.8v-.7H110v.7Z" class="g0_6"/>
<path fill-rule="evenodd" d="M337.8 389.3h.7v-.7h-.7v.7Z" class="g0_6"/>
<path fill-rule="evenodd" d="M110.4 389.3h.7v-.7h-.7v.7Z" class="g0_6"/>
<path fill-rule="evenodd" d="M110.4 389.3h.7v-.7h-.7v.7Z" class="g0_6"/>
<path fill-rule="evenodd" d="M111.1 389.3h54.5v-.7H111.1v.7Z" class="g0_6"/>
<path fill-rule="evenodd" d="M165.6 389.3h.7v-.7h-.7v.7Z" class="g0_6"/>
<path fill-rule="evenodd" d="M165.6 389.3h.7v-.7h-.7v.7Z" class="g0_6"/>
<path fill-rule="evenodd" d="M110.4 423.6h.7v-.8h-.7v.8Z" class="g0_6"/>
<path fill-rule="evenodd" d="M110.4 423.6h.7v-.8h-.7v.8Z" class="g0_6"/>
<path fill-rule="evenodd" d="M111.1 423.6h54.5v-.8H111.1v.8Z" class="g0_6"/>
<path fill-rule="evenodd" d="M165.6 423.6h.7v-.8h-.7v.8Z" class="g0_6"/>
<path fill-rule="evenodd" d="M165.6 423.6h.7v-.8h-.7v.8Z" class="g0_6"/>
<path fill-rule="evenodd" d="M110.4 422.8h.7V389.3h-.7v33.5Z" class="g0_6"/>
<path fill-rule="evenodd" d="M165.6 422.8h.7V389.3h-.7v33.5Z" class="g0_6"/>
<path fill-rule="evenodd" d="M110 423.6h.8V389.3H110v34.3Z" class="g0_6"/>
<path fill-rule="evenodd" d="M166.5 389.3h.7v-.7h-.7v.7Z" class="g0_6"/>
<path fill-rule="evenodd" d="M166.5 389.3h.7v-.7h-.7v.7Z" class="g0_6"/>
<path fill-rule="evenodd" d="M167.2 389.3h.4v-.7h-.4v.7Z" class="g0_6"/>
<path fill-rule="evenodd" d="M167.6 389.3h.7v-.7h-.7v.7Z" class="g0_6"/>
<path fill-rule="evenodd" d="M167.6 389.3h.7v-.7h-.7v.7Z" class="g0_6"/>
<path fill-rule="evenodd" d="M166.5 423.6h.7v-.8h-.7v.8Z" class="g0_6"/>
<path fill-rule="evenodd" d="M166.5 423.6h.7v-.8h-.7v.8Z" class="g0_6"/>
<path fill-rule="evenodd" d="M167.2 423.6h.4v-.8h-.4v.8Z" class="g0_6"/>
<path fill-rule="evenodd" d="M167.6 423.6h.7v-.8h-.7v.8Z" class="g0_6"/>
<path fill-rule="evenodd" d="M167.6 423.6h.7v-.8h-.7v.8Z" class="g0_6"/>
<path fill-rule="evenodd" d="M166.5 422.8h.7V389.3h-.7v33.5Z" class="g0_6"/>
<path fill-rule="evenodd" d="M167.6 422.8h.7V389.3h-.7v33.5Z" class="g0_6"/>
<path fill-rule="evenodd" d="M168.5 389.3h.7v-.7h-.7v.7Z" class="g0_6"/>
<path fill-rule="evenodd" d="M168.5 389.3h.7v-.7h-.7v.7Z" class="g0_6"/>
<path fill-rule="evenodd" d="M169.2 389.3H337.4v-.7H169.2v.7Z" class="g0_6"/>
<path fill-rule="evenodd" d="M337.4 389.3h.7v-.7h-.7v.7Z" class="g0_6"/>
<path fill-rule="evenodd" d="M337.4 389.3h.7v-.7h-.7v.7Z" class="g0_6"/>
<path fill-rule="evenodd" d="M168.5 423.6h.7v-.8h-.7v.8Z" class="g0_6"/>
<path fill-rule="evenodd" d="M168.5 423.6h.7v-.8h-.7v.8Z" class="g0_6"/>
<path fill-rule="evenodd" d="M169.2 423.6H337.4v-.8H169.2v.8Z" class="g0_6"/>
<path fill-rule="evenodd" d="M337.4 423.6h.7v-.8h-.7v.8Z" class="g0_6"/>
<path fill-rule="evenodd" d="M337.4 423.6h.7v-.8h-.7v.8Z" class="g0_6"/>
<path fill-rule="evenodd" d="M168.5 422.8h.7V389.3h-.7v33.5Z" class="g0_6"/>
<path fill-rule="evenodd" d="M337.4 422.8h.7V389.3h-.7v33.5Z" class="g0_6"/>
<path fill-rule="evenodd" d="M337.8 423.6h.7V389.3h-.7v34.3Z" class="g0_6"/>
<path fill-rule="evenodd" d="M110 424.3h.8v-.7H110v.7Z" class="g0_6"/>
<path fill-rule="evenodd" d="M337.8 424.3h.7v-.7h-.7v.7Z" class="g0_6"/>
<path fill-rule="evenodd" d="M110.4 424.3h.7v-.7h-.7v.7Z" class="g0_6"/>
<path fill-rule="evenodd" d="M110.4 424.3h.7v-.7h-.7v.7Z" class="g0_6"/>
<path fill-rule="evenodd" d="M111.1 424.3h54.5v-.7H111.1v.7Z" class="g0_6"/>
<path fill-rule="evenodd" d="M165.6 424.3h.7v-.7h-.7v.7Z" class="g0_6"/>
<path fill-rule="evenodd" d="M165.6 424.3h.7v-.7h-.7v.7Z" class="g0_6"/>
<path fill-rule="evenodd" d="M110.4 458.8h.7V458h-.7v.8Z" class="g0_6"/>
<path fill-rule="evenodd" d="M110.4 458.8h.7V458h-.7v.8Z" class="g0_6"/>
<path fill-rule="evenodd" d="M111.1 458.8h54.5V458H111.1v.8Z" class="g0_6"/>
<path fill-rule="evenodd" d="M165.6 458.8h.7V458h-.7v.8Z" class="g0_6"/>
<path fill-rule="evenodd" d="M165.6 458.8h.7V458h-.7v.8Z" class="g0_6"/>
<path fill-rule="evenodd" d="M110.4 458h.7V424.3h-.7V458Z" class="g0_6"/>
<path fill-rule="evenodd" d="M165.6 458h.7V424.3h-.7V458Z" class="g0_6"/>
<path fill-rule="evenodd" d="M110 458.8h.8V424.3H110v34.5Z" class="g0_6"/>
<path fill-rule="evenodd" d="M166.5 424.3h.7v-.7h-.7v.7Z" class="g0_6"/>
<path fill-rule="evenodd" d="M166.5 424.3h.7v-.7h-.7v.7Z" class="g0_6"/>
<path fill-rule="evenodd" d="M167.2 424.3h.4v-.7h-.4v.7Z" class="g0_6"/>
<path fill-rule="evenodd" d="M167.6 424.3h.7v-.7h-.7v.7Z" class="g0_6"/>
<path fill-rule="evenodd" d="M167.6 424.3h.7v-.7h-.7v.7Z" class="g0_6"/>
<path fill-rule="evenodd" d="M166.5 458.8h.7V458h-.7v.8Z" class="g0_6"/>
<path fill-rule="evenodd" d="M166.5 458.8h.7V458h-.7v.8Z" class="g0_6"/>
<path fill-rule="evenodd" d="M167.2 458.8h.4V458h-.4v.8Z" class="g0_6"/>
<path fill-rule="evenodd" d="M167.6 458.8h.7V458h-.7v.8Z" class="g0_6"/>
<path fill-rule="evenodd" d="M167.6 458.8h.7V458h-.7v.8Z" class="g0_6"/>
<path fill-rule="evenodd" d="M166.5 458h.7V424.3h-.7V458Z" class="g0_6"/>
<path fill-rule="evenodd" d="M167.6 458h.7V424.3h-.7V458Z" class="g0_6"/>
<path fill-rule="evenodd" d="M168.5 424.3h.7v-.7h-.7v.7Z" class="g0_6"/>
<path fill-rule="evenodd" d="M168.5 424.3h.7v-.7h-.7v.7Z" class="g0_6"/>
<path fill-rule="evenodd" d="M169.2 424.3H337.4v-.7H169.2v.7Z" class="g0_6"/>
<path fill-rule="evenodd" d="M337.4 424.3h.7v-.7h-.7v.7Z" class="g0_6"/>
<path fill-rule="evenodd" d="M337.4 424.3h.7v-.7h-.7v.7Z" class="g0_6"/>
<path fill-rule="evenodd" d="M168.5 458.8h.7V458h-.7v.8Z" class="g0_6"/>
<path fill-rule="evenodd" d="M168.5 458.8h.7V458h-.7v.8Z" class="g0_6"/>
<path fill-rule="evenodd" d="M169.2 458.8H337.4V458H169.2v.8Z" class="g0_6"/>
<path fill-rule="evenodd" d="M337.4 458.8h.7V458h-.7v.8Z" class="g0_6"/>
<path fill-rule="evenodd" d="M337.4 458.8h.7V458h-.7v.8Z" class="g0_6"/>
<path fill-rule="evenodd" d="M168.5 458h.7V424.3h-.7V458Z" class="g0_6"/>
<path fill-rule="evenodd" d="M337.4 458h.7V424.3h-.7V458Z" class="g0_6"/>
<path fill-rule="evenodd" d="M337.8 458.8h.7V424.3h-.7v34.5Z" class="g0_6"/>
<path fill-rule="evenodd" d="M110 459.5h.8v-.7H110v.7Z" class="g0_6"/>
<path fill-rule="evenodd" d="M337.8 459.5h.7v-.7h-.7v.7Z" class="g0_6"/>
<path fill-rule="evenodd" d="M110.4 459.5h.7v-.7h-.7v.7Z" class="g0_6"/>
<path fill-rule="evenodd" d="M110.4 459.5h.7v-.7h-.7v.7Z" class="g0_6"/>
<path fill-rule="evenodd" d="M111.1 459.5h54.5v-.7H111.1v.7Z" class="g0_6"/>
<path fill-rule="evenodd" d="M165.6 459.5h.7v-.7h-.7v.7Z" class="g0_6"/>
<path fill-rule="evenodd" d="M165.6 459.5h.7v-.7h-.7v.7Z" class="g0_6"/>
<path fill-rule="evenodd" d="M110.4 493.8h.7v-.7h-.7v.7Z" class="g0_6"/>
<path fill-rule="evenodd" d="M110.4 493.8h.7v-.7h-.7v.7Z" class="g0_6"/>
<path fill-rule="evenodd" d="M111.1 493.8h54.5v-.7H111.1v.7Z" class="g0_6"/>
<path fill-rule="evenodd" d="M165.6 493.8h.7v-.7h-.7v.7Z" class="g0_6"/>
<path fill-rule="evenodd" d="M165.6 493.8h.7v-.7h-.7v.7Z" class="g0_6"/>
<path fill-rule="evenodd" d="M110.4 493.1h.7V459.5h-.7v33.6Z" class="g0_6"/>
<path fill-rule="evenodd" d="M165.6 493.1h.7V459.5h-.7v33.6Z" class="g0_6"/>
<path fill-rule="evenodd" d="M110 493.8h.8V459.5H110v34.3Z" class="g0_6"/>
<path fill-rule="evenodd" d="M166.5 459.5h.7v-.7h-.7v.7Z" class="g0_6"/>
<path fill-rule="evenodd" d="M166.5 459.5h.7v-.7h-.7v.7Z" class="g0_6"/>
<path fill-rule="evenodd" d="M167.2 459.5h.4v-.7h-.4v.7Z" class="g0_6"/>
<path fill-rule="evenodd" d="M167.6 459.5h.7v-.7h-.7v.7Z" class="g0_6"/>
<path fill-rule="evenodd" d="M167.6 459.5h.7v-.7h-.7v.7Z" class="g0_6"/>
<path fill-rule="evenodd" d="M166.5 493.8h.7v-.7h-.7v.7Z" class="g0_6"/>
<path fill-rule="evenodd" d="M166.5 493.8h.7v-.7h-.7v.7Z" class="g0_6"/>
<path fill-rule="evenodd" d="M167.2 493.8h.4v-.7h-.4v.7Z" class="g0_6"/>
<path fill-rule="evenodd" d="M167.6 493.8h.7v-.7h-.7v.7Z" class="g0_6"/>
<path fill-rule="evenodd" d="M167.6 493.8h.7v-.7h-.7v.7Z" class="g0_6"/>
<path fill-rule="evenodd" d="M166.5 493.1h.7V459.5h-.7v33.6Z" class="g0_6"/>
<path fill-rule="evenodd" d="M167.6 493.1h.7V459.5h-.7v33.6Z" class="g0_6"/>
<path fill-rule="evenodd" d="M168.5 459.5h.7v-.7h-.7v.7Z" class="g0_6"/>
<path fill-rule="evenodd" d="M168.5 459.5h.7v-.7h-.7v.7Z" class="g0_6"/>
<path fill-rule="evenodd" d="M169.2 459.5H337.4v-.7H169.2v.7Z" class="g0_6"/>
<path fill-rule="evenodd" d="M337.4 459.5h.7v-.7h-.7v.7Z" class="g0_6"/>
<path fill-rule="evenodd" d="M337.4 459.5h.7v-.7h-.7v.7Z" class="g0_6"/>
<path fill-rule="evenodd" d="M168.5 493.8h.7v-.7h-.7v.7Z" class="g0_6"/>
<path fill-rule="evenodd" d="M168.5 493.8h.7v-.7h-.7v.7Z" class="g0_6"/>
<path fill-rule="evenodd" d="M169.2 493.8H337.4v-.7H169.2v.7Z" class="g0_6"/>
<path fill-rule="evenodd" d="M337.4 493.8h.7v-.7h-.7v.7Z" class="g0_6"/>
<path fill-rule="evenodd" d="M337.4 493.8h.7v-.7h-.7v.7Z" class="g0_6"/>
<path fill-rule="evenodd" d="M168.5 493.1h.7V459.5h-.7v33.6Z" class="g0_6"/>
<path fill-rule="evenodd" d="M337.4 493.1h.7V459.5h-.7v33.6Z" class="g0_6"/>
<path fill-rule="evenodd" d="M337.8 493.8h.7V459.5h-.7v34.3Z" class="g0_6"/>
<path fill-rule="evenodd" d="M110 494.5h.8v-.7H110v.7Z" class="g0_6"/>
<path fill-rule="evenodd" d="M337.8 494.5h.7v-.7h-.7v.7Z" class="g0_6"/>
<path fill-rule="evenodd" d="M110.4 494.5h.7v-.7h-.7v.7Z" class="g0_6"/>
<path fill-rule="evenodd" d="M110.4 494.5h.7v-.7h-.7v.7Z" class="g0_6"/>
<path fill-rule="evenodd" d="M111.1 494.5h54.5v-.7H111.1v.7Z" class="g0_6"/>
<path fill-rule="evenodd" d="M165.6 494.5h.7v-.7h-.7v.7Z" class="g0_6"/>
<path fill-rule="evenodd" d="M165.6 494.5h.7v-.7h-.7v.7Z" class="g0_6"/>
<path fill-rule="evenodd" d="M110.4 529h.7v-.7h-.7v.7Z" class="g0_6"/>
<path fill-rule="evenodd" d="M110.4 529h.7v-.7h-.7v.7Z" class="g0_6"/>
<path fill-rule="evenodd" d="M111.1 529h54.5v-.7H111.1v.7Z" class="g0_6"/>
<path fill-rule="evenodd" d="M165.6 529h.7v-.7h-.7v.7Z" class="g0_6"/>
<path fill-rule="evenodd" d="M165.6 529h.7v-.7h-.7v.7Z" class="g0_6"/>
<path fill-rule="evenodd" d="M110.4 528.3h.7V494.5h-.7v33.8Z" class="g0_6"/>
<path fill-rule="evenodd" d="M165.6 528.3h.7V494.5h-.7v33.8Z" class="g0_6"/>
<path fill-rule="evenodd" d="M110 529h.8V494.5H110V529Z" class="g0_6"/>
<path fill-rule="evenodd" d="M166.5 494.5h.7v-.7h-.7v.7Z" class="g0_6"/>
<path fill-rule="evenodd" d="M166.5 494.5h.7v-.7h-.7v.7Z" class="g0_6"/>
<path fill-rule="evenodd" d="M167.2 494.5h.4v-.7h-.4v.7Z" class="g0_6"/>
<path fill-rule="evenodd" d="M167.6 494.5h.7v-.7h-.7v.7Z" class="g0_6"/>
<path fill-rule="evenodd" d="M167.6 494.5h.7v-.7h-.7v.7Z" class="g0_6"/>
<path fill-rule="evenodd" d="M166.5 529h.7v-.7h-.7v.7Z" class="g0_6"/>
<path fill-rule="evenodd" d="M166.5 529h.7v-.7h-.7v.7Z" class="g0_6"/>
<path fill-rule="evenodd" d="M167.2 529h.4v-.7h-.4v.7Z" class="g0_6"/>
<path fill-rule="evenodd" d="M167.6 529h.7v-.7h-.7v.7Z" class="g0_6"/>
<path fill-rule="evenodd" d="M167.6 529h.7v-.7h-.7v.7Z" class="g0_6"/>
<path fill-rule="evenodd" d="M166.5 528.3h.7V494.5h-.7v33.8Z" class="g0_6"/>
<path fill-rule="evenodd" d="M167.6 528.3h.7V494.5h-.7v33.8Z" class="g0_6"/>
<path fill-rule="evenodd" d="M168.5 494.5h.7v-.7h-.7v.7Z" class="g0_6"/>
<path fill-rule="evenodd" d="M168.5 494.5h.7v-.7h-.7v.7Z" class="g0_6"/>
<path fill-rule="evenodd" d="M169.2 494.5H337.4v-.7H169.2v.7Z" class="g0_6"/>
<path fill-rule="evenodd" d="M337.4 494.5h.7v-.7h-.7v.7Z" class="g0_6"/>
<path fill-rule="evenodd" d="M337.4 494.5h.7v-.7h-.7v.7Z" class="g0_6"/>
<path fill-rule="evenodd" d="M168.5 529h.7v-.7h-.7v.7Z" class="g0_6"/>
<path fill-rule="evenodd" d="M168.5 529h.7v-.7h-.7v.7Z" class="g0_6"/>
<path fill-rule="evenodd" d="M169.2 529H337.4v-.7H169.2v.7Z" class="g0_6"/>
<path fill-rule="evenodd" d="M337.4 529h.7v-.7h-.7v.7Z" class="g0_6"/>
<path fill-rule="evenodd" d="M337.4 529h.7v-.7h-.7v.7Z" class="g0_6"/>
<path fill-rule="evenodd" d="M168.5 528.3h.7V494.5h-.7v33.8Z" class="g0_6"/>
<path fill-rule="evenodd" d="M337.4 528.3h.7V494.5h-.7v33.8Z" class="g0_6"/>
<path fill-rule="evenodd" d="M337.8 529h.7V494.5h-.7V529Z" class="g0_6"/>
<path fill-rule="evenodd" d="M110 529.7h.8V529H110v.7Z" class="g0_6"/>
<path fill-rule="evenodd" d="M337.8 529.7h.7V529h-.7v.7Z" class="g0_6"/>
<path fill-rule="evenodd" d="M110.4 529.7h.7V529h-.7v.7Z" class="g0_6"/>
<path fill-rule="evenodd" d="M110.4 529.7h.7V529h-.7v.7Z" class="g0_6"/>
<path fill-rule="evenodd" d="M111.1 529.7h54.5V529H111.1v.7Z" class="g0_6"/>
<path fill-rule="evenodd" d="M165.6 529.7h.7V529h-.7v.7Z" class="g0_6"/>
<path fill-rule="evenodd" d="M165.6 529.7h.7V529h-.7v.7Z" class="g0_6"/>
<path fill-rule="evenodd" d="M110.4 564h.7v-.7h-.7v.7Z" class="g0_6"/>
<path fill-rule="evenodd" d="M110.4 564h.7v-.7h-.7v.7Z" class="g0_6"/>
<path fill-rule="evenodd" d="M111.1 564h54.5v-.7H111.1v.7Z" class="g0_6"/>
<path fill-rule="evenodd" d="M165.6 564h.7v-.7h-.7v.7Z" class="g0_6"/>
<path fill-rule="evenodd" d="M165.6 564h.7v-.7h-.7v.7Z" class="g0_6"/>
<path fill-rule="evenodd" d="M110.4 563.3h.7V529.7h-.7v33.6Z" class="g0_6"/>
<path fill-rule="evenodd" d="M165.6 563.3h.7V529.7h-.7v33.6Z" class="g0_6"/>
<path fill-rule="evenodd" d="M110 564h.8V529.7H110V564Z" class="g0_6"/>
<path fill-rule="evenodd" d="M110 564.7h.8V564H110v.7Z" class="g0_6"/>
<path fill-rule="evenodd" d="M110 564.7h.8V564H110v.7Z" class="g0_6"/>
<path fill-rule="evenodd" d="M110.8 564.7h55.7V564H110.8v.7Z" class="g0_6"/>
<path fill-rule="evenodd" d="M166.5 529.7h.7V529h-.7v.7Z" class="g0_6"/>
<path fill-rule="evenodd" d="M166.5 529.7h.7V529h-.7v.7Z" class="g0_6"/>
<path fill-rule="evenodd" d="M167.2 529.7h.4V529h-.4v.7Z" class="g0_6"/>
<path fill-rule="evenodd" d="M167.6 529.7h.7V529h-.7v.7Z" class="g0_6"/>
<path fill-rule="evenodd" d="M167.6 529.7h.7V529h-.7v.7Z" class="g0_6"/>
<path fill-rule="evenodd" d="M166.5 564h.7v-.7h-.7v.7Z" class="g0_6"/>
<path fill-rule="evenodd" d="M166.5 564h.7v-.7h-.7v.7Z" class="g0_6"/>
<path fill-rule="evenodd" d="M167.2 564h.4v-.7h-.4v.7Z" class="g0_6"/>
<path fill-rule="evenodd" d="M167.6 564h.7v-.7h-.7v.7Z" class="g0_6"/>
<path fill-rule="evenodd" d="M167.6 564h.7v-.7h-.7v.7Z" class="g0_6"/>
<path fill-rule="evenodd" d="M166.5 563.3h.7V529.7h-.7v33.6Z" class="g0_6"/>
<path fill-rule="evenodd" d="M167.6 563.3h.7V529.7h-.7v33.6Z" class="g0_6"/>
<path fill-rule="evenodd" d="M166.5 564.7h.7V564h-.7v.7Z" class="g0_6"/>
<path fill-rule="evenodd" d="M167.2 564.7h1.1V564h-1.1v.7Z" class="g0_6"/>
<path fill-rule="evenodd" d="M168.5 529.7h.7V529h-.7v.7Z" class="g0_6"/>
<path fill-rule="evenodd" d="M168.5 529.7h.7V529h-.7v.7Z" class="g0_6"/>
<path fill-rule="evenodd" d="M169.2 529.7H337.4V529H169.2v.7Z" class="g0_6"/>
<path fill-rule="evenodd" d="M337.4 529.7h.7V529h-.7v.7Z" class="g0_6"/>
<path fill-rule="evenodd" d="M337.4 529.7h.7V529h-.7v.7Z" class="g0_6"/>
<path fill-rule="evenodd" d="M168.5 564h.7v-.7h-.7v.7Z" class="g0_6"/>
<path fill-rule="evenodd" d="M168.5 564h.7v-.7h-.7v.7Z" class="g0_6"/>
<path fill-rule="evenodd" d="M169.2 564H337.4v-.7H169.2v.7Z" class="g0_6"/>
<path fill-rule="evenodd" d="M337.4 564h.7v-.7h-.7v.7Z" class="g0_6"/>
<path fill-rule="evenodd" d="M337.4 564h.7v-.7h-.7v.7Z" class="g0_6"/>
<path fill-rule="evenodd" d="M168.5 563.3h.7V529.7h-.7v33.6Z" class="g0_6"/>
<path fill-rule="evenodd" d="M337.4 563.3h.7V529.7h-.7v33.6Z" class="g0_6"/>
<path fill-rule="evenodd" d="M168.3 564.7h.8V564h-.8v.7Z" class="g0_6"/>
<path fill-rule="evenodd" d="M169.1 564.7H337.8V564H169.1v.7Z" class="g0_6"/>
<path fill-rule="evenodd" d="M337.8 564h.7V529.7h-.7V564Z" class="g0_6"/>
<path fill-rule="evenodd" d="M337.8 564.7h.7V564h-.7v.7Z" class="g0_6"/>
<path fill-rule="evenodd" d="M337.8 564.7h.7V564h-.7v.7Z" class="g0_6"/>
</svg>