<?xml version="1.0" encoding="UTF-8" standalone="no"?>
<!DOCTYPE svg PUBLIC "-//W3C//DTD SVG 1.1//EN"
"http://www.w3.org/Graphics/SVG/1.1/DTD/svg11.dtd">
<svg viewBox="0 0 909 1286" version="1.1" xmlns="http://www.w3.org/2000/svg" xmlns:xlink="http://www.w3.org/1999/xlink">
<defs>
<clipPath id="c0_2"><path d="M110 673.6V389.4H799.5V673.6Z"/></clipPath>
<clipPath id="c1_2"><path d="M221.5 765.9L235.4 752V710.3H169.5l-13.9 13.9v41.7ZM0 1286.3V0H909.5V1286.3Z"/></clipPath>
<clipPath id="c2_2"><path d="M137.8 751.9l55.7 -72.3l-7.9 -5.8l-55.7 72.4l7.9 5.7ZM0 1286.3V0H909.5V1286.3Z"/></clipPath>
<clipPath id="c3_2"><path d="M0 1286.3V0H909.5V1286.3Z"/></clipPath>
<clipPath id="c4_2"><path d="M417 765.9L430.9 752V710.3H365.1l-13.9 13.9v41.7ZM0 1286.3V0H909.5V1286.3Z"/></clipPath>
<clipPath id="c5_2"><path d="M708.7 765.9L722.6 752V710.3H656.8l-13.9 13.9v41.7ZM0 1286.3V0H909.5V1286.3Z"/></clipPath>
<clipPath id="c6_2"><path d="M679.3 844.8c9 0 16.3 -7.1 16.3 -15.8c0 -8.7 -7.3 -15.7 -16.3 -15.7c-9 0 -16.3 7 -16.3 15.7c0 8.7 7.3 15.8 16.3 15.8ZM0 1286.3V0H909.5V1286.3Z"/></clipPath>
<style type="text/css"><![CDATA[
.g0_2{
fill: #000;
}
.g1_2{
fill: #5B9BD5;
}
.g2_2{
fill: #497DAB;
}
.g3_2{
fill: #7BAFDD;
}
.g4_2{
fill: none;
stroke: #F1F1F1;
stroke-width: 4.583;
stroke-miterlimit: 10;
}
.g5_2{
fill: none;
stroke: #F4B183;
stroke-width: 1.527;
stroke-miterlimit: 10;
}
.g6_2{
fill: #203864;
}
.g7_2{
fill: #843C0C;
}
.g8_2{
fill: #7E7E7E;
}
.g9_2{
fill: none;
stroke: #000;
stroke-width: 1.527;
stroke-linejoin: round;
}
]]></style>
</defs>
<path fill-rule="evenodd" d="M386.5 130.9H523.2v-1.8H386.5v1.8Z" class="g0_2"/>
<image clip-path="url(#c0_2)" preserveAspectRatio="none" x="110" y="389" width="689" height="285" xlink:href="img/1.png"/>
<image clip-path="url(#c1_2)" preserveAspectRatio="none" x="155" y="711" width="84" height="60" xlink:href="img/2.png"/>
<path fill-rule="evenodd" d="M155.6 765.9h65.9V724.2H155.6v41.7Z" class="g1_2"/>
<path fill-rule="evenodd" d="M221.5 724.2l13.9 -13.9V752l-13.9 13.9Z" class="g2_2"/>
<path fill-rule="evenodd" d="M155.6 724.2l13.9 -13.9h65.9l-13.9 13.9Z" class="g3_2"/>
<path d="M155.6 724.2l13.9 -13.9h65.9V752l-13.9 13.9H155.6Zm0 0h65.9l13.9 -13.9m-13.9 13.9v41.7" class="g4_2"/>
<image clip-path="url(#c2_2)" preserveAspectRatio="none" x="130" y="676" width="66" height="80" xlink:href="img/3.png"/>
<g clip-path="url(#c3_2)">
<image x="129" y="673" width="65" height="79" xlink:href="shade/1.png"/>
<path d="M129.9 746.2l55.7 -72.4l7.9 5.8l-55.7 72.3Z" class="g5_2"/>
</g>
<image clip-path="url(#c4_2)" preserveAspectRatio="none" x="350" y="711" width="85" height="60" xlink:href="img/4.png"/>
<path fill-rule="evenodd" d="M351.2 765.9H417V724.2H351.2v41.7Z" class="g1_2"/>
<path fill-rule="evenodd" d="M417 724.2l13.9 -13.9V752L417 765.9Z" class="g2_2"/>
<path fill-rule="evenodd" d="M351.2 724.2l13.9 -13.9h65.8L417 724.2Z" class="g3_2"/>
<path d="M351.2 724.2l13.9 -13.9h65.8V752L417 765.9H351.2Zm0 0H417l13.9 -13.9M417 724.2v41.7" class="g4_2"/>
<path fill-rule="evenodd" d="M437.7 790.1c0 -8.7 7.3 -15.8 16.3 -15.8c9 0 16.3 7.1 16.3 15.8c0 8.7 -7.3 15.7 -16.3 15.7c-9 0 -16.3 -7 -16.3 -15.7Z" class="g6_2"/>
<image x="436" y="771" width="33" height="32" xlink:href="shade/2.png"/>
<path fill-rule="evenodd" d="M529.2 782.2c0 -8.7 7.3 -15.7 16.3 -15.7c9 0 16.3 7 16.3 15.7c0 8.7 -7.3 15.7 -16.3 15.7c-9 0 -16.3 -7 -16.3 -15.7Z" class="g7_2"/>
<image x="527" y="763" width="34" height="32" xlink:href="shade/3.png"/>
<image clip-path="url(#c5_2)" preserveAspectRatio="none" x="642" y="711" width="84" height="60" xlink:href="img/5.png"/>
<path fill-rule="evenodd" d="M642.9 765.9h65.8V724.2H642.9v41.7Z" class="g1_2"/>
<path fill-rule="evenodd" d="M708.7 724.2l13.9 -13.9V752l-13.9 13.9Z" class="g2_2"/>
<path fill-rule="evenodd" d="M642.9 724.2l13.9 -13.9h65.8l-13.9 13.9Z" class="g3_2"/>
<path d="M642.9 724.2l13.9 -13.9h65.8V752l-13.9 13.9H642.9Zm0 0h65.8l13.9 -13.9m-13.9 13.9v41.7" class="g4_2"/>
<g clip-path="url(#c6_2)">
<path fill-rule="evenodd" d="M664.5 832.1c0 -8.7 7.3 -15.8 16.3 -15.8c9 0 16.3 7.1 16.3 15.8c0 8.7 -7.3 15.7 -16.3 15.7c-9 0 -16.3 -7 -16.3 -15.7Z" class="g8_2"/>
<path fill-rule="evenodd" d="M680.9 817.1l-1.6 .1l-1.6 .2l-1.5 .4l-1.4 .5l-1.4 .6l-1.3 .8l-1.2 .8l-1.1 1l-1 1l-.9 1.2l-.7 1.2l-.7 1.3l-.5 1.4l-.4 1.4l-.3 1.5v3.1l.3 1.5l.4 1.4l.5 1.4l.6 1.3l.8 1.2l.9 1.2l1 1l1.1 1l1.2 .9l1.3 .7l1.3 .7l1.4 .5l1.5 .3l1.6 .3h3.2l1.5 -.2l1.5 -.4l1.4 -.5l1.4 -.6l1.3 -.8l1.2 -.8l1.1 -1l1 -1.1l.9 -1.1l.8 -1.3l.6 -1.3l.6 -1.3l.3 -1.5l.3 -1.5l.1 -1.5l-.1 -1.5l-.2 -1.5l-.4 -1.4l-.5 -1.4l-.7 -1.3l-.8 -1.3l-.9 -1.1l-1 -1.1l-1.1 -.9l-1.2 -.9l-1.2 -.8l-1.4 -.6l-1.4 -.5l-1.5 -.4l-1.6 -.2Zm-.1 -1.5l1.7 .1l1.7 .2l1.7 .4l1.5 .6l1.5 .6l1.4 .9l1.3 .9l1.2 1.1l1.2 1.1l.9 1.3l.9 1.4l.7 1.4l.6 1.5l.4 1.6l.3 1.6l.1 1.7l-.1 1.7l-.2 1.7l-.5 1.6l-.5 1.5l-.8 1.4l-.8 1.4l-1 1.3l-1.1 1.1l-1.2 1.1l-1.3 .9l-1.4 .9l-1.5 .7l-1.6 .5l-1.6 .4l-1.7 .3l-1.7 .1l-1.8 -.1l-1.7 -.2l-1.6 -.4l-1.6 -.6l-1.5 -.7l-1.4 -.8l-1.3 -1l-1.2 -1l-1.1 -1.2l-1 -1.3l-.9 -1.3l-.7 -1.4l-.6 -1.6l-.4 -1.5l-.3 -1.7l-.1 -1.7l.1 -1.7l.3 -1.6l.4 -1.6l.6 -1.5l.7 -1.5l.8 -1.3l1 -1.3l1.1 -1.2l1.2 -1l1.3 -1l1.5 -.8l1.4 -.7l1.6 -.6l1.6 -.4l1.7 -.2Z" class="g8_2"/>
</g>
<image x="662" y="813" width="34" height="32" xlink:href="shade/4.png"/>
<path d="M663 829c0 -8.7 7.3 -15.7 16.3 -15.7c9 0 16.3 7 16.3 15.7c0 8.7 -7.3 15.8 -16.3 15.8c-9 0 -16.3 -7.1 -16.3 -15.8Z" class="g9_2"/>
</svg>