<?xml version="1.0" encoding="UTF-8" standalone="no"?>
<!DOCTYPE svg PUBLIC "-//W3C//DTD SVG 1.1//EN"
"http://www.w3.org/Graphics/SVG/1.1/DTD/svg11.dtd">
<svg viewBox="0 0 935 1210" version="1.1" xmlns="http://www.w3.org/2000/svg" xmlns:xlink="http://www.w3.org/1999/xlink">
<defs>
<style type="text/css"><![CDATA[
.g0_8{
fill: #000;
}
]]></style>
</defs>
<path fill-rule="evenodd" d="M110 749.4h.8v-1.5H110v1.5Z" class="g0_8"/>
<path fill-rule="evenodd" d="M110 748.7h.8v-.8H110v.8Z" class="g0_8"/>
<path fill-rule="evenodd" d="M110.8 748.7h91.8v-.8H110.8v.8Z" class="g0_8"/>
<path fill-rule="evenodd" d="M202.6 748.7h.7v-.8h-.7v.8Z" class="g0_8"/>
<path fill-rule="evenodd" d="M203.3 748.7H489.4v-.8H203.3v.8Z" class="g0_8"/>
<path fill-rule="evenodd" d="M489.4 748.7h.8v-.8h-.8v.8Z" class="g0_8"/>
<path fill-rule="evenodd" d="M490.2 748.7H791.4v-.8H490.2v.8Z" class="g0_8"/>
<path fill-rule="evenodd" d="M791.4 749.4h.8v-1.5h-.8v1.5Z" class="g0_8"/>
<path fill-rule="evenodd" d="M791.4 748.7h.8v-.8h-.8v.8Z" class="g0_8"/>
<path fill-rule="evenodd" d="M110.4 749.4h.7v-.7h-.7v.7Z" class="g0_8"/>
<path fill-rule="evenodd" d="M110.4 749.4h.7v-.7h-.7v.7Z" class="g0_8"/>
<path fill-rule="evenodd" d="M111.1 749.4h90.8v-.7H111.1v.7Z" class="g0_8"/>
<path fill-rule="evenodd" d="M201.9 749.4h.7v-.7h-.7v.7Z" class="g0_8"/>
<path fill-rule="evenodd" d="M201.9 749.4h.7v-.7h-.7v.7Z" class="g0_8"/>
<path fill-rule="evenodd" d="M110.4 783.9h.7v-.8h-.7v.8Z" class="g0_8"/>
<path fill-rule="evenodd" d="M110.4 783.9h.7v-.8h-.7v.8Z" class="g0_8"/>
<path fill-rule="evenodd" d="M111.1 783.9h90.8v-.8H111.1v.8Z" class="g0_8"/>
<path fill-rule="evenodd" d="M201.9 783.9h.7v-.8h-.7v.8Z" class="g0_8"/>
<path fill-rule="evenodd" d="M201.9 783.9h.7v-.8h-.7v.8Z" class="g0_8"/>
<path fill-rule="evenodd" d="M110.4 783.1h.7V749.4h-.7v33.7Z" class="g0_8"/>
<path fill-rule="evenodd" d="M201.9 783.1h.7V749.4h-.7v33.7Z" class="g0_8"/>
<path fill-rule="evenodd" d="M110 783.9h.8V749.4H110v34.5Z" class="g0_8"/>
<path fill-rule="evenodd" d="M202.8 749.4h.7v-.7h-.7v.7Z" class="g0_8"/>
<path fill-rule="evenodd" d="M202.8 749.4h.7v-.7h-.7v.7Z" class="g0_8"/>
<path fill-rule="evenodd" d="M203.5 749.4H488.7v-.7H203.5v.7Z" class="g0_8"/>
<path fill-rule="evenodd" d="M488.7 749.4h.7v-.7h-.7v.7Z" class="g0_8"/>
<path fill-rule="evenodd" d="M488.7 749.4h.7v-.7h-.7v.7Z" class="g0_8"/>
<path fill-rule="evenodd" d="M202.8 783.9h.7v-.8h-.7v.8Z" class="g0_8"/>
<path fill-rule="evenodd" d="M202.8 783.9h.7v-.8h-.7v.8Z" class="g0_8"/>
<path fill-rule="evenodd" d="M203.5 783.9H488.7v-.8H203.5v.8Z" class="g0_8"/>
<path fill-rule="evenodd" d="M488.7 783.9h.7v-.8h-.7v.8Z" class="g0_8"/>
<path fill-rule="evenodd" d="M488.7 783.9h.7v-.8h-.7v.8Z" class="g0_8"/>
<path fill-rule="evenodd" d="M202.8 783.1h.7V749.4h-.7v33.7Z" class="g0_8"/>
<path fill-rule="evenodd" d="M488.7 783.1h.7V749.4h-.7v33.7Z" class="g0_8"/>
<path fill-rule="evenodd" d="M489.4 749.4h.8v-.7h-.8v.7Z" class="g0_8"/>
<path fill-rule="evenodd" d="M489.4 749.4h.8v-.7h-.8v.7Z" class="g0_8"/>
<path fill-rule="evenodd" d="M490.2 749.4H791v-.7H490.2v.7Z" class="g0_8"/>
<path fill-rule="evenodd" d="M791.1 749.4h.7v-.7h-.7v.7Z" class="g0_8"/>
<path fill-rule="evenodd" d="M791.1 749.4h.7v-.7h-.7v.7Z" class="g0_8"/>
<path fill-rule="evenodd" d="M489.4 783.9h.8v-.8h-.8v.8Z" class="g0_8"/>
<path fill-rule="evenodd" d="M489.4 783.9h.8v-.8h-.8v.8Z" class="g0_8"/>
<path fill-rule="evenodd" d="M490.2 783.9H791v-.8H490.2v.8Z" class="g0_8"/>
<path fill-rule="evenodd" d="M791.1 783.9h.7v-.8h-.7v.8Z" class="g0_8"/>
<path fill-rule="evenodd" d="M791.1 783.9h.7v-.8h-.7v.8Z" class="g0_8"/>
<path fill-rule="evenodd" d="M489.4 783.1h.8V749.4h-.8v33.7Z" class="g0_8"/>
<path fill-rule="evenodd" d="M791.1 783.1h.7V749.4h-.7v33.7Z" class="g0_8"/>
<path fill-rule="evenodd" d="M791.4 783.9h.8V749.4h-.8v34.5Z" class="g0_8"/>
<path fill-rule="evenodd" d="M110 784.6h.8v-.7H110v.7Z" class="g0_8"/>
<path fill-rule="evenodd" d="M791.4 784.6h.8v-.7h-.8v.7Z" class="g0_8"/>
<path fill-rule="evenodd" d="M110.4 784.6h.7v-.7h-.7v.7Z" class="g0_8"/>
<path fill-rule="evenodd" d="M110.4 784.6h.7v-.7h-.7v.7Z" class="g0_8"/>
<path fill-rule="evenodd" d="M111.1 784.6h90.8v-.7H111.1v.7Z" class="g0_8"/>
<path fill-rule="evenodd" d="M201.9 784.6h.7v-.7h-.7v.7Z" class="g0_8"/>
<path fill-rule="evenodd" d="M201.9 784.6h.7v-.7h-.7v.7Z" class="g0_8"/>
<path fill-rule="evenodd" d="M110.4 818.9h.7v-.8h-.7v.8Z" class="g0_8"/>
<path fill-rule="evenodd" d="M110.4 818.9h.7v-.8h-.7v.8Z" class="g0_8"/>
<path fill-rule="evenodd" d="M111.1 818.9h90.8v-.8H111.1v.8Z" class="g0_8"/>
<path fill-rule="evenodd" d="M201.9 818.9h.7v-.8h-.7v.8Z" class="g0_8"/>
<path fill-rule="evenodd" d="M201.9 818.9h.7v-.8h-.7v.8Z" class="g0_8"/>
<path fill-rule="evenodd" d="M110.4 818.1h.7V784.6h-.7v33.5Z" class="g0_8"/>
<path fill-rule="evenodd" d="M201.9 818.1h.7V784.6h-.7v33.5Z" class="g0_8"/>
<path fill-rule="evenodd" d="M110 818.9h.8V784.6H110v34.3Z" class="g0_8"/>
<path fill-rule="evenodd" d="M202.8 784.6h.7v-.7h-.7v.7Z" class="g0_8"/>
<path fill-rule="evenodd" d="M202.8 784.6h.7v-.7h-.7v.7Z" class="g0_8"/>
<path fill-rule="evenodd" d="M203.5 784.6H488.7v-.7H203.5v.7Z" class="g0_8"/>
<path fill-rule="evenodd" d="M488.7 784.6h.7v-.7h-.7v.7Z" class="g0_8"/>
<path fill-rule="evenodd" d="M488.7 784.6h.7v-.7h-.7v.7Z" class="g0_8"/>
<path fill-rule="evenodd" d="M202.8 818.9h.7v-.8h-.7v.8Z" class="g0_8"/>
<path fill-rule="evenodd" d="M202.8 818.9h.7v-.8h-.7v.8Z" class="g0_8"/>
<path fill-rule="evenodd" d="M203.5 818.9H488.7v-.8H203.5v.8Z" class="g0_8"/>
<path fill-rule="evenodd" d="M488.7 818.9h.7v-.8h-.7v.8Z" class="g0_8"/>
<path fill-rule="evenodd" d="M488.7 818.9h.7v-.8h-.7v.8Z" class="g0_8"/>
<path fill-rule="evenodd" d="M202.8 818.1h.7V784.6h-.7v33.5Z" class="g0_8"/>
<path fill-rule="evenodd" d="M488.7 818.1h.7V784.6h-.7v33.5Z" class="g0_8"/>
<path fill-rule="evenodd" d="M489.4 784.6h.8v-.7h-.8v.7Z" class="g0_8"/>
<path fill-rule="evenodd" d="M489.4 784.6h.8v-.7h-.8v.7Z" class="g0_8"/>
<path fill-rule="evenodd" d="M490.2 784.6H791v-.7H490.2v.7Z" class="g0_8"/>
<path fill-rule="evenodd" d="M791.1 784.6h.7v-.7h-.7v.7Z" class="g0_8"/>
<path fill-rule="evenodd" d="M791.1 784.6h.7v-.7h-.7v.7Z" class="g0_8"/>
<path fill-rule="evenodd" d="M489.4 818.9h.8v-.8h-.8v.8Z" class="g0_8"/>
<path fill-rule="evenodd" d="M489.4 818.9h.8v-.8h-.8v.8Z" class="g0_8"/>
<path fill-rule="evenodd" d="M490.2 818.9H791v-.8H490.2v.8Z" class="g0_8"/>
<path fill-rule="evenodd" d="M791.1 818.9h.7v-.8h-.7v.8Z" class="g0_8"/>
<path fill-rule="evenodd" d="M791.1 818.9h.7v-.8h-.7v.8Z" class="g0_8"/>
<path fill-rule="evenodd" d="M489.4 818.1h.8V784.6h-.8v33.5Z" class="g0_8"/>
<path fill-rule="evenodd" d="M791.1 818.1h.7V784.6h-.7v33.5Z" class="g0_8"/>
<path fill-rule="evenodd" d="M791.4 818.9h.8V784.6h-.8v34.3Z" class="g0_8"/>
<path fill-rule="evenodd" d="M110 819.6h.8v-.7H110v.7Z" class="g0_8"/>
<path fill-rule="evenodd" d="M791.4 819.6h.8v-.7h-.8v.7Z" class="g0_8"/>
<path fill-rule="evenodd" d="M110.4 819.6h.7v-.7h-.7v.7Z" class="g0_8"/>
<path fill-rule="evenodd" d="M110.4 819.6h.7v-.7h-.7v.7Z" class="g0_8"/>
<path fill-rule="evenodd" d="M111.1 819.6h90.8v-.7H111.1v.7Z" class="g0_8"/>
<path fill-rule="evenodd" d="M201.9 819.6h.7v-.7h-.7v.7Z" class="g0_8"/>
<path fill-rule="evenodd" d="M201.9 819.6h.7v-.7h-.7v.7Z" class="g0_8"/>
<path fill-rule="evenodd" d="M110.4 853.9h.7v-.7h-.7v.7Z" class="g0_8"/>
<path fill-rule="evenodd" d="M110.4 853.9h.7v-.7h-.7v.7Z" class="g0_8"/>
<path fill-rule="evenodd" d="M111.1 853.9h90.8v-.7H111.1v.7Z" class="g0_8"/>
<path fill-rule="evenodd" d="M201.9 853.9h.7v-.7h-.7v.7Z" class="g0_8"/>
<path fill-rule="evenodd" d="M201.9 853.9h.7v-.7h-.7v.7Z" class="g0_8"/>
<path fill-rule="evenodd" d="M110.4 853.2h.7V819.6h-.7v33.6Z" class="g0_8"/>
<path fill-rule="evenodd" d="M201.9 853.2h.7V819.6h-.7v33.6Z" class="g0_8"/>
<path fill-rule="evenodd" d="M110 853.9h.8V819.6H110v34.3Z" class="g0_8"/>
<path fill-rule="evenodd" d="M202.8 819.6h.7v-.7h-.7v.7Z" class="g0_8"/>
<path fill-rule="evenodd" d="M202.8 819.6h.7v-.7h-.7v.7Z" class="g0_8"/>
<path fill-rule="evenodd" d="M203.5 819.6H488.7v-.7H203.5v.7Z" class="g0_8"/>
<path fill-rule="evenodd" d="M488.7 819.6h.7v-.7h-.7v.7Z" class="g0_8"/>
<path fill-rule="evenodd" d="M488.7 819.6h.7v-.7h-.7v.7Z" class="g0_8"/>
<path fill-rule="evenodd" d="M202.8 853.9h.7v-.7h-.7v.7Z" class="g0_8"/>
<path fill-rule="evenodd" d="M202.8 853.9h.7v-.7h-.7v.7Z" class="g0_8"/>
<path fill-rule="evenodd" d="M203.5 853.9H488.7v-.7H203.5v.7Z" class="g0_8"/>
<path fill-rule="evenodd" d="M488.7 853.9h.7v-.7h-.7v.7Z" class="g0_8"/>
<path fill-rule="evenodd" d="M488.7 853.9h.7v-.7h-.7v.7Z" class="g0_8"/>
<path fill-rule="evenodd" d="M202.8 853.2h.7V819.6h-.7v33.6Z" class="g0_8"/>
<path fill-rule="evenodd" d="M488.7 853.2h.7V819.6h-.7v33.6Z" class="g0_8"/>
<path fill-rule="evenodd" d="M489.4 819.6h.8v-.7h-.8v.7Z" class="g0_8"/>
<path fill-rule="evenodd" d="M489.4 819.6h.8v-.7h-.8v.7Z" class="g0_8"/>
<path fill-rule="evenodd" d="M490.2 819.6H791v-.7H490.2v.7Z" class="g0_8"/>
<path fill-rule="evenodd" d="M791.1 819.6h.7v-.7h-.7v.7Z" class="g0_8"/>
<path fill-rule="evenodd" d="M791.1 819.6h.7v-.7h-.7v.7Z" class="g0_8"/>
<path fill-rule="evenodd" d="M489.4 853.9h.8v-.7h-.8v.7Z" class="g0_8"/>
<path fill-rule="evenodd" d="M489.4 853.9h.8v-.7h-.8v.7Z" class="g0_8"/>
<path fill-rule="evenodd" d="M490.2 853.9H791v-.7H490.2v.7Z" class="g0_8"/>
<path fill-rule="evenodd" d="M791.1 853.9h.7v-.7h-.7v.7Z" class="g0_8"/>
<path fill-rule="evenodd" d="M791.1 853.9h.7v-.7h-.7v.7Z" class="g0_8"/>
<path fill-rule="evenodd" d="M489.4 853.2h.8V819.6h-.8v33.6Z" class="g0_8"/>
<path fill-rule="evenodd" d="M791.1 853.2h.7V819.6h-.7v33.6Z" class="g0_8"/>
<path fill-rule="evenodd" d="M791.4 853.9h.8V819.6h-.8v34.3Z" class="g0_8"/>
<path fill-rule="evenodd" d="M110 854.6h.8v-.7H110v.7Z" class="g0_8"/>
<path fill-rule="evenodd" d="M791.4 854.6h.8v-.7h-.8v.7Z" class="g0_8"/>
<path fill-rule="evenodd" d="M110.4 854.6h.7v-.7h-.7v.7Z" class="g0_8"/>
<path fill-rule="evenodd" d="M110.4 854.6h.7v-.7h-.7v.7Z" class="g0_8"/>
<path fill-rule="evenodd" d="M111.1 854.6h90.8v-.7H111.1v.7Z" class="g0_8"/>
<path fill-rule="evenodd" d="M201.9 854.6h.7v-.7h-.7v.7Z" class="g0_8"/>
<path fill-rule="evenodd" d="M201.9 854.6h.7v-.7h-.7v.7Z" class="g0_8"/>
<path fill-rule="evenodd" d="M110.4 889.1h.7v-.7h-.7v.7Z" class="g0_8"/>
<path fill-rule="evenodd" d="M110.4 889.1h.7v-.7h-.7v.7Z" class="g0_8"/>
<path fill-rule="evenodd" d="M111.1 889.1h90.8v-.7H111.1v.7Z" class="g0_8"/>
<path fill-rule="evenodd" d="M201.9 889.1h.7v-.7h-.7v.7Z" class="g0_8"/>
<path fill-rule="evenodd" d="M201.9 889.1h.7v-.7h-.7v.7Z" class="g0_8"/>
<path fill-rule="evenodd" d="M110.4 888.4h.7V854.6h-.7v33.8Z" class="g0_8"/>
<path fill-rule="evenodd" d="M201.9 888.4h.7V854.6h-.7v33.8Z" class="g0_8"/>
<path fill-rule="evenodd" d="M110 889.1h.8V854.6H110v34.5Z" class="g0_8"/>
<path fill-rule="evenodd" d="M202.8 854.6h.7v-.7h-.7v.7Z" class="g0_8"/>
<path fill-rule="evenodd" d="M202.8 854.6h.7v-.7h-.7v.7Z" class="g0_8"/>
<path fill-rule="evenodd" d="M203.5 854.6H488.7v-.7H203.5v.7Z" class="g0_8"/>
<path fill-rule="evenodd" d="M488.7 854.6h.7v-.7h-.7v.7Z" class="g0_8"/>
<path fill-rule="evenodd" d="M488.7 854.6h.7v-.7h-.7v.7Z" class="g0_8"/>
<path fill-rule="evenodd" d="M202.8 889.1h.7v-.7h-.7v.7Z" class="g0_8"/>
<path fill-rule="evenodd" d="M202.8 889.1h.7v-.7h-.7v.7Z" class="g0_8"/>
<path fill-rule="evenodd" d="M203.5 889.1H488.7v-.7H203.5v.7Z" class="g0_8"/>
<path fill-rule="evenodd" d="M488.7 889.1h.7v-.7h-.7v.7Z" class="g0_8"/>
<path fill-rule="evenodd" d="M488.7 889.1h.7v-.7h-.7v.7Z" class="g0_8"/>
<path fill-rule="evenodd" d="M202.8 888.4h.7V854.6h-.7v33.8Z" class="g0_8"/>
<path fill-rule="evenodd" d="M488.7 888.4h.7V854.6h-.7v33.8Z" class="g0_8"/>
<path fill-rule="evenodd" d="M489.4 854.6h.8v-.7h-.8v.7Z" class="g0_8"/>
<path fill-rule="evenodd" d="M489.4 854.6h.8v-.7h-.8v.7Z" class="g0_8"/>
<path fill-rule="evenodd" d="M490.2 854.6H791v-.7H490.2v.7Z" class="g0_8"/>
<path fill-rule="evenodd" d="M791.1 854.6h.7v-.7h-.7v.7Z" class="g0_8"/>
<path fill-rule="evenodd" d="M791.1 854.6h.7v-.7h-.7v.7Z" class="g0_8"/>
<path fill-rule="evenodd" d="M489.4 889.1h.8v-.7h-.8v.7Z" class="g0_8"/>
<path fill-rule="evenodd" d="M489.4 889.1h.8v-.7h-.8v.7Z" class="g0_8"/>
<path fill-rule="evenodd" d="M490.2 889.1H791v-.7H490.2v.7Z" class="g0_8"/>
<path fill-rule="evenodd" d="M791.1 889.1h.7v-.7h-.7v.7Z" class="g0_8"/>
<path fill-rule="evenodd" d="M791.1 889.1h.7v-.7h-.7v.7Z" class="g0_8"/>
<path fill-rule="evenodd" d="M489.4 888.4h.8V854.6h-.8v33.8Z" class="g0_8"/>
<path fill-rule="evenodd" d="M791.1 888.4h.7V854.6h-.7v33.8Z" class="g0_8"/>
<path fill-rule="evenodd" d="M791.4 889.1h.8V854.6h-.8v34.5Z" class="g0_8"/>
<path fill-rule="evenodd" d="M110 889.9h.8v-.8H110v.8Z" class="g0_8"/>
<path fill-rule="evenodd" d="M791.4 889.9h.8v-.8h-.8v.8Z" class="g0_8"/>
<path fill-rule="evenodd" d="M110.4 889.9h.7v-.8h-.7v.8Z" class="g0_8"/>
<path fill-rule="evenodd" d="M110.4 889.9h.7v-.8h-.7v.8Z" class="g0_8"/>
<path fill-rule="evenodd" d="M111.1 889.9h90.8v-.8H111.1v.8Z" class="g0_8"/>
<path fill-rule="evenodd" d="M201.9 889.9h.7v-.8h-.7v.8Z" class="g0_8"/>
<path fill-rule="evenodd" d="M201.9 889.9h.7v-.8h-.7v.8Z" class="g0_8"/>
<path fill-rule="evenodd" d="M110.4 924.2h.7v-.8h-.7v.8Z" class="g0_8"/>
<path fill-rule="evenodd" d="M110.4 924.2h.7v-.8h-.7v.8Z" class="g0_8"/>
<path fill-rule="evenodd" d="M111.1 924.2h90.8v-.8H111.1v.8Z" class="g0_8"/>
<path fill-rule="evenodd" d="M201.9 924.2h.7v-.8h-.7v.8Z" class="g0_8"/>
<path fill-rule="evenodd" d="M201.9 924.2h.7v-.8h-.7v.8Z" class="g0_8"/>
<path fill-rule="evenodd" d="M110.4 923.4h.7V889.9h-.7v33.5Z" class="g0_8"/>
<path fill-rule="evenodd" d="M201.9 923.4h.7V889.9h-.7v33.5Z" class="g0_8"/>
<path fill-rule="evenodd" d="M110 924.2h.8V889.9H110v34.3Z" class="g0_8"/>
<path fill-rule="evenodd" d="M202.8 889.9h.7v-.8h-.7v.8Z" class="g0_8"/>
<path fill-rule="evenodd" d="M202.8 889.9h.7v-.8h-.7v.8Z" class="g0_8"/>
<path fill-rule="evenodd" d="M203.5 889.9H488.7v-.8H203.5v.8Z" class="g0_8"/>
<path fill-rule="evenodd" d="M488.7 889.9h.7v-.8h-.7v.8Z" class="g0_8"/>
<path fill-rule="evenodd" d="M488.7 889.9h.7v-.8h-.7v.8Z" class="g0_8"/>
<path fill-rule="evenodd" d="M202.8 924.2h.7v-.8h-.7v.8Z" class="g0_8"/>
<path fill-rule="evenodd" d="M202.8 924.2h.7v-.8h-.7v.8Z" class="g0_8"/>
<path fill-rule="evenodd" d="M203.5 924.2H488.7v-.8H203.5v.8Z" class="g0_8"/>
<path fill-rule="evenodd" d="M488.7 924.2h.7v-.8h-.7v.8Z" class="g0_8"/>
<path fill-rule="evenodd" d="M488.7 924.2h.7v-.8h-.7v.8Z" class="g0_8"/>
<path fill-rule="evenodd" d="M202.8 923.4h.7V889.9h-.7v33.5Z" class="g0_8"/>
<path fill-rule="evenodd" d="M488.7 923.4h.7V889.9h-.7v33.5Z" class="g0_8"/>
<path fill-rule="evenodd" d="M489.4 889.9h.8v-.8h-.8v.8Z" class="g0_8"/>
<path fill-rule="evenodd" d="M489.4 889.9h.8v-.8h-.8v.8Z" class="g0_8"/>
<path fill-rule="evenodd" d="M490.2 889.9H791v-.8H490.2v.8Z" class="g0_8"/>
<path fill-rule="evenodd" d="M791.1 889.9h.7v-.8h-.7v.8Z" class="g0_8"/>
<path fill-rule="evenodd" d="M791.1 889.9h.7v-.8h-.7v.8Z" class="g0_8"/>
<path fill-rule="evenodd" d="M489.4 924.2h.8v-.8h-.8v.8Z" class="g0_8"/>
<path fill-rule="evenodd" d="M489.4 924.2h.8v-.8h-.8v.8Z" class="g0_8"/>
<path fill-rule="evenodd" d="M490.2 924.2H791v-.8H490.2v.8Z" class="g0_8"/>
<path fill-rule="evenodd" d="M791.1 924.2h.7v-.8h-.7v.8Z" class="g0_8"/>
<path fill-rule="evenodd" d="M791.1 924.2h.7v-.8h-.7v.8Z" class="g0_8"/>
<path fill-rule="evenodd" d="M489.4 923.4h.8V889.9h-.8v33.5Z" class="g0_8"/>
<path fill-rule="evenodd" d="M791.1 923.4h.7V889.9h-.7v33.5Z" class="g0_8"/>
<path fill-rule="evenodd" d="M791.4 924.2h.8V889.9h-.8v34.3Z" class="g0_8"/>
<path fill-rule="evenodd" d="M110 924.9h.8v-.7H110v.7Z" class="g0_8"/>
<path fill-rule="evenodd" d="M791.4 924.9h.8v-.7h-.8v.7Z" class="g0_8"/>
<path fill-rule="evenodd" d="M110.4 924.9h.7v-.7h-.7v.7Z" class="g0_8"/>
<path fill-rule="evenodd" d="M110.4 924.9h.7v-.7h-.7v.7Z" class="g0_8"/>
<path fill-rule="evenodd" d="M111.1 924.9h90.8v-.7H111.1v.7Z" class="g0_8"/>
<path fill-rule="evenodd" d="M201.9 924.9h.7v-.7h-.7v.7Z" class="g0_8"/>
<path fill-rule="evenodd" d="M201.9 924.9h.7v-.7h-.7v.7Z" class="g0_8"/>
<path fill-rule="evenodd" d="M110.4 959.4h.7v-.8h-.7v.8Z" class="g0_8"/>
<path fill-rule="evenodd" d="M110.4 959.4h.7v-.8h-.7v.8Z" class="g0_8"/>
<path fill-rule="evenodd" d="M111.1 959.4h90.8v-.8H111.1v.8Z" class="g0_8"/>
<path fill-rule="evenodd" d="M201.9 959.4h.7v-.8h-.7v.8Z" class="g0_8"/>
<path fill-rule="evenodd" d="M201.9 959.4h.7v-.8h-.7v.8Z" class="g0_8"/>
<path fill-rule="evenodd" d="M110.4 958.6h.7V924.9h-.7v33.7Z" class="g0_8"/>
<path fill-rule="evenodd" d="M201.9 958.6h.7V924.9h-.7v33.7Z" class="g0_8"/>
<path fill-rule="evenodd" d="M110 959.4h.8V924.9H110v34.5Z" class="g0_8"/>
<path fill-rule="evenodd" d="M202.8 924.9h.7v-.7h-.7v.7Z" class="g0_8"/>
<path fill-rule="evenodd" d="M202.8 924.9h.7v-.7h-.7v.7Z" class="g0_8"/>
<path fill-rule="evenodd" d="M203.5 924.9H488.7v-.7H203.5v.7Z" class="g0_8"/>
<path fill-rule="evenodd" d="M488.7 924.9h.7v-.7h-.7v.7Z" class="g0_8"/>
<path fill-rule="evenodd" d="M488.7 924.9h.7v-.7h-.7v.7Z" class="g0_8"/>
<path fill-rule="evenodd" d="M202.8 959.4h.7v-.8h-.7v.8Z" class="g0_8"/>
<path fill-rule="evenodd" d="M202.8 959.4h.7v-.8h-.7v.8Z" class="g0_8"/>
<path fill-rule="evenodd" d="M203.5 959.4H488.7v-.8H203.5v.8Z" class="g0_8"/>
<path fill-rule="evenodd" d="M488.7 959.4h.7v-.8h-.7v.8Z" class="g0_8"/>
<path fill-rule="evenodd" d="M488.7 959.4h.7v-.8h-.7v.8Z" class="g0_8"/>
<path fill-rule="evenodd" d="M202.8 958.6h.7V924.9h-.7v33.7Z" class="g0_8"/>
<path fill-rule="evenodd" d="M488.7 958.6h.7V924.9h-.7v33.7Z" class="g0_8"/>
<path fill-rule="evenodd" d="M489.4 924.9h.8v-.7h-.8v.7Z" class="g0_8"/>
<path fill-rule="evenodd" d="M489.4 924.9h.8v-.7h-.8v.7Z" class="g0_8"/>
<path fill-rule="evenodd" d="M490.2 924.9H791v-.7H490.2v.7Z" class="g0_8"/>
<path fill-rule="evenodd" d="M791.1 924.9h.7v-.7h-.7v.7Z" class="g0_8"/>
<path fill-rule="evenodd" d="M791.1 924.9h.7v-.7h-.7v.7Z" class="g0_8"/>
<path fill-rule="evenodd" d="M489.4 959.4h.8v-.8h-.8v.8Z" class="g0_8"/>
<path fill-rule="evenodd" d="M489.4 959.4h.8v-.8h-.8v.8Z" class="g0_8"/>
<path fill-rule="evenodd" d="M490.2 959.4H791v-.8H490.2v.8Z" class="g0_8"/>
<path fill-rule="evenodd" d="M791.1 959.4h.7v-.8h-.7v.8Z" class="g0_8"/>
<path fill-rule="evenodd" d="M791.1 959.4h.7v-.8h-.7v.8Z" class="g0_8"/>
<path fill-rule="evenodd" d="M489.4 958.6h.8V924.9h-.8v33.7Z" class="g0_8"/>
<path fill-rule="evenodd" d="M791.1 958.6h.7V924.9h-.7v33.7Z" class="g0_8"/>
<path fill-rule="evenodd" d="M791.4 959.4h.8V924.9h-.8v34.5Z" class="g0_8"/>
<path fill-rule="evenodd" d="M110 960.1h.8v-.7H110v.7Z" class="g0_8"/>
<path fill-rule="evenodd" d="M791.4 960.1h.8v-.7h-.8v.7Z" class="g0_8"/>
<path fill-rule="evenodd" d="M110.4 960.1h.7v-.7h-.7v.7Z" class="g0_8"/>
<path fill-rule="evenodd" d="M110.4 960.1h.7v-.7h-.7v.7Z" class="g0_8"/>
<path fill-rule="evenodd" d="M111.1 960.1h90.8v-.7H111.1v.7Z" class="g0_8"/>
<path fill-rule="evenodd" d="M201.9 960.1h.7v-.7h-.7v.7Z" class="g0_8"/>
<path fill-rule="evenodd" d="M201.9 960.1h.7v-.7h-.7v.7Z" class="g0_8"/>
<path fill-rule="evenodd" d="M110.4 994.4h.7v-.8h-.7v.8Z" class="g0_8"/>
<path fill-rule="evenodd" d="M110.4 994.4h.7v-.8h-.7v.8Z" class="g0_8"/>
<path fill-rule="evenodd" d="M111.1 994.4h90.8v-.8H111.1v.8Z" class="g0_8"/>
<path fill-rule="evenodd" d="M201.9 994.4h.7v-.8h-.7v.8Z" class="g0_8"/>
<path fill-rule="evenodd" d="M201.9 994.4h.7v-.8h-.7v.8Z" class="g0_8"/>
<path fill-rule="evenodd" d="M110.4 993.6h.7V960.1h-.7v33.5Z" class="g0_8"/>
<path fill-rule="evenodd" d="M201.9 993.6h.7V960.1h-.7v33.5Z" class="g0_8"/>
<path fill-rule="evenodd" d="M110 994.4h.8V960.1H110v34.3Z" class="g0_8"/>
<path fill-rule="evenodd" d="M202.8 960.1h.7v-.7h-.7v.7Z" class="g0_8"/>
<path fill-rule="evenodd" d="M202.8 960.1h.7v-.7h-.7v.7Z" class="g0_8"/>
<path fill-rule="evenodd" d="M203.5 960.1H488.7v-.7H203.5v.7Z" class="g0_8"/>
<path fill-rule="evenodd" d="M488.7 960.1h.7v-.7h-.7v.7Z" class="g0_8"/>
<path fill-rule="evenodd" d="M488.7 960.1h.7v-.7h-.7v.7Z" class="g0_8"/>
<path fill-rule="evenodd" d="M202.8 994.4h.7v-.8h-.7v.8Z" class="g0_8"/>
<path fill-rule="evenodd" d="M202.8 994.4h.7v-.8h-.7v.8Z" class="g0_8"/>
<path fill-rule="evenodd" d="M203.5 994.4H488.7v-.8H203.5v.8Z" class="g0_8"/>
<path fill-rule="evenodd" d="M488.7 994.4h.7v-.8h-.7v.8Z" class="g0_8"/>
<path fill-rule="evenodd" d="M488.7 994.4h.7v-.8h-.7v.8Z" class="g0_8"/>
<path fill-rule="evenodd" d="M202.8 993.6h.7V960.1h-.7v33.5Z" class="g0_8"/>
<path fill-rule="evenodd" d="M488.7 993.6h.7V960.1h-.7v33.5Z" class="g0_8"/>
<path fill-rule="evenodd" d="M489.4 960.1h.8v-.7h-.8v.7Z" class="g0_8"/>
<path fill-rule="evenodd" d="M489.4 960.1h.8v-.7h-.8v.7Z" class="g0_8"/>
<path fill-rule="evenodd" d="M490.2 960.1H791v-.7H490.2v.7Z" class="g0_8"/>
<path fill-rule="evenodd" d="M791.1 960.1h.7v-.7h-.7v.7Z" class="g0_8"/>
<path fill-rule="evenodd" d="M791.1 960.1h.7v-.7h-.7v.7Z" class="g0_8"/>
<path fill-rule="evenodd" d="M489.4 994.4h.8v-.8h-.8v.8Z" class="g0_8"/>
<path fill-rule="evenodd" d="M489.4 994.4h.8v-.8h-.8v.8Z" class="g0_8"/>
<path fill-rule="evenodd" d="M490.2 994.4H791v-.8H490.2v.8Z" class="g0_8"/>
<path fill-rule="evenodd" d="M791.1 994.4h.7v-.8h-.7v.8Z" class="g0_8"/>
<path fill-rule="evenodd" d="M791.1 994.4h.7v-.8h-.7v.8Z" class="g0_8"/>
<path fill-rule="evenodd" d="M489.4 993.6h.8V960.1h-.8v33.5Z" class="g0_8"/>
<path fill-rule="evenodd" d="M791.1 993.6h.7V960.1h-.7v33.5Z" class="g0_8"/>
<path fill-rule="evenodd" d="M791.4 994.4h.8V960.1h-.8v34.3Z" class="g0_8"/>
<path fill-rule="evenodd" d="M110 995.1h.8v-.7H110v.7Z" class="g0_8"/>
<path fill-rule="evenodd" d="M791.4 995.1h.8v-.7h-.8v.7Z" class="g0_8"/>
<path fill-rule="evenodd" d="M110.4 995.1h.7v-.7h-.7v.7Z" class="g0_8"/>
<path fill-rule="evenodd" d="M110.4 995.1h.7v-.7h-.7v.7Z" class="g0_8"/>
<path fill-rule="evenodd" d="M111.1 995.1h90.8v-.7H111.1v.7Z" class="g0_8"/>
<path fill-rule="evenodd" d="M201.9 995.1h.7v-.7h-.7v.7Z" class="g0_8"/>
<path fill-rule="evenodd" d="M201.9 995.1h.7v-.7h-.7v.7Z" class="g0_8"/>
<path fill-rule="evenodd" d="M110.4 1029.6h.7v-.8h-.7v.8Z" class="g0_8"/>
<path fill-rule="evenodd" d="M110.4 1029.6h.7v-.8h-.7v.8Z" class="g0_8"/>
<path fill-rule="evenodd" d="M111.1 1029.6h90.8v-.8H111.1v.8Z" class="g0_8"/>
<path fill-rule="evenodd" d="M201.9 1029.6h.7v-.8h-.7v.8Z" class="g0_8"/>
<path fill-rule="evenodd" d="M201.9 1029.6h.7v-.8h-.7v.8Z" class="g0_8"/>
<path fill-rule="evenodd" d="M110.4 1028.8h.7V995.1h-.7v33.7Z" class="g0_8"/>
<path fill-rule="evenodd" d="M201.9 1028.8h.7V995.1h-.7v33.7Z" class="g0_8"/>
<path fill-rule="evenodd" d="M110 1029.6h.8V995.1H110v34.5Z" class="g0_8"/>
<path fill-rule="evenodd" d="M110 1030.3h.8v-.7H110v.7Z" class="g0_8"/>
<path fill-rule="evenodd" d="M110 1030.3h.8v-.7H110v.7Z" class="g0_8"/>
<path fill-rule="evenodd" d="M110.8 1030.3h91.8v-.7H110.8v.7Z" class="g0_8"/>
<path fill-rule="evenodd" d="M202.8 995.1h.7v-.7h-.7v.7Z" class="g0_8"/>
<path fill-rule="evenodd" d="M202.8 995.1h.7v-.7h-.7v.7Z" class="g0_8"/>
<path fill-rule="evenodd" d="M203.5 995.1H488.7v-.7H203.5v.7Z" class="g0_8"/>
<path fill-rule="evenodd" d="M488.7 995.1h.7v-.7h-.7v.7Z" class="g0_8"/>
<path fill-rule="evenodd" d="M488.7 995.1h.7v-.7h-.7v.7Z" class="g0_8"/>
<path fill-rule="evenodd" d="M202.8 1029.6h.7v-.8h-.7v.8Z" class="g0_8"/>
<path fill-rule="evenodd" d="M202.8 1029.6h.7v-.8h-.7v.8Z" class="g0_8"/>
<path fill-rule="evenodd" d="M203.5 1029.6H488.7v-.8H203.5v.8Z" class="g0_8"/>
<path fill-rule="evenodd" d="M488.7 1029.6h.7v-.8h-.7v.8Z" class="g0_8"/>
<path fill-rule="evenodd" d="M488.7 1029.6h.7v-.8h-.7v.8Z" class="g0_8"/>
<path fill-rule="evenodd" d="M202.8 1028.8h.7V995.1h-.7v33.7Z" class="g0_8"/>
<path fill-rule="evenodd" d="M488.7 1028.8h.7V995.1h-.7v33.7Z" class="g0_8"/>
<path fill-rule="evenodd" d="M202.6 1030.3h.7v-.7h-.7v.7Z" class="g0_8"/>
<path fill-rule="evenodd" d="M203.3 1030.3H489.4v-.7H203.3v.7Z" class="g0_8"/>
<path fill-rule="evenodd" d="M489.4 995.1h.8v-.7h-.8v.7Z" class="g0_8"/>
<path fill-rule="evenodd" d="M489.4 995.1h.8v-.7h-.8v.7Z" class="g0_8"/>
<path fill-rule="evenodd" d="M490.2 995.1H791v-.7H490.2v.7Z" class="g0_8"/>
<path fill-rule="evenodd" d="M791.1 995.1h.7v-.7h-.7v.7Z" class="g0_8"/>
<path fill-rule="evenodd" d="M791.1 995.1h.7v-.7h-.7v.7Z" class="g0_8"/>
<path fill-rule="evenodd" d="M489.4 1029.6h.8v-.8h-.8v.8Z" class="g0_8"/>
<path fill-rule="evenodd" d="M489.4 1029.6h.8v-.8h-.8v.8Z" class="g0_8"/>
<path fill-rule="evenodd" d="M490.2 1029.6H791v-.8H490.2v.8Z" class="g0_8"/>
<path fill-rule="evenodd" d="M791.1 1029.6h.7v-.8h-.7v.8Z" class="g0_8"/>
<path fill-rule="evenodd" d="M791.1 1029.6h.7v-.8h-.7v.8Z" class="g0_8"/>
<path fill-rule="evenodd" d="M489.4 1028.8h.8V995.1h-.8v33.7Z" class="g0_8"/>
<path fill-rule="evenodd" d="M791.1 1028.8h.7V995.1h-.7v33.7Z" class="g0_8"/>
<path fill-rule="evenodd" d="M489.4 1030.3h.8v-.7h-.8v.7Z" class="g0_8"/>
<path fill-rule="evenodd" d="M490.2 1030.3H791.4v-.7H490.2v.7Z" class="g0_8"/>
<path fill-rule="evenodd" d="M791.4 1029.6h.8V995.1h-.8v34.5Z" class="g0_8"/>
<path fill-rule="evenodd" d="M791.4 1030.3h.8v-.7h-.8v.7Z" class="g0_8"/>
<path fill-rule="evenodd" d="M791.4 1030.3h.8v-.7h-.8v.7Z" class="g0_8"/>
</svg>