<?xml version="1.0" encoding="UTF-8" standalone="no"?>
<!DOCTYPE svg PUBLIC "-//W3C//DTD SVG 1.1//EN"
"http://www.w3.org/Graphics/SVG/1.1/DTD/svg11.dtd">
<svg viewBox="0 0 909 1286" version="1.1" xmlns="http://www.w3.org/2000/svg" xmlns:xlink="http://www.w3.org/1999/xlink">
<defs>
<clipPath id="c0_21"><path d="M0 1286.2V0H909.4V1286.2Z"/></clipPath>
<style type="text/css"><![CDATA[
.g0_21{
fill: #808080;
}
.g1_21{
fill: #92B6DE;
}
.g2_21{
fill: #036;
}
.g3_21{
fill: #002952;
}
.g4_21{
fill: #FF0;
}
]]></style>
</defs>
<image clip-path="url(#c0_21)" preserveAspectRatio="none" x="198" y="108" width="514" height="531" xlink:href="img/1.jpg"/>
<path fill-rule="evenodd" d="M147.6 810.8H326.3v55H147.6v-55Z" class="g0_21"/>
<path fill-rule="evenodd" d="M138.4 801.6H317.2v55H138.4v-55Z" class="g1_21"/>
<path fill-rule="evenodd" d="M147.6 962.1H326.3v55H147.6v-55Z" class="g0_21"/>
<path fill-rule="evenodd" d="M138.4 953H317.2v55H138.4V953Z" class="g1_21"/>
<path fill-rule="evenodd" d="M642.7 810.8h110v55h-110v-55Z" class="g0_21"/>
<path fill-rule="evenodd" d="M633.5 801.6h110v55h-110v-55Z" class="g1_21"/>
<path fill-rule="evenodd" d="M642.7 962.1H780.2v55H642.7v-55Z" class="g0_21"/>
<path fill-rule="evenodd" d="M633.5 953H771v55H633.5V953Z" class="g1_21"/>
<path fill-rule="evenodd" d="M335.5 792.4v22c21.9 10.8 36.7 39.9 36.7 72.6v44c0 42.5 -24.7 77 -55 77V964c24.3 0 45.7 -22.4 52.7 -55c-5.1 -23.7 -17.8 -42.4 -34.4 -50.6v22L317.2 832l18.3 -39.6Z" class="g2_21"/>
<path fill-rule="evenodd" d="M372.2 887v44c0 42.5 -24.7 77 -55 77V964c30.3 0 55 -34.5 55 -77Z" class="g3_21"/>
<path fill-rule="evenodd" d="M633.5 801.7v44c-24.4 0 -45.8 22.4 -52.7 55c4.9 23.6 17.8 42.4 34.4 50.6v-22l18.3 48.4l-18.3 39.6v-22c-22 -10.9 -36.7 -40 -36.7 -72.6v-44c0 -42.5 24.6 -77 55 -77Z" class="g2_21"/>
<path fill-rule="evenodd" d="M633.5 801.7v44c-30.4 0 -55 34.5 -55 77.1V878.7c0 -42.5 24.6 -77 55 -77Z" class="g3_21"/>
<path fill-rule="evenodd" d="M496.5 939.2l-1.4 20.3l16.1 -3.3l-6.4 10.9l16.8 3.1l-13.3 9l15.3 10.7l-18.3 -1.3l5.1 19.7L494.5 994.4l-2.9 20.1L481.3 996.2l-7.9 25.5l-2.9 -22.8l-11.3 7.5l3.4 -14l-21.1 2.5l13.7 -10.8L441 972l17.6 -3.8L442.4 947.9l26.5 15.4l3.9 -15.4l9.4 13.5l14.3 -22.2Z" class="g4_21"/>
<path fill-rule="evenodd" d="M441 925.5v11c-14.7 0 -27.7 5.5 -31.9 13.7c3 5.9 10.7 10.5 20.8 12.6v-5.5L441 969.5l-11.1 9.9v-5.6c-13.3 -2.7 -22.1 -9.9 -22.1 -18.1v-11c0 -10.7 14.8 -19.2 33.2 -19.2Z" class="g2_21"/>
<path fill-rule="evenodd" d="M441 925.5v11c-14.7 0 -27.7 5.5 -31.9 13.7c-.9 -1.8 -1.3 -3.7 -1.3 -5.5c0 -10.7 14.8 -19.2 33.2 -19.2Z" class="g3_21"/>
<path fill-rule="evenodd" d="M538.8 919.8v5.5c13.2 2.7 22.1 9.9 22.1 18.1v11c0 10.7 -14.9 19.3 -33.2 19.3v-11c14.7 0 27.6 -5.6 31.8 -13.8c-3 -5.9 -10.7 -10.5 -20.7 -12.6v5.5L527.7 929.7l11.1 -9.9Z" class="g2_21"/>
<path fill-rule="evenodd" d="M559.5 948.9c.9 1.8 1.4 3.6 1.4 5.5c0 10.6 -14.9 19.3 -33.2 19.3v-11c14.7 0 27.6 -5.7 31.8 -13.8Z" class="g3_21"/>
<path fill-rule="evenodd" d="M433 829.1v11c-14.8 0 -27.7 5.6 -31.9 13.8c3 5.9 10.7 10.5 20.8 12.6V861L433 873.1l-11.1 10v-5.6c-13.3 -2.7 -22.2 -10 -22.2 -18.1v-11c0 -10.7 14.9 -19.3 33.3 -19.3Z" class="g2_21"/>
<path fill-rule="evenodd" d="M433 829.1v11c-14.8 0 -27.7 5.6 -31.9 13.8c-.9 -1.9 -1.4 -3.7 -1.4 -5.5c0 -10.7 14.9 -19.3 33.3 -19.3Z" class="g3_21"/>
<path fill-rule="evenodd" d="M540.4 823.9v5.5c13.2 2.7 22.1 10 22.1 18.1v11c0 10.7 -14.9 19.4 -33.2 19.4V866.8c14.7 0 27.7 -5.6 31.8 -13.8c-3 -5.8 -10.7 -10.5 -20.7 -12.6v5.5L529.3 833.8l11.1 -9.9Z" class="g2_21"/>
<path fill-rule="evenodd" d="M561.1 853c.9 1.8 1.4 3.6 1.4 5.5c0 10.7 -14.9 19.3 -33.2 19.3v-11c14.7 0 27.7 -5.7 31.8 -13.8Z" class="g3_21"/>
</svg>