<?xml version="1.0" encoding="UTF-8" standalone="no"?>
<!DOCTYPE svg PUBLIC "-//W3C//DTD SVG 1.1//EN"
"http://www.w3.org/Graphics/SVG/1.1/DTD/svg11.dtd">
<svg viewBox="0 0 935 1210" version="1.1" xmlns="http://www.w3.org/2000/svg" xmlns:xlink="http://www.w3.org/1999/xlink">
<defs>
<style type="text/css"><![CDATA[
.g0_10{
fill: #7E7E7E;
}
]]></style>
</defs>
<path fill-rule="evenodd" d="M110 110.7H219.5V110H110v.7Z" class="g0_10"/>
<path fill-rule="evenodd" d="M219.5 110.7h.7V110h-.7v.7Z" class="g0_10"/>
<path fill-rule="evenodd" d="M220.2 110.7H424.7V110H220.2v.7Z" class="g0_10"/>
<path fill-rule="evenodd" d="M424.7 110.7h.7V110h-.7v.7Z" class="g0_10"/>
<path fill-rule="evenodd" d="M425.4 110.7H648.9V110H425.4v.7Z" class="g0_10"/>
<path fill-rule="evenodd" d="M108.9 380.1H219.5v-.7H108.9v.7Z" class="g0_10"/>
<path fill-rule="evenodd" d="M218.4 380.1h.7v-.7h-.7v.7Z" class="g0_10"/>
<path fill-rule="evenodd" d="M219.1 380.1H424.7v-.7H219.1v.7Z" class="g0_10"/>
<path fill-rule="evenodd" d="M423.6 380.1h.7v-.7h-.7v.7Z" class="g0_10"/>
<path fill-rule="evenodd" d="M424.3 380.1H648.9v-.7H424.3v.7Z" class="g0_10"/>
<path fill-rule="evenodd" d="M110 481.5H253v-.7H110v.7Z" class="g0_10"/>
<path fill-rule="evenodd" d="M253 481.5h.8v-.7H253v.7Z" class="g0_10"/>
<path fill-rule="evenodd" d="M253.8 481.5H356.3v-.7H253.8v.7Z" class="g0_10"/>
<path fill-rule="evenodd" d="M110 516H253v-.8H110v.8Z" class="g0_10"/>
<path fill-rule="evenodd" d="M253 516h.8v-.8H253v.8Z" class="g0_10"/>
<path fill-rule="evenodd" d="M253.8 516H356.3v-.8H253.8v.8Z" class="g0_10"/>
<path fill-rule="evenodd" d="M110 550.3H253v-.8H110v.8Z" class="g0_10"/>
<path fill-rule="evenodd" d="M253 550.3h.8v-.8H253v.8Z" class="g0_10"/>
<path fill-rule="evenodd" d="M253.8 550.3H356.3v-.8H253.8v.8Z" class="g0_10"/>
<path fill-rule="evenodd" d="M110 584.5H253v-.7H110v.7Z" class="g0_10"/>
<path fill-rule="evenodd" d="M253 584.5h.8v-.7H253v.7Z" class="g0_10"/>
<path fill-rule="evenodd" d="M253.8 584.5H356.3v-.7H253.8v.7Z" class="g0_10"/>
<path fill-rule="evenodd" d="M110 619H253v-.7H110v.7Z" class="g0_10"/>
<path fill-rule="evenodd" d="M253 619h.8v-.7H253v.7Z" class="g0_10"/>
<path fill-rule="evenodd" d="M253.8 619H356.3v-.7H253.8v.7Z" class="g0_10"/>
<path fill-rule="evenodd" d="M110 653.3H253v-.7H110v.7Z" class="g0_10"/>
<path fill-rule="evenodd" d="M253 653.3h.8v-.7H253v.7Z" class="g0_10"/>
<path fill-rule="evenodd" d="M253.8 653.3H356.3v-.7H253.8v.7Z" class="g0_10"/>
<path fill-rule="evenodd" d="M110 687.6H253v-.7H110v.7Z" class="g0_10"/>
<path fill-rule="evenodd" d="M253 687.6h.8v-.7H253v.7Z" class="g0_10"/>
<path fill-rule="evenodd" d="M253.8 687.6H356.3v-.7H253.8v.7Z" class="g0_10"/>
<path fill-rule="evenodd" d="M110 721.9H253v-.7H110v.7Z" class="g0_10"/>
<path fill-rule="evenodd" d="M253 721.9h.8v-.7H253v.7Z" class="g0_10"/>
<path fill-rule="evenodd" d="M253.8 721.9H356.3v-.7H253.8v.7Z" class="g0_10"/>
<path fill-rule="evenodd" d="M110 756.4H253v-.8H110v.8Z" class="g0_10"/>
<path fill-rule="evenodd" d="M253 756.4h.8v-.8H253v.8Z" class="g0_10"/>
<path fill-rule="evenodd" d="M253.8 756.4H356.3v-.8H253.8v.8Z" class="g0_10"/>
<path fill-rule="evenodd" d="M110 790.6H253v-.7H110v.7Z" class="g0_10"/>
<path fill-rule="evenodd" d="M253 790.6h.8v-.7H253v.7Z" class="g0_10"/>
<path fill-rule="evenodd" d="M253.8 790.6H356.3v-.7H253.8v.7Z" class="g0_10"/>
<path fill-rule="evenodd" d="M108.9 824.9H253v-.7H108.9v.7Z" class="g0_10"/>
<path fill-rule="evenodd" d="M251.9 824.9h.8v-.7h-.8v.7Z" class="g0_10"/>
<path fill-rule="evenodd" d="M252.7 824.9H356.3v-.7H252.7v.7Z" class="g0_10"/>
<path fill-rule="evenodd" d="M110 960.1H219.5v-.7H110v.7Z" class="g0_10"/>
<path fill-rule="evenodd" d="M219.5 960.1h.7v-.7h-.7v.7Z" class="g0_10"/>
<path fill-rule="evenodd" d="M220.2 960.1H424.7v-.7H220.2v.7Z" class="g0_10"/>
<path fill-rule="evenodd" d="M424.7 960.1h.7v-.7h-.7v.7Z" class="g0_10"/>
<path fill-rule="evenodd" d="M425.4 960.1H648.9v-.7H425.4v.7Z" class="g0_10"/>
<path fill-rule="evenodd" d="M110 994.4H219.5v-.8H110v.8Z" class="g0_10"/>
<path fill-rule="evenodd" d="M219.5 994.4h.7v-.8h-.7v.8Z" class="g0_10"/>
<path fill-rule="evenodd" d="M220.2 994.4H424.7v-.8H220.2v.8Z" class="g0_10"/>
<path fill-rule="evenodd" d="M424.7 994.4h.7v-.8h-.7v.8Z" class="g0_10"/>
<path fill-rule="evenodd" d="M425.4 994.4H648.9v-.8H425.4v.8Z" class="g0_10"/>
<path fill-rule="evenodd" d="M108.9 1095.9H219.5v-.7H108.9v.7Z" class="g0_10"/>
<path fill-rule="evenodd" d="M218.4 1095.9h.7v-.7h-.7v.7Z" class="g0_10"/>
<path fill-rule="evenodd" d="M219.1 1095.9H424.7v-.7H219.1v.7Z" class="g0_10"/>
<path fill-rule="evenodd" d="M423.6 1095.9h.7v-.7h-.7v.7Z" class="g0_10"/>
<path fill-rule="evenodd" d="M424.3 1095.9H648.9v-.7H424.3v.7Z" class="g0_10"/>
</svg>