<?xml version="1.0" encoding="UTF-8" standalone="no"?>
<!DOCTYPE svg PUBLIC "-//W3C//DTD SVG 1.1//EN"
"http://www.w3.org/Graphics/SVG/1.1/DTD/svg11.dtd">
<svg viewBox="0 0 935 1210" version="1.1" xmlns="http://www.w3.org/2000/svg" xmlns:xlink="http://www.w3.org/1999/xlink">
<defs>
<style type="text/css"><![CDATA[
.g0_2{
fill: #000;
}
]]></style>
</defs>
<path fill-rule="evenodd" d="M110 111.5h.8V110H110v1.5Z" class="g0_2"/>
<path fill-rule="evenodd" d="M110 110.7h.8V110H110v.7Z" class="g0_2"/>
<path fill-rule="evenodd" d="M110.8 110.7h91.5V110H110.8v.7Z" class="g0_2"/>
<path fill-rule="evenodd" d="M202.2 110.7h.8V110h-.8v.7Z" class="g0_2"/>
<path fill-rule="evenodd" d="M203 110.7H331.7V110H203v.7Z" class="g0_2"/>
<path fill-rule="evenodd" d="M331.7 110.7h.8V110h-.8v.7Z" class="g0_2"/>
<path fill-rule="evenodd" d="M332.5 110.7H716.3V110H332.5v.7Z" class="g0_2"/>
<path fill-rule="evenodd" d="M716.3 111.5h.7V110h-.7v1.5Z" class="g0_2"/>
<path fill-rule="evenodd" d="M716.3 110.7h.7V110h-.7v.7Z" class="g0_2"/>
<path fill-rule="evenodd" d="M110.4 111.5h.7v-.8h-.7v.8Z" class="g0_2"/>
<path fill-rule="evenodd" d="M110.4 111.5h.7v-.8h-.7v.8Z" class="g0_2"/>
<path fill-rule="evenodd" d="M111.1 111.5h90.4v-.8H111.1v.8Z" class="g0_2"/>
<path fill-rule="evenodd" d="M201.5 111.5h.7v-.8h-.7v.8Z" class="g0_2"/>
<path fill-rule="evenodd" d="M201.5 111.5h.7v-.8h-.7v.8Z" class="g0_2"/>
<path fill-rule="evenodd" d="M110.4 146h.7v-.8h-.7v.8Z" class="g0_2"/>
<path fill-rule="evenodd" d="M110.4 146h.7v-.8h-.7v.8Z" class="g0_2"/>
<path fill-rule="evenodd" d="M111.1 146h90.4v-.8H111.1v.8Z" class="g0_2"/>
<path fill-rule="evenodd" d="M201.5 146h.7v-.8h-.7v.8Z" class="g0_2"/>
<path fill-rule="evenodd" d="M201.5 146h.7v-.8h-.7v.8Z" class="g0_2"/>
<path fill-rule="evenodd" d="M110.4 145.2h.7V111.5h-.7v33.7Z" class="g0_2"/>
<path fill-rule="evenodd" d="M201.5 145.2h.7V111.5h-.7v33.7Z" class="g0_2"/>
<path fill-rule="evenodd" d="M110 146h.8V111.5H110V146Z" class="g0_2"/>
<path fill-rule="evenodd" d="M202.4 111.5h.8v-.8h-.8v.8Z" class="g0_2"/>
<path fill-rule="evenodd" d="M202.4 111.5h.8v-.8h-.8v.8Z" class="g0_2"/>
<path fill-rule="evenodd" d="M203.2 111.5H331v-.8H203.2v.8Z" class="g0_2"/>
<path fill-rule="evenodd" d="M331 111.5h.7v-.8H331v.8Z" class="g0_2"/>
<path fill-rule="evenodd" d="M331 111.5h.7v-.8H331v.8Z" class="g0_2"/>
<path fill-rule="evenodd" d="M202.4 146h.8v-.8h-.8v.8Z" class="g0_2"/>
<path fill-rule="evenodd" d="M202.4 146h.8v-.8h-.8v.8Z" class="g0_2"/>
<path fill-rule="evenodd" d="M203.2 146H331v-.8H203.2v.8Z" class="g0_2"/>
<path fill-rule="evenodd" d="M331 146h.7v-.8H331v.8Z" class="g0_2"/>
<path fill-rule="evenodd" d="M331 146h.7v-.8H331v.8Z" class="g0_2"/>
<path fill-rule="evenodd" d="M202.4 145.2h.8V111.5h-.8v33.7Z" class="g0_2"/>
<path fill-rule="evenodd" d="M331 145.2h.7V111.5H331v33.7Z" class="g0_2"/>
<path fill-rule="evenodd" d="M331.7 111.5h.8v-.8h-.8v.8Z" class="g0_2"/>
<path fill-rule="evenodd" d="M331.7 111.5h.8v-.8h-.8v.8Z" class="g0_2"/>
<path fill-rule="evenodd" d="M332.5 111.5H715.7v-.8H332.5v.8Z" class="g0_2"/>
<path fill-rule="evenodd" d="M715.7 111.5h.7v-.8h-.7v.8Z" class="g0_2"/>
<path fill-rule="evenodd" d="M715.7 111.5h.7v-.8h-.7v.8Z" class="g0_2"/>
<path fill-rule="evenodd" d="M331.7 146h.8v-.8h-.8v.8Z" class="g0_2"/>
<path fill-rule="evenodd" d="M331.7 146h.8v-.8h-.8v.8Z" class="g0_2"/>
<path fill-rule="evenodd" d="M332.5 146H715.7v-.8H332.5v.8Z" class="g0_2"/>
<path fill-rule="evenodd" d="M715.7 146h.7v-.8h-.7v.8Z" class="g0_2"/>
<path fill-rule="evenodd" d="M715.7 146h.7v-.8h-.7v.8Z" class="g0_2"/>
<path fill-rule="evenodd" d="M331.7 145.2h.8V111.5h-.8v33.7Z" class="g0_2"/>
<path fill-rule="evenodd" d="M715.7 145.2h.7V111.5h-.7v33.7Z" class="g0_2"/>
<path fill-rule="evenodd" d="M716.3 146h.7V111.5h-.7V146Z" class="g0_2"/>
<path fill-rule="evenodd" d="M110 146.7h.8V146H110v.7Z" class="g0_2"/>
<path fill-rule="evenodd" d="M716.3 146.7h.7V146h-.7v.7Z" class="g0_2"/>
<path fill-rule="evenodd" d="M110.4 146.7h.7V146h-.7v.7Z" class="g0_2"/>
<path fill-rule="evenodd" d="M110.4 146.7h.7V146h-.7v.7Z" class="g0_2"/>
<path fill-rule="evenodd" d="M111.1 146.7h90.4V146H111.1v.7Z" class="g0_2"/>
<path fill-rule="evenodd" d="M201.5 146.7h.7V146h-.7v.7Z" class="g0_2"/>
<path fill-rule="evenodd" d="M201.5 146.7h.7V146h-.7v.7Z" class="g0_2"/>
<path fill-rule="evenodd" d="M110.4 214.5h.7v-.7h-.7v.7Z" class="g0_2"/>
<path fill-rule="evenodd" d="M110.4 214.5h.7v-.7h-.7v.7Z" class="g0_2"/>
<path fill-rule="evenodd" d="M111.1 214.5h90.4v-.7H111.1v.7Z" class="g0_2"/>
<path fill-rule="evenodd" d="M201.5 214.5h.7v-.7h-.7v.7Z" class="g0_2"/>
<path fill-rule="evenodd" d="M201.5 214.5h.7v-.7h-.7v.7Z" class="g0_2"/>
<path fill-rule="evenodd" d="M110.4 213.8h.7V146.7h-.7v67.1Z" class="g0_2"/>
<path fill-rule="evenodd" d="M201.5 213.8h.7V146.7h-.7v67.1Z" class="g0_2"/>
<path fill-rule="evenodd" d="M110 214.5h.8V146.7H110v67.8Z" class="g0_2"/>
<path fill-rule="evenodd" d="M202.4 146.7h.8V146h-.8v.7Z" class="g0_2"/>
<path fill-rule="evenodd" d="M202.4 146.7h.8V146h-.8v.7Z" class="g0_2"/>
<path fill-rule="evenodd" d="M203.2 146.7H331V146H203.2v.7Z" class="g0_2"/>
<path fill-rule="evenodd" d="M331 146.7h.7V146H331v.7Z" class="g0_2"/>
<path fill-rule="evenodd" d="M331 146.7h.7V146H331v.7Z" class="g0_2"/>
<path fill-rule="evenodd" d="M202.4 214.5h.8v-.7h-.8v.7Z" class="g0_2"/>
<path fill-rule="evenodd" d="M202.4 214.5h.8v-.7h-.8v.7Z" class="g0_2"/>
<path fill-rule="evenodd" d="M203.2 214.5H331v-.7H203.2v.7Z" class="g0_2"/>
<path fill-rule="evenodd" d="M331 214.5h.7v-.7H331v.7Z" class="g0_2"/>
<path fill-rule="evenodd" d="M331 214.5h.7v-.7H331v.7Z" class="g0_2"/>
<path fill-rule="evenodd" d="M202.4 213.8h.8V146.7h-.8v67.1Z" class="g0_2"/>
<path fill-rule="evenodd" d="M331 213.8h.7V146.7H331v67.1Z" class="g0_2"/>
<path fill-rule="evenodd" d="M331.7 146.7h.8V146h-.8v.7Z" class="g0_2"/>
<path fill-rule="evenodd" d="M331.7 146.7h.8V146h-.8v.7Z" class="g0_2"/>
<path fill-rule="evenodd" d="M332.5 146.7H715.7V146H332.5v.7Z" class="g0_2"/>
<path fill-rule="evenodd" d="M715.7 146.7h.7V146h-.7v.7Z" class="g0_2"/>
<path fill-rule="evenodd" d="M715.7 146.7h.7V146h-.7v.7Z" class="g0_2"/>
<path fill-rule="evenodd" d="M331.7 214.5h.8v-.7h-.8v.7Z" class="g0_2"/>
<path fill-rule="evenodd" d="M331.7 214.5h.8v-.7h-.8v.7Z" class="g0_2"/>
<path fill-rule="evenodd" d="M332.5 214.5H715.7v-.7H332.5v.7Z" class="g0_2"/>
<path fill-rule="evenodd" d="M715.7 214.5h.7v-.7h-.7v.7Z" class="g0_2"/>
<path fill-rule="evenodd" d="M715.7 214.5h.7v-.7h-.7v.7Z" class="g0_2"/>
<path fill-rule="evenodd" d="M331.7 213.8h.8V146.7h-.8v67.1Z" class="g0_2"/>
<path fill-rule="evenodd" d="M715.7 213.8h.7V146.7h-.7v67.1Z" class="g0_2"/>
<path fill-rule="evenodd" d="M716.3 214.5h.7V146.7h-.7v67.8Z" class="g0_2"/>
<path fill-rule="evenodd" d="M110 215.3h.8v-.8H110v.8Z" class="g0_2"/>
<path fill-rule="evenodd" d="M716.3 215.3h.7v-.8h-.7v.8Z" class="g0_2"/>
<path fill-rule="evenodd" d="M110.4 215.3h.7v-.8h-.7v.8Z" class="g0_2"/>
<path fill-rule="evenodd" d="M110.4 215.3h.7v-.8h-.7v.8Z" class="g0_2"/>
<path fill-rule="evenodd" d="M111.1 215.3h90.4v-.8H111.1v.8Z" class="g0_2"/>
<path fill-rule="evenodd" d="M201.5 215.3h.7v-.8h-.7v.8Z" class="g0_2"/>
<path fill-rule="evenodd" d="M201.5 215.3h.7v-.8h-.7v.8Z" class="g0_2"/>
<path fill-rule="evenodd" d="M110.4 316.8h.7v-.7h-.7v.7Z" class="g0_2"/>
<path fill-rule="evenodd" d="M110.4 316.8h.7v-.7h-.7v.7Z" class="g0_2"/>
<path fill-rule="evenodd" d="M111.1 316.8h90.4v-.7H111.1v.7Z" class="g0_2"/>
<path fill-rule="evenodd" d="M201.5 316.8h.7v-.7h-.7v.7Z" class="g0_2"/>
<path fill-rule="evenodd" d="M201.5 316.8h.7v-.7h-.7v.7Z" class="g0_2"/>
<path fill-rule="evenodd" d="M110.4 316.1h.7V215.3h-.7V316.1Z" class="g0_2"/>
<path fill-rule="evenodd" d="M201.5 316.1h.7V215.3h-.7V316.1Z" class="g0_2"/>
<path fill-rule="evenodd" d="M110 316.8h.8V215.3H110V316.8Z" class="g0_2"/>
<path fill-rule="evenodd" d="M110 317.6h.8v-.8H110v.8Z" class="g0_2"/>
<path fill-rule="evenodd" d="M110 317.6h.8v-.8H110v.8Z" class="g0_2"/>
<path fill-rule="evenodd" d="M110.8 317.6h91.5v-.8H110.8v.8Z" class="g0_2"/>
<path fill-rule="evenodd" d="M202.4 215.3h.8v-.8h-.8v.8Z" class="g0_2"/>
<path fill-rule="evenodd" d="M202.4 215.3h.8v-.8h-.8v.8Z" class="g0_2"/>
<path fill-rule="evenodd" d="M203.2 215.3H331v-.8H203.2v.8Z" class="g0_2"/>
<path fill-rule="evenodd" d="M331 215.3h.7v-.8H331v.8Z" class="g0_2"/>
<path fill-rule="evenodd" d="M331 215.3h.7v-.8H331v.8Z" class="g0_2"/>
<path fill-rule="evenodd" d="M202.4 316.8h.8v-.7h-.8v.7Z" class="g0_2"/>
<path fill-rule="evenodd" d="M202.4 316.8h.8v-.7h-.8v.7Z" class="g0_2"/>
<path fill-rule="evenodd" d="M203.2 316.8H331v-.7H203.2v.7Z" class="g0_2"/>
<path fill-rule="evenodd" d="M331 316.8h.7v-.7H331v.7Z" class="g0_2"/>
<path fill-rule="evenodd" d="M331 316.8h.7v-.7H331v.7Z" class="g0_2"/>
<path fill-rule="evenodd" d="M202.4 316.1h.8V215.3h-.8V316.1Z" class="g0_2"/>
<path fill-rule="evenodd" d="M331 316.1h.7V215.3H331V316.1Z" class="g0_2"/>
<path fill-rule="evenodd" d="M202.2 317.6h.8v-.8h-.8v.8Z" class="g0_2"/>
<path fill-rule="evenodd" d="M203 317.6H331.7v-.8H203v.8Z" class="g0_2"/>
<path fill-rule="evenodd" d="M331.7 215.3h.8v-.8h-.8v.8Z" class="g0_2"/>
<path fill-rule="evenodd" d="M331.7 215.3h.8v-.8h-.8v.8Z" class="g0_2"/>
<path fill-rule="evenodd" d="M332.5 215.3H715.7v-.8H332.5v.8Z" class="g0_2"/>
<path fill-rule="evenodd" d="M715.7 215.3h.7v-.8h-.7v.8Z" class="g0_2"/>
<path fill-rule="evenodd" d="M715.7 215.3h.7v-.8h-.7v.8Z" class="g0_2"/>
<path fill-rule="evenodd" d="M331.7 316.8h.8v-.7h-.8v.7Z" class="g0_2"/>
<path fill-rule="evenodd" d="M331.7 316.8h.8v-.7h-.8v.7Z" class="g0_2"/>
<path fill-rule="evenodd" d="M332.5 316.8H715.7v-.7H332.5v.7Z" class="g0_2"/>
<path fill-rule="evenodd" d="M715.7 316.8h.7v-.7h-.7v.7Z" class="g0_2"/>
<path fill-rule="evenodd" d="M715.7 316.8h.7v-.7h-.7v.7Z" class="g0_2"/>
<path fill-rule="evenodd" d="M331.7 316.1h.8V215.3h-.8V316.1Z" class="g0_2"/>
<path fill-rule="evenodd" d="M715.7 316.1h.7V215.3h-.7V316.1Z" class="g0_2"/>
<path fill-rule="evenodd" d="M331.7 317.6h.8v-.8h-.8v.8Z" class="g0_2"/>
<path fill-rule="evenodd" d="M332.5 317.6H716.3v-.8H332.5v.8Z" class="g0_2"/>
<path fill-rule="evenodd" d="M716.3 316.8h.7V215.3h-.7V316.8Z" class="g0_2"/>
<path fill-rule="evenodd" d="M716.3 317.6h.7v-.8h-.7v.8Z" class="g0_2"/>
<path fill-rule="evenodd" d="M716.3 317.6h.7v-.8h-.7v.8Z" class="g0_2"/>
<path fill-rule="evenodd" d="M110 688.3h.8v-1.4H110v1.4Z" class="g0_2"/>
<path fill-rule="evenodd" d="M110 687.6h.8v-.7H110v.7Z" class="g0_2"/>
<path fill-rule="evenodd" d="M110.8 687.6h66.9v-.7H110.8v.7Z" class="g0_2"/>
<path fill-rule="evenodd" d="M177.7 688.3h.7v-1.4h-.7v1.4Z" class="g0_2"/>
<path fill-rule="evenodd" d="M177.7 687.6h.7v-.7h-.7v.7Z" class="g0_2"/>
<path fill-rule="evenodd" d="M110.6 688.3h.7v-.7h-.7v.7Z" class="g0_2"/>
<path fill-rule="evenodd" d="M110.6 688.3h.7v-.7h-.7v.7Z" class="g0_2"/>
<path fill-rule="evenodd" d="M111.3 688.3h65.8v-.7H111.3v.7Z" class="g0_2"/>
<path fill-rule="evenodd" d="M177.1 688.3h.8v-.7h-.8v.7Z" class="g0_2"/>
<path fill-rule="evenodd" d="M177.1 688.3h.8v-.7h-.8v.7Z" class="g0_2"/>
<path fill-rule="evenodd" d="M110.6 722.8h.7v-.7h-.7v.7Z" class="g0_2"/>
<path fill-rule="evenodd" d="M110.6 722.8h.7v-.7h-.7v.7Z" class="g0_2"/>
<path fill-rule="evenodd" d="M111.3 722.8h65.8v-.7H111.3v.7Z" class="g0_2"/>
<path fill-rule="evenodd" d="M177.1 722.8h.8v-.7h-.8v.7Z" class="g0_2"/>
<path fill-rule="evenodd" d="M177.1 722.8h.8v-.7h-.8v.7Z" class="g0_2"/>
<path fill-rule="evenodd" d="M110.6 722.1h.7V688.3h-.7v33.8Z" class="g0_2"/>
<path fill-rule="evenodd" d="M177.1 722.1h.8V688.3h-.8v33.8Z" class="g0_2"/>
<path fill-rule="evenodd" d="M110 722.8h.8V688.3H110v34.5Z" class="g0_2"/>
<path fill-rule="evenodd" d="M177.7 722.8h.7V688.3h-.7v34.5Z" class="g0_2"/>
<path fill-rule="evenodd" d="M110 723.5h.8v-.7H110v.7Z" class="g0_2"/>
<path fill-rule="evenodd" d="M110.4 723.5h.7v-.7h-.7v.7Z" class="g0_2"/>
<path fill-rule="evenodd" d="M110.4 723.5h.7v-.7h-.7v.7Z" class="g0_2"/>
<path fill-rule="evenodd" d="M111.1 723.5h66.2v-.7H111.1v.7Z" class="g0_2"/>
<path fill-rule="evenodd" d="M177.3 723.5h.7v-.7h-.7v.7Z" class="g0_2"/>
<path fill-rule="evenodd" d="M177.3 723.5h.7v-.7h-.7v.7Z" class="g0_2"/>
<path fill-rule="evenodd" d="M110.4 791.4h.7v-.8h-.7v.8Z" class="g0_2"/>
<path fill-rule="evenodd" d="M110.4 791.4h.7v-.8h-.7v.8Z" class="g0_2"/>
<path fill-rule="evenodd" d="M111.1 791.4h66.2v-.8H111.1v.8Z" class="g0_2"/>
<path fill-rule="evenodd" d="M177.3 791.4h.7v-.8h-.7v.8Z" class="g0_2"/>
<path fill-rule="evenodd" d="M177.3 791.4h.7v-.8h-.7v.8Z" class="g0_2"/>
<path fill-rule="evenodd" d="M110.4 790.6h.7V723.5h-.7v67.1Z" class="g0_2"/>
<path fill-rule="evenodd" d="M177.3 790.6h.7V723.5h-.7v67.1Z" class="g0_2"/>
<path fill-rule="evenodd" d="M110 791.4h.8V723.5H110v67.9Z" class="g0_2"/>
<path fill-rule="evenodd" d="M178 723.5h.8v-.7H178v.7Z" class="g0_2"/>
<path fill-rule="evenodd" d="M178 723.5h.8v-.7H178v.7Z" class="g0_2"/>
<path fill-rule="evenodd" d="M178.8 723.5H313.4v-.7H178.8v.7Z" class="g0_2"/>
<path fill-rule="evenodd" d="M313.4 723.5h.7v-.7h-.7v.7Z" class="g0_2"/>
<path fill-rule="evenodd" d="M313.4 723.5h.7v-.7h-.7v.7Z" class="g0_2"/>
<path fill-rule="evenodd" d="M178 791.4h.8v-.8H178v.8Z" class="g0_2"/>
<path fill-rule="evenodd" d="M178 791.4h.8v-.8H178v.8Z" class="g0_2"/>
<path fill-rule="evenodd" d="M178.8 791.4H313.4v-.8H178.8v.8Z" class="g0_2"/>
<path fill-rule="evenodd" d="M313.4 791.4h.7v-.8h-.7v.8Z" class="g0_2"/>
<path fill-rule="evenodd" d="M313.4 791.4h.7v-.8h-.7v.8Z" class="g0_2"/>
<path fill-rule="evenodd" d="M178 790.6h.8V723.5H178v67.1Z" class="g0_2"/>
<path fill-rule="evenodd" d="M313.4 790.6h.7V723.5h-.7v67.1Z" class="g0_2"/>
<path fill-rule="evenodd" d="M314.1 723.5h.8v-.7h-.8v.7Z" class="g0_2"/>
<path fill-rule="evenodd" d="M314.1 723.5h.8v-.7h-.8v.7Z" class="g0_2"/>
<path fill-rule="evenodd" d="M314.9 723.5H638.5v-.7H314.9v.7Z" class="g0_2"/>
<path fill-rule="evenodd" d="M638.5 723.5h.7v-.7h-.7v.7Z" class="g0_2"/>
<path fill-rule="evenodd" d="M638.5 723.5h.7v-.7h-.7v.7Z" class="g0_2"/>
<path fill-rule="evenodd" d="M314.1 791.4h.8v-.8h-.8v.8Z" class="g0_2"/>
<path fill-rule="evenodd" d="M314.1 791.4h.8v-.8h-.8v.8Z" class="g0_2"/>
<path fill-rule="evenodd" d="M314.9 791.4H638.5v-.8H314.9v.8Z" class="g0_2"/>
<path fill-rule="evenodd" d="M638.5 791.4h.7v-.8h-.7v.8Z" class="g0_2"/>
<path fill-rule="evenodd" d="M638.5 791.4h.7v-.8h-.7v.8Z" class="g0_2"/>
<path fill-rule="evenodd" d="M314.1 790.6h.8V723.5h-.8v67.1Z" class="g0_2"/>
<path fill-rule="evenodd" d="M638.5 790.6h.7V723.5h-.7v67.1Z" class="g0_2"/>
<path fill-rule="evenodd" d="M638.8 791.4h.8V723.5h-.8v67.9Z" class="g0_2"/>
<path fill-rule="evenodd" d="M110 792.1h.8v-.7H110v.7Z" class="g0_2"/>
<path fill-rule="evenodd" d="M638.8 792.1h.8v-.7h-.8v.7Z" class="g0_2"/>
<path fill-rule="evenodd" d="M110.4 792.1h.7v-.7h-.7v.7Z" class="g0_2"/>
<path fill-rule="evenodd" d="M110.4 792.1h.7v-.7h-.7v.7Z" class="g0_2"/>
<path fill-rule="evenodd" d="M111.1 792.1h66.2v-.7H111.1v.7Z" class="g0_2"/>
<path fill-rule="evenodd" d="M177.3 792.1h.7v-.7h-.7v.7Z" class="g0_2"/>
<path fill-rule="evenodd" d="M177.3 792.1h.7v-.7h-.7v.7Z" class="g0_2"/>
<path fill-rule="evenodd" d="M110.4 860.1h.7v-.7h-.7v.7Z" class="g0_2"/>
<path fill-rule="evenodd" d="M110.4 860.1h.7v-.7h-.7v.7Z" class="g0_2"/>
<path fill-rule="evenodd" d="M111.1 860.1h66.2v-.7H111.1v.7Z" class="g0_2"/>
<path fill-rule="evenodd" d="M177.3 860.1h.7v-.7h-.7v.7Z" class="g0_2"/>
<path fill-rule="evenodd" d="M177.3 860.1h.7v-.7h-.7v.7Z" class="g0_2"/>
<path fill-rule="evenodd" d="M110.4 859.4h.7V792.1h-.7v67.3Z" class="g0_2"/>
<path fill-rule="evenodd" d="M177.3 859.4h.7V792.1h-.7v67.3Z" class="g0_2"/>
<path fill-rule="evenodd" d="M110 860.1h.8v-68H110v68Z" class="g0_2"/>
<path fill-rule="evenodd" d="M110 860.9h.8v-.8H110v.8Z" class="g0_2"/>
<path fill-rule="evenodd" d="M110 860.9h.8v-.8H110v.8Z" class="g0_2"/>
<path fill-rule="evenodd" d="M110.8 860.9h67.3v-.8H110.8v.8Z" class="g0_2"/>
<path fill-rule="evenodd" d="M178 792.1h.8v-.7H178v.7Z" class="g0_2"/>
<path fill-rule="evenodd" d="M178 792.1h.8v-.7H178v.7Z" class="g0_2"/>
<path fill-rule="evenodd" d="M178.8 792.1H313.4v-.7H178.8v.7Z" class="g0_2"/>
<path fill-rule="evenodd" d="M313.4 792.1h.7v-.7h-.7v.7Z" class="g0_2"/>
<path fill-rule="evenodd" d="M313.4 792.1h.7v-.7h-.7v.7Z" class="g0_2"/>
<path fill-rule="evenodd" d="M178 860.1h.8v-.7H178v.7Z" class="g0_2"/>
<path fill-rule="evenodd" d="M178 860.1h.8v-.7H178v.7Z" class="g0_2"/>
<path fill-rule="evenodd" d="M178.8 860.1H313.4v-.7H178.8v.7Z" class="g0_2"/>
<path fill-rule="evenodd" d="M313.4 860.1h.7v-.7h-.7v.7Z" class="g0_2"/>
<path fill-rule="evenodd" d="M313.4 860.1h.7v-.7h-.7v.7Z" class="g0_2"/>
<path fill-rule="evenodd" d="M178 859.4h.8V792.1H178v67.3Z" class="g0_2"/>
<path fill-rule="evenodd" d="M313.4 859.4h.7V792.1h-.7v67.3Z" class="g0_2"/>
<path fill-rule="evenodd" d="M178 860.9h.8v-.8H178v.8Z" class="g0_2"/>
<path fill-rule="evenodd" d="M178.8 860.9H314.1v-.8H178.8v.8Z" class="g0_2"/>
<path fill-rule="evenodd" d="M314.1 792.1h.8v-.7h-.8v.7Z" class="g0_2"/>
<path fill-rule="evenodd" d="M314.1 792.1h.8v-.7h-.8v.7Z" class="g0_2"/>
<path fill-rule="evenodd" d="M314.9 792.1H638.5v-.7H314.9v.7Z" class="g0_2"/>
<path fill-rule="evenodd" d="M638.5 792.1h.7v-.7h-.7v.7Z" class="g0_2"/>
<path fill-rule="evenodd" d="M638.5 792.1h.7v-.7h-.7v.7Z" class="g0_2"/>
<path fill-rule="evenodd" d="M314.1 860.1h.8v-.7h-.8v.7Z" class="g0_2"/>
<path fill-rule="evenodd" d="M314.1 860.1h.8v-.7h-.8v.7Z" class="g0_2"/>
<path fill-rule="evenodd" d="M314.9 860.1H638.5v-.7H314.9v.7Z" class="g0_2"/>
<path fill-rule="evenodd" d="M638.5 860.1h.7v-.7h-.7v.7Z" class="g0_2"/>
<path fill-rule="evenodd" d="M638.5 860.1h.7v-.7h-.7v.7Z" class="g0_2"/>
<path fill-rule="evenodd" d="M314.1 859.4h.8V792.1h-.8v67.3Z" class="g0_2"/>
<path fill-rule="evenodd" d="M638.5 859.4h.7V792.1h-.7v67.3Z" class="g0_2"/>
<path fill-rule="evenodd" d="M314.1 860.9h.8v-.8h-.8v.8Z" class="g0_2"/>
<path fill-rule="evenodd" d="M314.9 860.9H638.8v-.8H314.9v.8Z" class="g0_2"/>
<path fill-rule="evenodd" d="M638.8 860.1h.8v-68h-.8v68Z" class="g0_2"/>
<path fill-rule="evenodd" d="M638.8 860.9h.8v-.8h-.8v.8Z" class="g0_2"/>
<path fill-rule="evenodd" d="M638.8 860.9h.8v-.8h-.8v.8Z" class="g0_2"/>
</svg>