<?xml version="1.0" encoding="UTF-8" standalone="no"?>
<!DOCTYPE svg PUBLIC "-//W3C//DTD SVG 1.1//EN"
"http://www.w3.org/Graphics/SVG/1.1/DTD/svg11.dtd">
<svg viewBox="0 0 935 1210" version="1.1" xmlns="http://www.w3.org/2000/svg" xmlns:xlink="http://www.w3.org/1999/xlink">
<defs>
<style type="text/css"><![CDATA[
.g0_11{
fill: #7E7E7E;
}
]]></style>
</defs>
<path fill-rule="evenodd" d="M110 110.7H219.5V110H110v.7Z" class="g0_11"/>
<path fill-rule="evenodd" d="M219.5 110.7h.7V110h-.7v.7Z" class="g0_11"/>
<path fill-rule="evenodd" d="M220.2 110.7H424.7V110H220.2v.7Z" class="g0_11"/>
<path fill-rule="evenodd" d="M424.7 110.7h.7V110h-.7v.7Z" class="g0_11"/>
<path fill-rule="evenodd" d="M425.4 110.7H648.9V110H425.4v.7Z" class="g0_11"/>
<path fill-rule="evenodd" d="M108.9 279.4H219.5v-.7H108.9v.7Z" class="g0_11"/>
<path fill-rule="evenodd" d="M218.4 279.4h.7v-.7h-.7v.7Z" class="g0_11"/>
<path fill-rule="evenodd" d="M219.1 279.4H424.7v-.7H219.1v.7Z" class="g0_11"/>
<path fill-rule="evenodd" d="M423.6 279.4h.7v-.7h-.7v.7Z" class="g0_11"/>
<path fill-rule="evenodd" d="M424.3 279.4H648.9v-.7H424.3v.7Z" class="g0_11"/>
<path fill-rule="evenodd" d="M110 380.9H253v-.8H110v.8Z" class="g0_11"/>
<path fill-rule="evenodd" d="M253 380.9h.8v-.8H253v.8Z" class="g0_11"/>
<path fill-rule="evenodd" d="M253.8 380.9H356.1v-.8H253.8v.8Z" class="g0_11"/>
<path fill-rule="evenodd" d="M110 415.1H253v-.7H110v.7Z" class="g0_11"/>
<path fill-rule="evenodd" d="M253 415.1h.8v-.7H253v.7Z" class="g0_11"/>
<path fill-rule="evenodd" d="M253.8 415.1H356.1v-.7H253.8v.7Z" class="g0_11"/>
<path fill-rule="evenodd" d="M110 449.6H253v-.7H110v.7Z" class="g0_11"/>
<path fill-rule="evenodd" d="M253 449.6h.8v-.7H253v.7Z" class="g0_11"/>
<path fill-rule="evenodd" d="M253.8 449.6H356.1v-.7H253.8v.7Z" class="g0_11"/>
<path fill-rule="evenodd" d="M110 483.9H253v-.7H110v.7Z" class="g0_11"/>
<path fill-rule="evenodd" d="M253 483.9h.8v-.7H253v.7Z" class="g0_11"/>
<path fill-rule="evenodd" d="M253.8 483.9H356.1v-.7H253.8v.7Z" class="g0_11"/>
<path fill-rule="evenodd" d="M110 518.2H253v-.8H110v.8Z" class="g0_11"/>
<path fill-rule="evenodd" d="M253 518.2h.8v-.8H253v.8Z" class="g0_11"/>
<path fill-rule="evenodd" d="M253.8 518.2H356.1v-.8H253.8v.8Z" class="g0_11"/>
<path fill-rule="evenodd" d="M110 552.6H253v-.7H110v.7Z" class="g0_11"/>
<path fill-rule="evenodd" d="M253 552.6h.8v-.7H253v.7Z" class="g0_11"/>
<path fill-rule="evenodd" d="M253.8 552.6H356.1v-.7H253.8v.7Z" class="g0_11"/>
<path fill-rule="evenodd" d="M110 586.9H253v-.7H110v.7Z" class="g0_11"/>
<path fill-rule="evenodd" d="M253 586.9h.8v-.7H253v.7Z" class="g0_11"/>
<path fill-rule="evenodd" d="M253.8 586.9H356.1v-.7H253.8v.7Z" class="g0_11"/>
<path fill-rule="evenodd" d="M110 621.2H253v-.7H110v.7Z" class="g0_11"/>
<path fill-rule="evenodd" d="M253 621.2h.8v-.7H253v.7Z" class="g0_11"/>
<path fill-rule="evenodd" d="M253.8 621.2H356.1v-.7H253.8v.7Z" class="g0_11"/>
<path fill-rule="evenodd" d="M110 655.5H253v-.7H110v.7Z" class="g0_11"/>
<path fill-rule="evenodd" d="M253 655.5h.8v-.7H253v.7Z" class="g0_11"/>
<path fill-rule="evenodd" d="M253.8 655.5H356.1v-.7H253.8v.7Z" class="g0_11"/>
<path fill-rule="evenodd" d="M110 690H253v-.7H110v.7Z" class="g0_11"/>
<path fill-rule="evenodd" d="M253 690h.8v-.7H253v.7Z" class="g0_11"/>
<path fill-rule="evenodd" d="M253.8 690H356.1v-.7H253.8v.7Z" class="g0_11"/>
<path fill-rule="evenodd" d="M108.9 724.3H253v-.8H108.9v.8Z" class="g0_11"/>
<path fill-rule="evenodd" d="M251.9 724.3h.8v-.8h-.8v.8Z" class="g0_11"/>
<path fill-rule="evenodd" d="M252.7 724.3H356.1v-.8H252.7v.8Z" class="g0_11"/>
</svg>