<?xml version="1.0" encoding="UTF-8" standalone="no"?>
<!DOCTYPE svg PUBLIC "-//W3C//DTD SVG 1.1//EN"
"http://www.w3.org/Graphics/SVG/1.1/DTD/svg11.dtd">
<svg viewBox="0 0 909 1286" version="1.1" xmlns="http://www.w3.org/2000/svg" xmlns:xlink="http://www.w3.org/1999/xlink">
<defs>
<clipPath id="c0_28"><path d="M0 1286.2V0H909.4V1286.2Z"/></clipPath>
<style type="text/css"><![CDATA[
.g0_28{
fill: none;
stroke: #000;
stroke-width: 0.916;
stroke-miterlimit: 10;
}
.g1_28{
fill: #000080;
}
.g2_28{
fill: #F00;
}
]]></style>
</defs>
<path d="M261.6 1048.7h163m-163 81.7H418.9" class="g0_28"/>
<path fill-rule="evenodd" d="M362.8 681.9L371 690l-8.2 8.1v-3.9h-3.3c-4.1 0 -7.4 1.8 -7.4 3.9v12.6H344V698.1c0 -6.8 6.9 -12.4 15.5 -12.4h3.3v-3.8Z" class="g1_28"/>
<path fill-rule="evenodd" d="M479.8 690.1h12.6c6.8 0 12.4 6.9 12.4 15.5V709h3.9l-8.2 8.1L492.4 709h3.9v-3.4c0 -4.1 -1.8 -7.4 -3.9 -7.4H479.8v-8.1Z" class="g2_28"/>
<path fill-rule="evenodd" d="M415 733.5v4.6h27.7v9.1H415v4.7l-9.2 -9.2l9.2 -9.2Z" class="g1_28"/>
<image clip-path="url(#c0_28)" preserveAspectRatio="none" x="134" y="-118" width="619" height="237" xlink:href="img/1.png"/>
</svg>