<?xml version="1.0" encoding="UTF-8" standalone="no"?>
<!DOCTYPE svg PUBLIC "-//W3C//DTD SVG 1.1//EN"
"http://www.w3.org/Graphics/SVG/1.1/DTD/svg11.dtd">
<svg viewBox="0 0 909 1286" version="1.1" xmlns="http://www.w3.org/2000/svg" xmlns:xlink="http://www.w3.org/1999/xlink">
<defs>
<style type="text/css"><![CDATA[
.g0_5{
fill: #000;
}
]]></style>
</defs>
<path fill-rule="evenodd" d="M110 110.7h.8V110H110v.7Z" class="g0_5"/>
<path fill-rule="evenodd" d="M110 110.7h.8V110H110v.7Z" class="g0_5"/>
<path fill-rule="evenodd" d="M110.8 110.7H454.4V110H110.8v.7Z" class="g0_5"/>
<path fill-rule="evenodd" d="M454.4 110.7h.7V110h-.7v.7Z" class="g0_5"/>
<path fill-rule="evenodd" d="M455.1 110.7H798.9V110H455.1v.7Z" class="g0_5"/>
<path fill-rule="evenodd" d="M798.9 110.7h.8V110h-.8v.7Z" class="g0_5"/>
<path fill-rule="evenodd" d="M798.9 110.7h.8V110h-.8v.7Z" class="g0_5"/>
<path fill-rule="evenodd" d="M110 189.2h.8V110.7H110v78.5Z" class="g0_5"/>
<path fill-rule="evenodd" d="M454.4 189.2h.7V110.7h-.7v78.5Z" class="g0_5"/>
<path fill-rule="evenodd" d="M798.9 189.2h.8V110.7h-.8v78.5Z" class="g0_5"/>
<path fill-rule="evenodd" d="M110 190h.8v-.8H110v.8Z" class="g0_5"/>
<path fill-rule="evenodd" d="M110.8 190H454.4v-.8H110.8v.8Z" class="g0_5"/>
<path fill-rule="evenodd" d="M454.4 190h.7v-.8h-.7v.8Z" class="g0_5"/>
<path fill-rule="evenodd" d="M455.1 190H798.9v-.8H455.1v.8Z" class="g0_5"/>
<path fill-rule="evenodd" d="M798.9 190h.8v-.8h-.8v.8Z" class="g0_5"/>
<path fill-rule="evenodd" d="M110 268.6h.8V190H110v78.6Z" class="g0_5"/>
<path fill-rule="evenodd" d="M454.4 268.6h.7V190h-.7v78.6Z" class="g0_5"/>
<path fill-rule="evenodd" d="M798.9 268.6h.8V190h-.8v78.6Z" class="g0_5"/>
<path fill-rule="evenodd" d="M110 269.3h.8v-.7H110v.7Z" class="g0_5"/>
<path fill-rule="evenodd" d="M110.8 269.3H454.4v-.7H110.8v.7Z" class="g0_5"/>
<path fill-rule="evenodd" d="M454.4 269.3h.7v-.7h-.7v.7Z" class="g0_5"/>
<path fill-rule="evenodd" d="M455.1 269.3H798.9v-.7H455.1v.7Z" class="g0_5"/>
<path fill-rule="evenodd" d="M798.9 269.3h.8v-.7h-.8v.7Z" class="g0_5"/>
<path fill-rule="evenodd" d="M110 316.3h.8v-47H110v47Z" class="g0_5"/>
<path fill-rule="evenodd" d="M110 317h.8v-.7H110v.7Z" class="g0_5"/>
<path fill-rule="evenodd" d="M110 317h.8v-.7H110v.7Z" class="g0_5"/>
<path fill-rule="evenodd" d="M110.8 317H454.4v-.7H110.8v.7Z" class="g0_5"/>
<path fill-rule="evenodd" d="M454.4 316.3h.7v-47h-.7v47Z" class="g0_5"/>
<path fill-rule="evenodd" d="M454.4 317h.7v-.7h-.7v.7Z" class="g0_5"/>
<path fill-rule="evenodd" d="M455.1 317H798.9v-.7H455.1v.7Z" class="g0_5"/>
<path fill-rule="evenodd" d="M798.9 316.3h.8v-47h-.8v47Z" class="g0_5"/>
<path fill-rule="evenodd" d="M798.9 317h.8v-.7h-.8v.7Z" class="g0_5"/>
<path fill-rule="evenodd" d="M798.9 317h.8v-.7h-.8v.7Z" class="g0_5"/>
<path fill-rule="evenodd" d="M347.1 384.8H562.6V383H347.1v1.8Z" class="g0_5"/>
<path fill-rule="evenodd" d="M110 630.7h.8V630H110v.7Z" class="g0_5"/>
<path fill-rule="evenodd" d="M110 630.7h.8V630H110v.7Z" class="g0_5"/>
<path fill-rule="evenodd" d="M110.8 630.7H454.4V630H110.8v.7Z" class="g0_5"/>
<path fill-rule="evenodd" d="M454.4 630.7h.7V630h-.7v.7Z" class="g0_5"/>
<path fill-rule="evenodd" d="M455.1 630.7H798.9V630H455.1v.7Z" class="g0_5"/>
<path fill-rule="evenodd" d="M798.9 630.7h.8V630h-.8v.7Z" class="g0_5"/>
<path fill-rule="evenodd" d="M798.9 630.7h.8V630h-.8v.7Z" class="g0_5"/>
<path fill-rule="evenodd" d="M110 677.7h.8v-47H110v47Z" class="g0_5"/>
<path fill-rule="evenodd" d="M454.4 677.7h.7v-47h-.7v47Z" class="g0_5"/>
<path fill-rule="evenodd" d="M798.9 677.7h.8v-47h-.8v47Z" class="g0_5"/>
<path fill-rule="evenodd" d="M110 678.4h.8v-.7H110v.7Z" class="g0_5"/>
<path fill-rule="evenodd" d="M110.8 678.4H454.4v-.7H110.8v.7Z" class="g0_5"/>
<path fill-rule="evenodd" d="M454.4 678.4h.7v-.7h-.7v.7Z" class="g0_5"/>
<path fill-rule="evenodd" d="M455.1 678.4H798.9v-.7H455.1v.7Z" class="g0_5"/>
<path fill-rule="evenodd" d="M798.9 678.4h.8v-.7h-.8v.7Z" class="g0_5"/>
<path fill-rule="evenodd" d="M110 725.4h.8v-47H110v47Z" class="g0_5"/>
<path fill-rule="evenodd" d="M454.4 725.4h.7v-47h-.7v47Z" class="g0_5"/>
<path fill-rule="evenodd" d="M798.9 725.4h.8v-47h-.8v47Z" class="g0_5"/>
<path fill-rule="evenodd" d="M110 726.1h.8v-.7H110v.7Z" class="g0_5"/>
<path fill-rule="evenodd" d="M110.8 726.1H454.4v-.7H110.8v.7Z" class="g0_5"/>
<path fill-rule="evenodd" d="M454.4 726.1h.7v-.7h-.7v.7Z" class="g0_5"/>
<path fill-rule="evenodd" d="M455.1 726.1H798.9v-.7H455.1v.7Z" class="g0_5"/>
<path fill-rule="evenodd" d="M798.9 726.1h.8v-.7h-.8v.7Z" class="g0_5"/>
<path fill-rule="evenodd" d="M110 773h.8V726.1H110V773Z" class="g0_5"/>
<path fill-rule="evenodd" d="M454.4 773h.7V726.1h-.7V773Z" class="g0_5"/>
<path fill-rule="evenodd" d="M798.9 773h.8V726.1h-.8V773Z" class="g0_5"/>
<path fill-rule="evenodd" d="M110 773.8h.8V773H110v.8Z" class="g0_5"/>
<path fill-rule="evenodd" d="M110.8 773.8H454.4V773H110.8v.8Z" class="g0_5"/>
<path fill-rule="evenodd" d="M454.4 773.8h.7V773h-.7v.8Z" class="g0_5"/>
<path fill-rule="evenodd" d="M455.1 773.8H798.9V773H455.1v.8Z" class="g0_5"/>
<path fill-rule="evenodd" d="M798.9 773.8h.8V773h-.8v.8Z" class="g0_5"/>
<path fill-rule="evenodd" d="M110 820.7h.8V773.8H110v46.9Z" class="g0_5"/>
<path fill-rule="evenodd" d="M454.4 820.7h.7V773.8h-.7v46.9Z" class="g0_5"/>
<path fill-rule="evenodd" d="M798.9 820.7h.8V773.8h-.8v46.9Z" class="g0_5"/>
<path fill-rule="evenodd" d="M110 821.4h.8v-.7H110v.7Z" class="g0_5"/>
<path fill-rule="evenodd" d="M110.8 821.4H454.4v-.7H110.8v.7Z" class="g0_5"/>
<path fill-rule="evenodd" d="M454.4 821.4h.7v-.7h-.7v.7Z" class="g0_5"/>
<path fill-rule="evenodd" d="M455.1 821.4H798.9v-.7H455.1v.7Z" class="g0_5"/>
<path fill-rule="evenodd" d="M798.9 821.4h.8v-.7h-.8v.7Z" class="g0_5"/>
<path fill-rule="evenodd" d="M110 868.4h.8v-47H110v47Z" class="g0_5"/>
<path fill-rule="evenodd" d="M454.4 868.4h.7v-47h-.7v47Z" class="g0_5"/>
<path fill-rule="evenodd" d="M798.9 868.4h.8v-47h-.8v47Z" class="g0_5"/>
<path fill-rule="evenodd" d="M110 869.1h.8v-.7H110v.7Z" class="g0_5"/>
<path fill-rule="evenodd" d="M110.8 869.1H454.4v-.7H110.8v.7Z" class="g0_5"/>
<path fill-rule="evenodd" d="M454.4 869.1h.7v-.7h-.7v.7Z" class="g0_5"/>
<path fill-rule="evenodd" d="M455.1 869.1H798.9v-.7H455.1v.7Z" class="g0_5"/>
<path fill-rule="evenodd" d="M798.9 869.1h.8v-.7h-.8v.7Z" class="g0_5"/>
<path fill-rule="evenodd" d="M110 916h.8V869.1H110V916Z" class="g0_5"/>
<path fill-rule="evenodd" d="M454.4 916h.7V869.1h-.7V916Z" class="g0_5"/>
<path fill-rule="evenodd" d="M798.9 916h.8V869.1h-.8V916Z" class="g0_5"/>
<path fill-rule="evenodd" d="M110 916.8h.8V916H110v.8Z" class="g0_5"/>
<path fill-rule="evenodd" d="M110.8 916.8H454.4V916H110.8v.8Z" class="g0_5"/>
<path fill-rule="evenodd" d="M454.4 916.8h.7V916h-.7v.8Z" class="g0_5"/>
<path fill-rule="evenodd" d="M455.1 916.8H798.9V916H455.1v.8Z" class="g0_5"/>
<path fill-rule="evenodd" d="M798.9 916.8h.8V916h-.8v.8Z" class="g0_5"/>
<path fill-rule="evenodd" d="M110 963.9h.8V916.8H110v47.1Z" class="g0_5"/>
<path fill-rule="evenodd" d="M110 964.7h.8v-.8H110v.8Z" class="g0_5"/>
<path fill-rule="evenodd" d="M110 964.7h.8v-.8H110v.8Z" class="g0_5"/>
<path fill-rule="evenodd" d="M110.8 964.7H454.4v-.8H110.8v.8Z" class="g0_5"/>
<path fill-rule="evenodd" d="M454.4 963.9h.7V916.8h-.7v47.1Z" class="g0_5"/>
<path fill-rule="evenodd" d="M454.4 964.7h.7v-.8h-.7v.8Z" class="g0_5"/>
<path fill-rule="evenodd" d="M455.1 964.7H798.9v-.8H455.1v.8Z" class="g0_5"/>
<path fill-rule="evenodd" d="M798.9 963.9h.8V916.8h-.8v47.1Z" class="g0_5"/>
<path fill-rule="evenodd" d="M798.9 964.7h.8v-.8h-.8v.8Z" class="g0_5"/>
<path fill-rule="evenodd" d="M798.9 964.7h.8v-.8h-.8v.8Z" class="g0_5"/>
</svg>